<?xml version="1.0" encoding="utf-8"?>
<!-- Generator: Adobe Illustrator 26.4.1, SVG Export Plug-In . SVG Version: 6.00 Build 0)  -->
<svg version="1.1" id="Layer_1" xmlns="http://www.w3.org/2000/svg" xmlns:xlink="http://www.w3.org/1999/xlink" x="0px" y="0px"
	 viewBox="0 0 736.3 230.5" style="enable-background:new 0 0 736.3 230.5;" xml:space="preserve">
<style type="text/css">
	.st0{opacity:0.39;}
	.st1{clip-path:url(#SVGID_00000012434505649540404200000002052479289921650822_);}
	.st2{fill:#004881;}
	.st3{fill:#004880;}
	.st4{fill:#00477F;}
	.st5{fill:#00467E;}
	.st6{fill:#00457D;}
	.st7{fill:#00447C;}
	.st8{fill:#00447B;}
	.st9{fill:#00437A;}
	.st10{fill:#004279;}
	.st11{fill:#004178;}
	.st12{fill:#004077;}
	.st13{fill:#004076;}
	.st14{fill:#003F76;}
	.st15{fill:#003F75;}
	.st16{fill:#003E74;}
	.st17{fill:#003D73;}
	.st18{fill:#003C72;}
	.st19{fill:#003C71;}
	.st20{fill:#003B71;}
	.st21{fill:#003B70;}
	.st22{fill:#003A6F;}
	.st23{fill:#00396F;}
	.st24{fill:#00396E;}
	.st25{fill:#00386D;}
	.st26{fill:#00376C;}
	.st27{fill:#00376B;}
	.st28{fill:#00366B;}
	.st29{fill:#00366A;}
	.st30{fill:#003569;}
	.st31{fill:#003469;}
	.st32{fill:#003468;}
	.st33{fill:#003367;}
	.st34{fill:#003266;}
	.st35{fill:#003265;}
	.st36{fill:#003165;}
	.st37{fill:#003064;}
	.st38{fill:#003063;}
	.st39{fill:#002F63;}
	.st40{fill:#002F62;}
	.st41{fill:#002E61;}
	.st42{fill:#002D60;}
	.st43{fill:#002C5F;}
	.st44{fill:#002B5E;}
	.st45{fill:#002A5D;}
	.st46{fill:#002A5C;}
	.st47{fill:#00295C;}
	.st48{fill:#00285B;}
	.st49{fill:#00285A;}
	.st50{fill:#00275A;}
	.st51{fill:#002759;}
	.st52{fill:#002658;}
	.st53{fill:#002558;}
	.st54{fill:#002557;}
	.st55{fill:#002456;}
	.st56{fill:#002355;}
	.st57{fill:#002254;}
	.st58{fill:#002153;}
	.st59{fill:#002152;}
	.st60{fill:#002052;}
	.st61{fill:#001F51;}
	.st62{fill:#001F50;}
	.st63{fill:#001E50;}
	.st64{fill:#001D4F;}
	.st65{fill:#001C4E;}
	.st66{fill:#001B4D;}
	.st67{fill:#001A4C;}
	.st68{fill:#00194B;}
	.st69{fill:#00184B;}
	.st70{fill:#00184A;}
	.st71{fill:#001749;}
	.st72{fill:#001648;}
	.st73{fill:#001548;}
	.st74{fill:#001547;}
	.st75{fill:#001446;}
	.st76{fill:#001346;}
	.st77{fill:#001245;}
	.st78{fill:#001144;}
	.st79{fill:#001044;}
	.st80{fill:#000F43;}
	.st81{fill:#000E42;}
	.st82{fill:#000D42;}
	.st83{fill:#000C41;}
	.st84{fill:#000B40;}
	.st85{fill:#000A3F;}
	.st86{fill:#00093F;}
	.st87{fill:#00083E;}
	.st88{fill:#00073D;}
	.st89{fill:#00053D;}
	.st90{clip-path:url(#SVGID_00000089544156188068461490000006982946339356986546_);}
	.st91{fill:url(#SVGID_00000156570942804229475580000005273329712359762075_);}
	.st92{fill:url(#SVGID_00000049211222010048204260000010418366996766651279_);}
	.st93{fill:url(#SVGID_00000087403427072751634500000010932570457439783587_);}
	.st94{fill:#191249;}
	.st95{fill:#150958;}
	.st96{fill:#A7A9AC;}
</style>
<g>
	<g class="st0">
		<g>
			<defs>
				<path id="SVGID_1_" d="M210.7,19v135.6c0,26.8-18.6,50.1-44.9,55.8c-8.1,1.8-17.5,3.4-28.5,4.6c-8.6,1-17.1,3.2-25.1,6.6
					L109,223l-6.2-2.9c-6-2.8-12.4-4.6-19-5.3c-10.6-1.1-21.1-2.8-31.6-5c-26.2-5.7-45-28.9-44.9-55.8V18.5l9.4-1.9
					C77.6,4.3,140.3,4.4,201.2,17.1L210.7,19z"/>
			</defs>
			<clipPath id="SVGID_00000121268488140685108850000004042399632578622903_">
				<use xlink:href="#SVGID_1_"  style="overflow:visible;"/>
			</clipPath>
			<g style="clip-path:url(#SVGID_00000121268488140685108850000004042399632578622903_);">
				<path class="st2" d="M189.6,65.5H175c-2.7,0-5.2-1.5-6.6-3.9l-7.5-13.5c-1.3-2.3-1.3-5.1,0-7.3l7.5-13.5
					c1.3-2.4,3.8-3.9,6.6-3.9h14.6c2.7,0,5.2,1.5,6.6,3.9l7.5,13.5c1.3,2.3,1.3,5.1,0,7.3l-7.5,13.5C194.9,64,192.4,65.5,189.6,65.5
					z M175,23.7c-2.6,0-5.1,1.4-6.4,3.7l-7.5,13.5c-1.2,2.2-1.2,4.9,0,7.1l7.5,13.5c1.3,2.3,3.7,3.7,6.4,3.8h14.6
					c2.6,0,5.1-1.4,6.4-3.8l7.5-13.5c1.2-2.2,1.2-4.9,0-7.1L196,27.4c-1.3-2.3-3.7-3.7-6.4-3.7L175,23.7z"/>
				<path class="st3" d="M189.7,67.8h-16.3c-2.8,0-5.3-1.5-6.7-3.9L158.4,49c-1.3-2.3-1.3-5.2,0-7.5l8.4-14.9
					c1.4-2.4,3.9-3.9,6.7-3.9h16.3c2.8,0,5.3,1.5,6.7,3.9l8.4,14.9c1.3,2.3,1.3,5.2,0,7.5l-8.4,14.9C195,66.3,192.5,67.8,189.7,67.8
					z M173.4,22.8c-2.7,0-5.2,1.5-6.5,3.8l-8.4,14.9c-1.2,2.3-1.2,5,0,7.3l8.4,14.9c1.3,2.4,3.8,3.8,6.5,3.8h16.3
					c2.7,0,5.2-1.5,6.5-3.8l8.4-14.9c1.2-2.3,1.2-5,0-7.3l-8.4-14.9c-1.3-2.4-3.8-3.8-6.5-3.8H173.4z"/>
				<path class="st4" d="M189.8,70.1h-17.9c-2.8,0-5.4-1.5-6.8-4l-9.2-16.4c-1.3-2.4-1.3-5.3,0-7.6l9.2-16.4c1.4-2.5,4-4,6.8-4h17.9
					c2.8,0,5.4,1.5,6.8,4l9.2,16.4c1.3,2.4,1.3,5.3,0,7.6l-9.2,16.4C195.2,68.6,192.6,70.1,189.8,70.1z M171.8,22
					c-2.7,0-5.3,1.5-6.6,3.9L156,42.3c-1.3,2.3-1.3,5.1,0,7.4l9.2,16.4c1.3,2.4,3.9,3.9,6.6,3.9h17.9c2.7,0,5.3-1.5,6.6-3.9
					l9.2-16.4c1.3-2.3,1.3-5.1,0-7.4l-9.2-16.4c-1.3-2.4-3.9-3.9-6.6-3.9L171.8,22z"/>
				<path class="st4" d="M189.9,72.5h-19.6c-2.9,0-5.6-1.6-7-4.1l-10-17.8c-1.3-2.4-1.3-5.3,0-7.8l10-17.8c1.4-2.5,4.1-4.1,6.9-4.1
					h19.6c2.9,0,5.5,1.6,6.9,4.1l10,17.8c1.3,2.4,1.3,5.3,0,7.8l-10,17.8C195.3,70.9,192.7,72.4,189.9,72.5z M170.3,21.2
					c-2.8,0-5.4,1.5-6.7,3.9l-10,17.8c-1.3,2.3-1.3,5.2,0,7.5l10,17.8c1.4,2.4,3.9,3.9,6.7,3.9h19.6c2.8,0,5.4-1.5,6.7-3.9l10-17.8
					c1.3-2.3,1.3-5.2,0-7.5l-10-17.8c-1.4-2.4-3.9-3.9-6.7-3.9L170.3,21.2z"/>
				<path class="st5" d="M189.9,74.8h-21.3c-2.9,0-5.6-1.6-7.1-4.1l-10.8-19.2c-1.4-2.5-1.4-5.4,0-7.9l10.8-19.2
					c1.4-2.6,4.1-4.1,7.1-4.1h21.3c2.9,0,5.6,1.6,7.1,4.1l10.8,19.2c1.4,2.5,1.4,5.4,0,7.9L197,70.6
					C195.6,73.2,192.9,74.8,189.9,74.8z M168.7,20.4c-2.8,0-5.5,1.5-6.8,4L151,43.6c-1.3,2.4-1.3,5.3,0,7.7l10.8,19.2
					c1.4,2.5,4,4,6.8,4h21.3c2.8,0,5.4-1.5,6.8-4l10.8-19.2c1.3-2.4,1.3-5.3,0-7.7l-10.8-19.1c-1.4-2.5-4-4-6.8-4L168.7,20.4z"/>
				<path class="st6" d="M190,77.1h-22.9c-3,0-5.7-1.6-7.2-4.2l-11.6-20.6c-1.4-2.5-1.4-5.5,0-8l11.7-20.6c1.5-2.6,4.2-4.2,7.2-4.2
					H190c3,0,5.7,1.6,7.2,4.2l11.7,20.6c1.4,2.5,1.4,5.5,0,8l-11.7,20.6C195.7,75.5,193,77.1,190,77.1z M167.1,19.6
					c-2.9,0-5.6,1.5-7,4.1l-11.7,20.6c-1.4,2.4-1.4,5.4,0,7.8l11.7,20.6c1.4,2.5,4.1,4.1,7,4.1H190c2.9,0,5.6-1.5,7-4.1l11.7-20.6
					c1.4-2.4,1.4-5.4,0-7.8L197,23.7c-1.4-2.5-4.1-4.1-7-4.1L167.1,19.6z"/>
				<path class="st6" d="M190.1,79.4h-24.6c-3,0-5.8-1.6-7.3-4.3l-12.5-22.1c-1.4-2.5-1.4-5.6,0-8.2l12.5-22.1
					c1.5-2.6,4.3-4.3,7.3-4.3h24.6c3,0,5.8,1.6,7.3,4.3l12.5,22.1c1.4,2.5,1.4,5.6,0,8.2l-12.5,22.1
					C195.9,77.8,193.1,79.4,190.1,79.4z M165.5,18.8c-2.9,0-5.6,1.6-7.1,4.1L145.9,45c-1.4,2.5-1.4,5.5,0,7.9L158.4,75
					c1.4,2.6,4.1,4.1,7.1,4.1h24.6c2.9,0,5.6-1.6,7.1-4.1l12.5-22.1c1.4-2.5,1.4-5.5,0-7.9l-12.5-22.1c-1.4-2.6-4.1-4.1-7.1-4.1
					H165.5z"/>
				<path class="st7" d="M190.1,81.7h-26.2c-3.1,0-5.9-1.7-7.4-4.3l-13.3-23.5c-1.4-2.6-1.4-5.7,0-8.3l13.3-23.5
					c1.5-2.7,4.3-4.3,7.4-4.3h26.2c3.1,0,5.9,1.7,7.4,4.3l13.3,23.5c1.5,2.6,1.5,5.7,0,8.3l-13.3,23.5
					C196.1,80.1,193.2,81.7,190.1,81.7z M163.9,18c-3,0-5.7,1.6-7.2,4.2l-13.3,23.5c-1.4,2.5-1.4,5.6,0,8.1l13.3,23.5
					c1.5,2.6,4.2,4.2,7.2,4.2h26.2c3,0,5.7-1.6,7.2-4.2l13.3-23.5c1.4-2.5,1.4-5.6,0-8.1l-13.3-23.5c-1.5-2.6-4.2-4.2-7.2-4.2H163.9
					z"/>
				<path class="st8" d="M190.3,84.1h-27.9c-3.1,0-6-1.7-7.5-4.4l-14.1-24.9c-1.5-2.6-1.5-5.8,0-8.5l14.1-24.9
					c1.5-2.7,4.4-4.4,7.5-4.4h27.9c3.1,0,6,1.7,7.5,4.4L212,46.2c1.5,2.6,1.5,5.8,0,8.5l-14.2,24.9
					C196.3,82.4,193.4,84.1,190.3,84.1z M162.4,17.2c-3,0-5.8,1.6-7.3,4.3l-14.2,24.9c-1.4,2.5-1.4,5.7,0,8.2L155,79.5
					c1.5,2.6,4.3,4.3,7.3,4.3h27.9c3,0,5.8-1.6,7.3-4.3l14.2-24.9c1.4-2.5,1.4-5.7,0-8.2l-14.2-24.9c-1.5-2.6-4.3-4.3-7.3-4.3
					L162.4,17.2z"/>
				<path class="st9" d="M190.3,86.4h-29.5c-3.2,0-6.1-1.7-7.6-4.5l-15-26.4c-1.5-2.7-1.5-5.9,0-8.6l15-26.4
					c1.6-2.8,4.5-4.5,7.6-4.5h29.5c3.2,0,6.1,1.7,7.7,4.5l15,26.4c1.5,2.7,1.5,5.9,0,8.6l-15,26.4C196.4,84.7,193.4,86.4,190.3,86.4
					z M160.7,16.4c-3.1,0-5.9,1.7-7.4,4.3l-15,26.4c-1.4,2.6-1.4,5.7,0,8.3l15,26.4c1.5,2.7,4.3,4.3,7.4,4.3h29.6
					c3.1,0,5.9-1.7,7.4-4.3l15-26.4c1.4-2.6,1.4-5.7,0-8.3l-15-26.4c-1.5-2.7-4.3-4.3-7.4-4.3L160.7,16.4z"/>
				<path class="st9" d="M190.4,88.7h-31.2c-3.2,0-6.2-1.7-7.8-4.5l-15.8-27.8c-1.5-2.7-1.5-6,0-8.8l15.8-27.8
					c1.6-2.8,4.6-4.5,7.8-4.6h31.2c3.2,0,6.2,1.7,7.8,4.6L214,47.6c1.5,2.7,1.5,6,0,8.8l-15.8,27.8
					C196.6,86.9,193.6,88.7,190.4,88.7z M159.1,15.6c-3.1,0-6,1.7-7.5,4.4l-15.8,27.8c-1.5,2.6-1.5,5.8,0,8.5L151.6,84
					c1.5,2.7,4.4,4.4,7.5,4.4h31.2c3.1,0,6-1.7,7.5-4.4l15.8-27.8c1.5-2.6,1.5-5.8,0-8.5L197.9,20c-1.5-2.7-4.4-4.4-7.5-4.4H159.1z"
					/>
				<path class="st10" d="M190.4,91h-32.9c-3.3,0-6.3-1.8-7.9-4.6L133,57.2c-1.5-2.8-1.5-6.1,0-8.9l16.6-29.2
					c1.6-2.8,4.6-4.6,7.9-4.6h32.9c3.3,0,6.3,1.8,7.9,4.6L215,48.3c1.5,2.8,1.5,6.1,0,8.9l-16.6,29.2C196.7,89.2,193.7,91,190.4,91z
					 M157.6,14.7c-3.2,0-6.1,1.7-7.6,4.5l-16.6,29.2c-1.5,2.7-1.5,5.9,0,8.6l16.6,29.2c1.6,2.8,4.5,4.5,7.6,4.5h32.9
					c3.2,0,6.1-1.7,7.6-4.5L214.7,57c1.5-2.7,1.5-5.9,0-8.6l-16.6-29.2c-1.6-2.8-4.5-4.5-7.6-4.5L157.6,14.7z"/>
				<path class="st11" d="M190.5,93.3H156c-3.3,0-6.4-1.8-8-4.7L130.5,58c-1.6-2.8-1.6-6.2,0-9L148,18.3c1.6-2.9,4.7-4.7,8-4.7h34.6
					c3.3,0,6.4,1.8,8,4.7L216,49c1.6,2.8,1.6,6.2,0,9l-17.5,30.6C196.9,91.5,193.8,93.3,190.5,93.3z M156,13.9
					c-3.2,0-6.1,1.8-7.7,4.6l-17.5,30.6c-1.5,2.7-1.5,6,0,8.7l17.5,30.6c1.6,2.8,4.5,4.5,7.8,4.5h34.6c3.2,0,6.1-1.8,7.7-4.5
					l17.5-30.6c1.5-2.7,1.5-6,0-8.7l-17.5-30.6c-1.6-2.8-4.5-4.5-7.8-4.5L156,13.9z"/>
				<path class="st11" d="M190.6,95.6h-36.2c-3.4,0-6.5-1.8-8.1-4.8L128,58.8c-1.6-2.8-1.6-6.3,0-9.2l18.3-32.1
					c1.7-2.9,4.8-4.7,8.1-4.7h36.2c3.4,0,6.5,1.8,8.1,4.7L217,49.6c1.6,2.8,1.6,6.3,0,9.2l-18.3,32.1
					C197.1,93.8,194,95.6,190.6,95.6z M154.4,13.1c-3.3,0-6.3,1.8-7.9,4.6l-18.3,32.1c-1.5,2.8-1.5,6.1,0,8.9l18.3,32.1
					c1.6,2.8,4.6,4.6,7.9,4.6h36.2c3.3,0,6.3-1.8,7.9-4.6l18.3-32.1c1.5-2.8,1.5-6.1,0-8.9l-18.3-32.1c-1.6-2.8-4.6-4.6-7.9-4.6
					H154.4z"/>
				<path class="st12" d="M190.7,98h-37.9c-3.4,0-6.6-1.8-8.2-4.8l-19.1-33.5c-1.6-2.9-1.6-6.4,0-9.3l19.1-33.5
					c1.7-3,4.8-4.8,8.2-4.8h37.9c3.4,0,6.6,1.8,8.2,4.8L218,50.3c1.6,2.9,1.6,6.4,0,9.3l-19.1,33.5C197.2,96.1,194.1,98,190.7,98z
					 M152.8,12.3c-3.3,0-6.4,1.8-8,4.7l-19.1,33.5c-1.6,2.8-1.6,6.2,0,9L144.8,93c1.6,2.9,4.7,4.7,8,4.7h37.9c3.3,0,6.4-1.8,8-4.7
					l19.1-33.5c1.6-2.8,1.6-6.2,0-9L198.7,17c-1.6-2.9-4.7-4.7-8-4.7L152.8,12.3z"/>
				<path class="st13" d="M190.7,100.3h-39.5c-3.5,0-6.7-1.9-8.4-4.9l-20-34.9c-1.6-2.9-1.6-6.5,0-9.4l20-34.9
					c1.7-3,4.9-4.9,8.4-4.9h39.5c3.5,0,6.7,1.9,8.4,4.9l20,34.9c1.6,2.9,1.6,6.5,0,9.4l-20,34.9C197.4,98.4,194.2,100.3,190.7,100.3
					z M151.2,11.5c-3.4,0-6.4,1.8-8.1,4.7l-20,34.9c-1.6,2.8-1.6,6.3,0,9.1l20,34.9c1.7,2.9,4.7,4.7,8.1,4.7h39.5
					c3.4,0,6.4-1.8,8.1-4.7l19.9-34.9c1.6-2.8,1.6-6.3,0-9.1l-19.9-34.9c-1.7-2.9-4.7-4.7-8.1-4.7L151.2,11.5z"/>
				<path class="st14" d="M190.8,102.6h-41.2c-3.5,0-6.8-1.9-8.5-5l-20.8-36.4c-1.7-3-1.7-6.6,0-9.6l20.8-36.4c1.7-3.1,5-5,8.5-5
					h41.2c3.5,0,6.8,1.9,8.5,5l20.8,36.4c1.7,3,1.7,6.6,0,9.6l-20.8,36.4C197.5,100.7,194.3,102.6,190.8,102.6z M149.6,10.7
					c-3.4,0-6.5,1.8-8.2,4.8l-20.8,36.4c-1.6,2.9-1.6,6.4,0,9.3l20.8,36.4c1.7,3,4.8,4.8,8.2,4.8h41.2c3.4,0,6.5-1.8,8.2-4.8
					l20.8-36.4c1.6-2.9,1.6-6.4,0-9.3L199,15.5c-1.7-3-4.8-4.8-8.2-4.8L149.6,10.7z"/>
				<path class="st15" d="M190.9,104.9H148c-3.6,0-6.8-1.9-8.6-5l-21.6-37.8c-1.7-3-1.7-6.7,0-9.7l21.6-37.8c1.8-3.1,5-5,8.6-5h42.8
					c3.6,0,6.8,1.9,8.6,5l21.6,37.8c1.7,3,1.7,6.7,0,9.7l-21.6,37.8C197.7,103,194.5,104.9,190.9,104.9z M148,9.9
					c-3.4,0-6.6,1.9-8.3,4.9l-21.6,37.8c-1.6,2.9-1.6,6.5,0,9.4l21.6,37.8c1.7,3,4.9,4.9,8.3,4.9h42.9c3.4,0,6.6-1.9,8.3-4.9
					L220.8,62c1.6-2.9,1.6-6.5,0-9.4l-21.5-37.8c-1.7-3-4.9-4.8-8.3-4.9L148,9.9z"/>
				<path class="st16" d="M191,107.2h-44.5c-3.6,0-7-1.9-8.7-5.1l-22.5-39.2c-1.7-3.1-1.7-6.8,0-9.9l22.4-39.2
					c1.8-3.2,5.1-5.1,8.7-5.1H191c3.6,0,6.9,1.9,8.7,5.1l22.4,39.2c1.7,3.1,1.7,6.8,0,9.9l-22.4,39.2
					C197.9,105.3,194.6,107.2,191,107.2z M146.5,9.1c-3.5,0-6.7,1.9-8.4,4.9l-22.4,39.2c-1.7,3-1.7,6.6,0,9.5L138,102
					c1.7,3,4.9,4.9,8.4,4.9H191c3.5,0,6.7-1.9,8.4-4.9l22.4-39.2c1.7-3,1.7-6.6,0-9.5L199.4,14c-1.7-3-4.9-4.9-8.4-4.9H146.5z"/>
				<path class="st17" d="M191,109.6h-46.2c-3.7,0-7-2-8.8-5.2l-23.3-40.7c-1.8-3.1-1.8-6.9,0-10L136,13.1c1.8-3.2,5.2-5.2,8.8-5.2
					H191c3.7,0,7,2,8.9,5.2l23.3,40.7c1.7,3.1,1.7,6.9,0,10l-23.3,40.7C198.1,107.6,194.7,109.5,191,109.6z M144.9,8.2
					c-3.5,0-6.8,1.9-8.6,5l-23.3,40.7c-1.7,3-1.7,6.7,0,9.7l23.3,40.7c1.7,3.1,5,5,8.6,5H191c3.5,0,6.8-1.9,8.6-5l23.3-40.7
					c1.7-3,1.7-6.7,0-9.7l-23.3-40.7c-1.7-3.1-5-5-8.6-5L144.9,8.2z"/>
				<path class="st17" d="M191.1,111.9h-47.9c-3.7,0-7.2-2-9-5.2l-24-42.1c-1.8-3.1-1.8-7,0-10.1l24.1-42.1c1.8-3.2,5.3-5.2,9-5.2
					h47.8c3.7,0,7.2,2,9,5.2l24.1,42.1c1.8,3.1,1.8,7,0,10.1l-24.1,42.1C198.4,109.9,194.9,111.9,191.1,111.9z M143.3,7.5
					c-3.6,0-6.9,1.9-8.7,5.1l-24.1,42.1c-1.7,3-1.7,6.8,0,9.8l24.1,42.1c1.8,3.1,5.1,5,8.7,5.1h47.8c3.6,0,6.9-1.9,8.7-5l24.1-42.1
					c1.7-3,1.7-6.8,0-9.8l-24.1-42.1c-1.8-3.1-5.1-5.1-8.7-5.1L143.3,7.5z"/>
				<path class="st18" d="M191.2,114.2h-49.5c-3.8,0-7.2-2-9.1-5.3l-24.9-43.5c-1.8-3.2-1.8-7.1,0-10.3l24.9-43.5
					c1.9-3.3,5.3-5.3,9.1-5.3h49.5c3.8,0,7.2,2,9.1,5.3l24.9,43.5c1.8,3.2,1.8,7.1,0,10.3l-24.9,43.5
					C198.4,112.2,195,114.2,191.2,114.2z M141.7,6.6c-3.6,0-7,2-8.8,5.1L108,55.3c-1.7,3.1-1.7,6.9,0,9.9l24.9,43.5
					c1.8,3.2,5.1,5.1,8.8,5.1h49.5c3.6,0,7-2,8.8-5.1l24.9-43.5c1.7-3.1,1.7-6.9,0-9.9L200,11.7c-1.8-3.2-5.1-5.1-8.8-5.1H141.7z"/>
				<path class="st19" d="M191.3,116.5h-51.2c-3.8,0-7.3-2.1-9.2-5.4l-25.7-45c-1.8-3.2-1.8-7.2,0-10.4l25.7-44.9
					c1.9-3.3,5.4-5.4,9.2-5.4h51.2c3.8,0,7.3,2,9.2,5.4l25.7,44.9c1.8,3.2,1.8,7.2,0,10.4l-25.8,45
					C198.6,114.4,195.1,116.5,191.3,116.5z M140.1,5.8c-3.7,0-7.1,2-8.9,5.2l-25.8,45c-1.8,3.1-1.8,7,0,10.1l25.8,45
					c1.8,3.2,5.2,5.2,8.9,5.2h51.2c3.7,0,7.1-2,8.9-5.2l25.8-45c1.8-3.1,1.8-7,0-10.1l-25.8-45c-1.8-3.2-5.2-5.2-8.9-5.2H140.1z"/>
				<path class="st20" d="M191.3,118.8h-52.8c-3.9,0-7.4-2.1-9.3-5.4L102.6,67c-1.8-3.3-1.8-7.3,0-10.6l26.6-46.4
					c1.9-3.4,5.5-5.4,9.3-5.4h52.8c3.9,0,7.4,2.1,9.3,5.4l26.6,46.4c1.8,3.3,1.8,7.3,0,10.6l-26.6,46.4
					C198.8,116.8,195.2,118.8,191.3,118.8z M138.5,5c-3.7,0-7.2,2-9,5.2L103,56.6c-1.8,3.2-1.8,7,0,10.2l26.6,46.4
					c1.8,3.2,5.3,5.2,9,5.2h52.8c3.7,0,7.2-2,9-5.2l26.6-46.4c1.8-3.2,1.8-7,0-10.2l-26.6-46.4c-1.8-3.2-5.3-5.3-9-5.3L138.5,5z"/>
				<path class="st21" d="M191.4,121.1h-54.5c-3.9,0-7.5-2.1-9.4-5.5l-27.4-47.8c-1.9-3.3-1.9-7.4,0-10.7l27.4-47.8
					c1.9-3.4,5.5-5.5,9.4-5.5h54.5c3.9,0,7.5,2.1,9.4,5.5l27.4,47.8c1.9,3.3,1.9,7.4,0,10.7l-27.4,47.8
					C198.9,119,195.3,121.1,191.4,121.1z M136.9,4.1c-3.8,0-7.3,2-9.1,5.3l-27.4,47.8c-1.8,3.2-1.8,7.1,0,10.4l27.4,47.9
					c1.9,3.3,5.3,5.3,9.1,5.3h54.5c3.8,0,7.3-2,9.1-5.3L228,67.7c1.8-3.2,1.8-7.1,0-10.3L200.5,9.5c-1.9-3.3-5.3-5.3-9.1-5.3
					L136.9,4.1z"/>
				<path class="st22" d="M191.5,123.5h-56.1c-4,0-7.6-2.1-9.6-5.6L97.6,68.7c-1.9-3.4-1.9-7.5,0-10.9l28.2-49.2
					c2-3.4,5.6-5.6,9.6-5.6h56.1c4,0,7.6,2.1,9.6,5.6l28.2,49.2c1.9,3.4,1.9,7.5,0,10.8L201,117.9
					C199.1,121.3,195.4,123.5,191.5,123.5z M135.4,3.4c-3.8,0-7.4,2.1-9.2,5.4L97.9,58c-1.8,3.3-1.8,7.2,0,10.5l28.2,49.2
					c1.9,3.3,5.4,5.4,9.2,5.4h56.1c3.8,0,7.4-2.1,9.2-5.4L229,68.5c1.8-3.3,1.8-7.2,0-10.5L200.7,8.8c-1.9-3.3-5.4-5.4-9.2-5.4
					L135.4,3.4z"/>
				<path class="st23" d="M191.6,125.8h-57.8c-4,0-7.7-2.2-9.7-5.6L95,69.5c-1.9-3.4-1.9-7.6,0-11l29.1-50.7c2-3.5,5.7-5.6,9.7-5.6
					h57.8c4,0,7.7,2.2,9.7,5.6l29,50.7c1.9,3.4,1.9,7.6,0,11l-29,50.7C199.3,123.6,195.6,125.8,191.6,125.8z M133.8,2.6
					c-3.9,0-7.4,2.1-9.4,5.4L95.4,58.7c-1.9,3.3-1.9,7.3,0,10.6l29.1,50.7c1.9,3.4,5.5,5.4,9.4,5.5h57.8c3.9,0,7.4-2.1,9.4-5.5
					L230,69.3c1.9-3.3,1.9-7.3,0-10.6L200.9,8c-1.9-3.4-5.5-5.4-9.4-5.4L133.8,2.6z"/>
				<path class="st24" d="M191.6,128.1h-59.5c-4,0-7.8-2.2-9.8-5.7L92.5,70.3c-1.9-3.5-1.9-7.7,0-11.1l29.9-52.1
					c2-3.5,5.7-5.7,9.8-5.7h59.5c4.1,0,7.8,2.2,9.8,5.7l29.9,52.1c1.9,3.5,1.9,7.7,0,11.1l-29.9,52.1
					C199.4,125.9,195.7,128.1,191.6,128.1z M132.2,1.8c-3.9,0-7.5,2.1-9.5,5.5L92.8,59.4c-1.9,3.3-1.9,7.4,0,10.8l29.9,52.1
					c1.9,3.4,5.5,5.5,9.5,5.5h59.5c3.9,0,7.5-2.1,9.5-5.5L231,70.1c1.9-3.3,1.9-7.4,0-10.8L201.1,7.3c-1.9-3.4-5.6-5.5-9.5-5.5
					H132.2z"/>
				<path class="st25" d="M191.7,130.4h-61.1c-4.1,0-7.9-2.2-9.9-5.8L90,71.1c-2-3.5-2-7.8,0-11.3l30.7-53.5c2-3.6,5.8-5.8,9.9-5.8
					h61.1c4.1,0,7.9,2.2,9.9,5.8l30.7,53.5c2,3.5,2,7.8,0,11.3l-30.7,53.5C199.6,128.2,195.8,130.4,191.7,130.4z M130.6,0.9
					c-4,0-7.6,2.1-9.6,5.6L90.3,60c-1.9,3.4-1.9,7.5,0,10.9l30.8,53.6c2,3.4,5.6,5.6,9.6,5.6h61.1c4,0,7.6-2.1,9.6-5.6L232,71
					c1.9-3.4,1.9-7.5,0-10.9L201.3,6.5c-2-3.4-5.6-5.6-9.6-5.6L130.6,0.9z"/>
				<path class="st25" d="M191.8,132.7H129c-4.1,0-8-2.2-10-5.8l-31.6-55c-2-3.5-2-7.9,0-11.4l31.6-55c2-3.6,5.9-5.8,10-5.8h62.8
					c4.1,0,7.9,2.2,10,5.8l31.5,55c2,3.5,2,7.9,0,11.4l-31.6,55C199.7,130.5,195.9,132.7,191.8,132.7z M129,0.1
					c-4,0-7.7,2.2-9.7,5.6l-31.6,55c-1.9,3.4-1.9,7.6,0,11l31.6,55c2,3.5,5.7,5.6,9.7,5.6h62.8c4,0,7.7-2.2,9.7-5.6l31.5-55
					c1.9-3.4,1.9-7.6,0-11l-31.5-55c-2-3.5-5.7-5.6-9.7-5.6L129,0.1z"/>
				<path class="st26" d="M191.9,135.1h-64.4c-4.2,0-8.1-2.3-10.2-5.9L84.9,72.8c-2-3.6-2-8,0-11.6l32.4-56.4
					c2.1-3.6,6-5.9,10.2-5.9h64.4c4.2,0,8.1,2.3,10.1,5.9l32.4,56.4c2,3.6,2,8,0,11.6L202,129.2
					C199.9,132.8,196.1,135.1,191.9,135.1z M127.4-0.7c-4.1,0-7.8,2.2-9.8,5.7L85.3,61.4c-1.9,3.5-1.9,7.7,0,11.1l32.4,56.4
					c2,3.5,5.8,5.7,9.8,5.7h64.4c4.1,0,7.8-2.2,9.8-5.7l32.4-56.4c1.9-3.5,1.9-7.7,0-11.1L201.7,5c-2-3.5-5.8-5.7-9.8-5.7L127.4-0.7
					z"/>
				<path class="st27" d="M191.9,137.4h-66.1c-4.3,0-8.2-2.3-10.3-6L82.4,73.6c-2.1-3.6-2.1-8.1,0-11.7l33.2-57.8
					c2.1-3.7,6-6,10.3-6h66.1c4.3,0,8.2,2.3,10.3,6l33.2,57.8c2,3.6,2,8.1,0,11.7l-33.2,57.8C200.1,135.1,196.2,137.4,191.9,137.4z
					 M125.8-1.5c-4.1,0-7.9,2.2-9.9,5.8L82.7,62.1c-2,3.5-2,7.8,0,11.3l33.2,57.8c2,3.6,5.8,5.8,9.9,5.8h66.1c4.1,0,7.9-2.2,9.9-5.8
					l33.2-57.8c2-3.5,2-7.8,0-11.3L201.9,4.3c-2-3.6-5.8-5.8-9.9-5.8L125.8-1.5z"/>
				<path class="st28" d="M192,139.7h-67.8c-4.3,0-8.2-2.3-10.4-6l-34-59.2c-2.1-3.7-2.1-8.2,0-11.8l34-59.3c2.1-3.7,6.1-6,10.4-6
					H192c4.3,0,8.2,2.3,10.4,6l34,59.2c2.1,3.7,2.1,8.2,0,11.8l-34,59.2C200.3,137.4,196.3,139.7,192,139.7z M124.3-2.3
					c-4.1,0-8,2.2-10,5.8l-34,59.2c-2,3.5-2,7.9,0,11.4l34,59.3c2,3.6,5.9,5.8,10,5.8H192c4.1,0,8-2.2,10-5.8l34-59.2
					c2-3.5,2-7.9,0-11.4L202,3.6c-2-3.6-5.9-5.8-10-5.8L124.3-2.3z"/>
				<path class="st29" d="M192.1,142h-69.4c-4.3,0-8.4-2.3-10.5-6.1L77.3,75.2c-2.1-3.7-2.1-8.3,0-12l34.9-60.7
					c2.2-3.8,6.2-6.1,10.5-6.1h69.4c4.3,0,8.4,2.3,10.5,6.1l34.9,60.7c2.1,3.7,2.1,8.3,0,12L202.6,136
					C200.4,139.7,196.4,142,192.1,142z M122.7-3.1c-4.2,0-8.1,2.3-10.1,5.9L77.7,63.5c-2,3.6-2,8,0,11.6l34.9,60.7
					c2.1,3.6,6,5.9,10.1,5.9h69.4c4.2,0,8.1-2.3,10.1-5.9L237.1,75c2-3.6,2-8,0-11.6L202.3,2.8c-2.1-3.6-6-5.9-10.1-5.9L122.7-3.1z"
					/>
				<path class="st30" d="M192.2,144.3h-71.1c-4.4,0-8.4-2.4-10.6-6.2L74.8,76c-2.1-3.8-2.1-8.3,0-12.1l35.7-62.1
					c2.2-3.8,6.2-6.2,10.6-6.2h71.1c4.4,0,8.4,2.4,10.6,6.2l35.7,62.1c2.1,3.8,2.1,8.3,0,12.1l-35.7,62.1
					C200.6,142,196.6,144.3,192.2,144.3z M121.1-3.9c-4.2,0-8.2,2.3-10.3,6L75.1,64.2c-2,3.6-2,8.1,0,11.7l35.7,62.1
					c2.1,3.7,6,6,10.3,6h71.1c4.3,0,8.2-2.3,10.3-6l35.7-62.1c2-3.6,2-8.1,0-11.7L202.4,2.1c-2.1-3.7-6-6-10.3-6L121.1-3.9z"/>
				<path class="st31" d="M192.3,146.7h-72.8c-4.4,0-8.5-2.4-10.8-6.2L72.3,76.9c-2.2-3.8-2.2-8.4,0-12.2l36.5-63.5
					c2.2-3.9,6.3-6.2,10.8-6.2h72.7c4.4,0,8.5,2.4,10.8,6.2l36.5,63.5c2.1,3.8,2.1,8.4,0,12.2L203,140.4
					C200.8,144.3,196.7,146.6,192.3,146.7z M119.5-4.7c-4.3,0-8.2,2.3-10.4,6L72.6,64.8c-2.1,3.7-2.1,8.2,0,11.8l36.5,63.5
					c2.1,3.7,6.1,6,10.4,6h72.7c4.3,0,8.2-2.3,10.4-6l36.5-63.5c2.1-3.7,2.1-8.2,0-11.8L202.7,1.3c-2.1-3.7-6.1-6-10.4-6H119.5z"/>
				<path class="st32" d="M192.3,149h-74.4c-4.5,0-8.6-2.4-10.9-6.3l-37.3-65c-2.2-3.8-2.2-8.5,0-12.4l37.3-65
					c2.2-3.9,6.4-6.3,10.9-6.3h74.4c4.5,0,8.6,2.4,10.9,6.3l37.3,65c2.2,3.8,2.2,8.5,0,12.4l-37.3,65C201,146.6,196.8,149,192.3,149
					z M117.9-5.5c-4.3,0-8.3,2.3-10.5,6.1l-37.3,65c-2.1,3.7-2.1,8.3,0,12l37.3,65c2.2,3.8,6.2,6.1,10.5,6.1h74.4
					c4.3,0,8.3-2.3,10.5-6.1l37.3-65c2.1-3.7,2.1-8.3,0-12l-37.3-65c-2.2-3.8-6.2-6.1-10.5-6.1H117.9z"/>
				<path class="st33" d="M192.4,151.3h-76.1c-4.5,0-8.7-2.4-11-6.4L67.2,78.5c-2.2-3.9-2.2-8.6,0-12.5l38.2-66.4
					c2.3-4,6.5-6.4,11-6.4h76.1c4.5,0,8.7,2.4,11,6.4L241.6,66c2.2,3.9,2.2,8.6,0,12.5l-38.2,66.4
					C201.1,148.8,196.9,151.3,192.4,151.3z M116.3-6.4c-4.4,0-8.4,2.4-10.6,6.2L67.6,66.2c-2.1,3.7-2.1,8.3,0,12.1l38.2,66.4
					c2.2,3.8,6.2,6.2,10.6,6.2h76.1c4.4,0,8.4-2.4,10.6-6.2l38.2-66.4c2.1-3.8,2.1-8.3,0-12.1L203-0.2c-2.2-3.8-6.2-6.2-10.6-6.2
					H116.3z"/>
				<path class="st33" d="M192.5,153.6h-77.7c-4.6,0-8.8-2.5-11.1-6.5l-39-67.8c-2.2-3.9-2.2-8.7,0-12.7l39-67.8
					c2.3-4,6.5-6.4,11.1-6.4h77.7c4.6,0,8.8,2.5,11.1,6.4l39,67.8c2.2,3.9,2.2,8.7,0,12.7l-39,67.8
					C201.3,151.1,197.1,153.6,192.5,153.6z M114.7-7.2c-4.4,0-8.5,2.4-10.7,6.2L65,66.9c-2.2,3.8-2.2,8.4,0,12.2l39,67.8
					c2.2,3.8,6.3,6.2,10.7,6.2h77.7c4.4,0,8.5-2.4,10.7-6.2l39-67.8c2.2-3.8,2.2-8.4,0-12.2l-39-67.8c-2.2-3.8-6.3-6.2-10.7-6.2
					L114.7-7.2z"/>
				<path class="st34" d="M192.5,155.9h-79.4c-4.6,0-8.9-2.5-11.2-6.5L62.1,80.1c-2.2-4-2.2-8.8,0-12.8l39.8-69.3
					c2.3-4,6.6-6.5,11.2-6.5h79.4c4.6,0,8.9,2.5,11.2,6.5l39.8,69.3c2.2,4,2.2,8.8,0,12.8l-39.8,69.3
					C201.5,153.4,197.2,155.9,192.5,155.9z M113.2-8c-4.5,0-8.6,2.4-10.8,6.3L62.5,67.6c-2.2,3.8-2.2,8.5,0,12.4l39.8,69.3
					c2.2,3.9,6.4,6.3,10.8,6.3h79.4c4.5,0,8.6-2.4,10.8-6.3l39.8-69.3c2.2-3.8,2.2-8.5,0-12.4L203.4-1.7C201.2-5.6,197-8,192.5-8
					L113.2-8z"/>
				<path class="st35" d="M192.6,158.2h-81c-4.7,0-9-2.5-11.4-6.6L59.6,81c-2.3-4-2.3-8.9,0-12.9l40.7-70.7
					c2.3-4.1,6.7-6.6,11.3-6.6h81c4.7,0,9,2.5,11.3,6.6L244.6,68c2.3,4,2.3,8.9,0,12.9L204,151.7
					C201.6,155.7,197.3,158.2,192.6,158.2z M111.6-8.8c-4.5,0-8.7,2.4-11,6.4L60,68.3c-2.2,3.9-2.2,8.6,0,12.5l40.7,70.7
					c2.3,3.9,6.5,6.4,11,6.4h81c4.5,0,8.7-2.4,11-6.4l40.6-70.7c2.2-3.9,2.2-8.6,0-12.5L203.6-2.4c-2.3-3.9-6.5-6.4-11-6.4
					L111.6-8.8z"/>
				<path class="st36" d="M192.7,160.6H110c-4.7,0-9.1-2.5-11.5-6.6L57,81.8c-2.3-4.1-2.3-9,0-13.1L98.5-3.4
					c2.4-4.1,6.7-6.6,11.5-6.6h82.7c4.7,0,9.1,2.5,11.5,6.6l41.5,72.1c2.3,4.1,2.3,9,0,13.1l-41.5,72.1
					C201.8,158,197.4,160.6,192.7,160.6z M110-9.6c-4.6,0-8.8,2.5-11.1,6.4L57.4,68.9c-2.2,3.9-2.2,8.7,0,12.6l41.5,72.1
					c2.3,4,6.5,6.4,11.1,6.4h82.7c4.6,0,8.8-2.5,11.1-6.4l41.5-72.1c2.2-3.9,2.2-8.7,0-12.6L203.8-3.2c-2.3-4-6.5-6.4-11.1-6.4H110z
					"/>
				<path class="st37" d="M192.8,162.9h-84.4c-4.8,0-9.2-2.6-11.6-6.7L54.5,82.6c-2.3-4.1-2.3-9.1,0-13.2L96.8-4.2
					c2.4-4.2,6.8-6.7,11.6-6.7h84.4c4.8,0,9.2,2.6,11.6,6.7l42.3,73.6c2.3,4.1,2.3,9.1,0,13.2l-42.3,73.6
					C202,160.3,197.6,162.9,192.8,162.9z M108.4-10.4c-4.6,0-8.8,2.5-11.1,6.5L55,69.6c-2.3,4-2.3,8.8,0,12.8l42.3,73.6
					c2.3,4,6.6,6.5,11.2,6.5h84.3c4.6,0,8.9-2.5,11.2-6.5l42.3-73.6c2.2-4,2.2-8.8,0-12.8L204-3.9c-2.3-4-6.6-6.5-11.2-6.5
					L108.4-10.4z"/>
				<path class="st38" d="M192.8,165.2h-86c-4.8,0-9.3-2.6-11.7-6.8L52,83.5c-2.3-4.1-2.3-9.2,0-13.4l43.1-75
					c2.4-4.2,6.9-6.8,11.7-6.8h86c4.8,0,9.3,2.6,11.7,6.8l43.1,75c2.3,4.1,2.3,9.2,0,13.4l-43.1,75
					C202.1,162.6,197.6,165.2,192.8,165.2z M106.8-11.2c-4.7,0-9,2.5-11.3,6.6l-43.1,75c-2.3,4-2.3,8.9,0,12.9l43.1,75
					c2.3,4.1,6.6,6.6,11.3,6.6h86c4.7,0,9-2.5,11.3-6.6l43.1-75c2.3-4,2.3-8.9,0-12.9l-43.1-75c-2.3-4.1-6.6-6.6-11.3-6.6
					L106.8-11.2z"/>
				<path class="st39" d="M192.9,167.5h-87.6c-4.9,0-9.4-2.6-11.8-6.9l-44-76.4c-2.4-4.2-2.4-9.3,0-13.5l44-76.4
					c2.4-4.2,6.9-6.8,11.8-6.8H193c4.9,0,9.4,2.6,11.8,6.9l44,76.4c2.4,4.2,2.4,9.3,0,13.5l-44,76.4
					C202.3,164.9,197.8,167.5,192.9,167.5z M105.3-12c-4.7,0-9.1,2.5-11.4,6.6L49.9,71c-2.3,4-2.3,9,0,13l44,76.4
					c2.3,4.1,6.7,6.6,11.4,6.6H193c4.7,0,9.1-2.5,11.4-6.6l44-76.4c2.3-4,2.3-9,0-13l-44-76.4C202-9.5,197.7-12,193-12H105.3z"/>
				<path class="st40" d="M193,169.8h-89.4c-4.9,0-9.5-2.7-11.9-6.9L46.9,85.1c-2.4-4.2-2.4-9.4,0-13.6L91.7-6.4
					c2.5-4.3,7-6.9,11.9-6.9H193c4.9,0,9.5,2.6,11.9,6.9l44.8,77.8c2.4,4.2,2.4,9.4,0,13.6l-44.8,77.8
					C202.5,167.2,197.9,169.8,193,169.8z M103.6-12.9c-4.8,0-9.2,2.6-11.5,6.7L47.3,71.7c-2.3,4.1-2.3,9.1,0,13.2l44.8,77.8
					c2.4,4.1,6.8,6.7,11.5,6.7H193c4.8,0,9.2-2.6,11.5-6.7l44.8-77.8c2.3-4.1,2.3-9.1,0-13.2L204.5-6.2c-2.4-4.1-6.8-6.7-11.5-6.7
					L103.6-12.9z"/>
				<path class="st41" d="M193.1,172.2h-91c-5,0-9.6-2.7-12.1-7L44.4,85.9c-2.4-4.3-2.4-9.5,0-13.8L90-7.2c2.5-4.3,7.1-7,12.1-7h91
					c5,0,9.6,2.7,12.1,7l45.6,79.3c2.4,4.3,2.4,9.5,0,13.8l-45.6,79.3C202.6,169.5,198,172.1,193.1,172.2z M102.1-13.7
					c-4.8,0-9.2,2.6-11.6,6.8L44.8,72.4c-2.3,4.1-2.3,9.2,0,13.3l45.6,79.3c2.4,4.2,6.8,6.7,11.6,6.8h91c4.8,0,9.2-2.6,11.6-6.8
					l45.6-79.3c2.3-4.1,2.3-9.2,0-13.3L204.7-6.9c-2.4-4.2-6.8-6.8-11.6-6.8H102.1z"/>
				<path class="st41" d="M193.1,174.5h-92.7c-5,0-9.7-2.7-12.2-7.1L41.8,86.7c-2.5-4.3-2.5-9.6,0-13.9L88.3-7.9
					c2.5-4.4,7.1-7.1,12.2-7.1h92.7c5,0,9.7,2.7,12.2,7.1l46.5,80.7c2.5,4.3,2.5,9.6,0,13.9l-46.5,80.7
					C202.8,171.8,198.2,174.5,193.1,174.5z M100.5-14.5c-4.9,0-9.3,2.6-11.8,6.8L42.3,73c-2.4,4.2-2.4,9.3,0,13.4l46.4,80.7
					c2.4,4.2,6.9,6.8,11.8,6.8h92.7c4.9,0,9.3-2.6,11.8-6.8l46.5-80.7c2.4-4.2,2.4-9.3,0-13.4L204.9-7.6c-2.4-4.2-6.9-6.9-11.8-6.9
					H100.5z"/>
				<path class="st42" d="M193.2,176.8H98.9c-5.1,0-9.8-2.7-12.3-7.1L39.3,87.5c-2.5-4.4-2.5-9.7,0-14L86.6-8.6
					c2.5-4.4,7.2-7.1,12.3-7.1h94.3c5.1,0,9.8,2.7,12.3,7.1l47.3,82.1c2.5,4.4,2.5,9.7,0,14.1l-47.3,82.1
					C203,174.1,198.3,176.8,193.2,176.8z M98.9-15.3c-4.9,0-9.4,2.6-11.9,6.9L39.7,73.7c-2.4,4.2-2.4,9.4,0,13.6L87,169.4
					c2.4,4.3,7,6.9,11.9,6.9h94.3c4.9,0,9.4-2.6,11.9-6.9l47.3-82.1c2.4-4.2,2.4-9.4,0-13.6L205.1-8.4c-2.4-4.2-7-6.9-11.9-6.9H98.9
					z"/>
				<path class="st43" d="M193.3,179.1h-96c-5.1,0-9.9-2.8-12.4-7.2L36.8,88.4c-2.5-4.4-2.5-9.8,0-14.2L84.9-9.4
					c2.6-4.4,7.3-7.2,12.4-7.2h96c5.1,0,9.9,2.8,12.4,7.2l48.1,83.6c2.5,4.4,2.5,9.8,0,14.2l-48.1,83.6
					C203.2,176.4,198.4,179.1,193.3,179.1z M97.3-16.1c-5,0-9.5,2.7-12,7L37.2,74.4c-2.4,4.2-2.4,9.5,0,13.7l48.1,83.6
					c2.5,4.3,7,7,12,7h96c5,0,9.5-2.6,12-7l48.1-83.6c2.4-4.2,2.4-9.5,0-13.7L205.3-9.2c-2.5-4.3-7-7-12-7L97.3-16.1z"/>
				<path class="st43" d="M193.4,181.5H95.7c-5.2,0-10-2.8-12.5-7.3l-48.9-85c-2.5-4.4-2.5-9.9,0-14.3l48.9-85
					c2.6-4.5,7.4-7.3,12.5-7.3h97.7c5.2,0,10,2.8,12.5,7.3l48.9,85c2.5,4.4,2.5,9.9,0,14.3l-48.9,85
					C203.4,178.7,198.6,181.5,193.4,181.5z M95.7-16.9c-5,0-9.6,2.7-12.1,7l-48.9,85c-2.4,4.3-2.4,9.5,0,13.8l48.9,85
					c2.5,4.3,7.1,7,12.1,7h97.7c5,0,9.6-2.7,12.1-7l48.9-85c2.4-4.3,2.4-9.5,0-13.8l-48.9-85c-2.5-4.3-7.1-7-12.1-7H95.7z"/>
				<path class="st44" d="M193.4,183.8H94.1c-5.2,0-10-2.8-12.6-7.3L31.7,90c-2.6-4.5-2.6-10,0-14.5l49.8-86.4
					c2.6-4.5,7.4-7.3,12.6-7.3h99.3c5.2,0,10,2.8,12.6,7.3l49.8,86.4c2.6,4.5,2.6,10,0,14.5l-49.8,86.4
					C203.5,180.9,198.7,183.7,193.4,183.8z M94.1-17.7c-5,0-9.7,2.7-12.2,7.1L32.2,75.8c-2.5,4.3-2.5,9.7,0,14l49.8,86.4
					c2.5,4.4,7.2,7.1,12.2,7.1h99.3c5,0,9.7-2.7,12.2-7.1l49.8-86.4c2.5-4.3,2.5-9.7,0-14l-49.8-86.4c-2.5-4.4-7.2-7.1-12.2-7.1
					L94.1-17.7z"/>
				<path class="st44" d="M193.5,186.1h-101c-5.3,0-10.1-2.8-12.8-7.4L29.2,90.8c-2.6-4.5-2.6-10.1,0-14.6l50.6-87.9
					c2.6-4.6,7.5-7.4,12.8-7.4h101c5.3,0,10.1,2.8,12.7,7.4l50.6,87.8c2.6,4.5,2.6,10.1,0,14.6l-50.6,87.8
					C203.6,183.2,198.8,186.1,193.5,186.1z M92.5-18.5c-5.1,0-9.7,2.7-12.3,7.1L29.6,76.5c-2.5,4.4-2.5,9.7,0,14.1l50.7,87.8
					c2.5,4.4,7.2,7.1,12.3,7.1h101c5.1,0,9.8-2.7,12.3-7.1l50.6-87.8c2.5-4.4,2.5-9.7,0-14.1l-50.6-87.9c-2.6-4.4-7.3-7.1-12.4-7.1
					H92.5z"/>
				<path class="st45" d="M193.6,188.4H91c-5.3,0-10.2-2.9-12.9-7.5L26.6,91.6c-2.6-4.6-2.6-10.2,0-14.8l51.4-89.3
					c2.7-4.6,7.6-7.5,12.9-7.5h102.6c5.3,0,10.2,2.9,12.9,7.5l51.4,89.3c2.6,4.6,2.6,10.2,0,14.8l-51.4,89.3
					C203.8,185.5,198.9,188.4,193.6,188.4z M91-19.4c-5.1,0-9.9,2.8-12.4,7.2L27.1,77.1c-2.5,4.4-2.5,9.8,0,14.2l51.4,89.3
					c2.6,4.5,7.3,7.2,12.4,7.2h102.6c5.1,0,9.9-2.8,12.4-7.2l51.4-89.3c2.5-4.4,2.5-9.8,0-14.2L206-12.1c-2.6-4.5-7.3-7.2-12.4-7.2
					L91-19.4z"/>
				<path class="st46" d="M193.7,190.7H89.4c-5.4,0-10.3-2.9-13-7.5L24.1,92.5c-2.6-4.6-2.6-10.3,0-14.9l52.2-90.7
					c2.7-4.7,7.6-7.5,13-7.5h104.3c5.4,0,10.3,2.9,13,7.5l52.3,90.7c2.6,4.6,2.6,10.3,0,14.9l-52.2,90.7
					C204,187.8,199,190.7,193.7,190.7z M89.4-20.2c-5.2,0-10,2.8-12.6,7.3L24.6,77.8c-2.5,4.5-2.5,9.9,0,14.4l52.2,90.7
					c2.6,4.5,7.4,7.3,12.6,7.3h104.3c5.2,0,10-2.8,12.6-7.3l52.2-90.7c2.5-4.5,2.5-9.9,0-14.4l-52.2-90.7c-2.6-4.5-7.4-7.3-12.6-7.3
					L89.4-20.2z"/>
				<path class="st47" d="M193.7,193h-106c-5.4,0-10.4-2.9-13.1-7.6l-53-92.1c-2.6-4.7-2.6-10.3,0-15l53.1-92.1
					c2.7-4.7,7.7-7.6,13.1-7.7h106c5.4,0,10.4,2.9,13.1,7.6L260,78.2c2.6,4.7,2.6,10.3,0,15l-53.1,92.2
					C204.2,190.1,199.2,193,193.7,193z M87.7-21c-5.2,0-10.1,2.8-12.7,7.3L22,78.5c-2.6,4.5-2.6,10,0,14.5l53.1,92.1
					c2.6,4.5,7.4,7.3,12.7,7.3h106c5.2,0,10.1-2.8,12.7-7.3L259.5,93c2.6-4.5,2.6-10,0-14.5l-53.1-92.1c-2.6-4.5-7.4-7.3-12.7-7.3
					L87.7-21z"/>
				<path class="st48" d="M193.8,195.3H86.2c-5.5,0-10.5-2.9-13.2-7.7L19,94.1c-2.7-4.7-2.7-10.5,0-15.2L73-14.7
					c2.7-4.7,7.8-7.7,13.2-7.7h107.6c5.5,0,10.5,2.9,13.2,7.7L261,78.9c2.7,4.7,2.7,10.5,0,15.2l-53.9,93.6
					C204.3,192.4,199.3,195.3,193.8,195.3z M86.2-21.8c-5.3,0-10.1,2.8-12.8,7.4L19.5,79.2c-2.6,4.5-2.6,10.1,0,14.6l53.9,93.6
					c2.6,4.6,7.5,7.4,12.8,7.4h107.6c5.3,0,10.2-2.8,12.8-7.4l53.9-93.6c2.6-4.5,2.6-10.1,0-14.6l-53.9-93.6
					c-2.6-4.6-7.5-7.4-12.8-7.4L86.2-21.8z"/>
				<path class="st49" d="M193.9,197.7H84.6c-5.5,0-10.6-3-13.3-7.8l-54.7-95c-2.7-4.7-2.7-10.6,0-15.3l54.7-95
					c2.8-4.8,7.9-7.7,13.4-7.7h109.3c5.5,0,10.6,2.9,13.4,7.7l54.7,95c2.7,4.7,2.7,10.6,0,15.3l-54.7,95
					C204.5,194.7,199.4,197.7,193.9,197.7z M84.6-22.6c-5.3,0-10.2,2.9-12.9,7.5L17,79.9c-2.6,4.6-2.6,10.2,0,14.8l54.7,95
					c2.7,4.6,7.6,7.5,12.9,7.5h109.3c5.3,0,10.2-2.9,12.9-7.5l54.7-95c2.6-4.6,2.6-10.2,0-14.8l-54.7-95c-2.7-4.6-7.6-7.5-12.9-7.5
					H84.6z"/>
				<path class="st50" d="M194,200H83c-5.6,0-10.7-3-13.5-7.8L14,95.7c-2.7-4.8-2.7-10.7,0-15.5l55.6-96.4C72.3-21,77.5-24,83-24
					H194c5.6,0,10.7,3,13.5,7.8L263,80.3c2.7,4.8,2.7,10.7,0,15.5l-55.6,96.4C204.7,197,199.5,200,194,200z M83-23.4
					c-5.4,0-10.3,2.9-13,7.5L14.5,80.6c-2.6,4.6-2.6,10.3,0,14.9L70,191.9c2.7,4.7,7.6,7.5,13,7.5H194c5.4,0,10.3-2.9,13-7.5
					l55.6-96.4c2.6-4.6,2.6-10.3,0-14.9L207-15.9c-2.7-4.7-7.6-7.5-13-7.5H83z"/>
				<path class="st51" d="M194,202.3H81.4c-5.6,0-10.8-3-13.6-7.9L11.4,96.6c-2.8-4.8-2.8-10.8,0-15.6l56.4-97.9
					c2.8-4.9,8-7.9,13.6-7.9H194c5.6,0,10.8,3,13.6,7.9L264,81c2.8,4.8,2.8,10.8,0,15.6l-56.4,97.9
					C204.8,199.3,199.7,202.3,194,202.3z M81.4-24.2c-5.4,0-10.4,2.9-13.1,7.6L11.9,81.2c-2.7,4.7-2.7,10.4,0,15l56.4,97.9
					c2.7,4.7,7.7,7.6,13.1,7.6H194c5.4,0,10.4-2.9,13.1-7.6l56.4-97.9c2.7-4.7,2.7-10.4,0-15l-56.4-97.9c-2.7-4.7-7.7-7.6-13.1-7.6
					H81.4z"/>
				<path class="st52" d="M194.1,204.6H79.9c-5.7,0-10.9-3-13.7-8L8.9,97.4c-2.8-4.9-2.8-10.9,0-15.8l57.2-99.3c2.8-4.9,8-8,13.7-8
					h114.3c5.7,0,10.9,3.1,13.7,8l57.2,99.3c2.8,4.9,2.8,10.9,0,15.8l-57.2,99.3C205,201.6,199.8,204.6,194.1,204.6z M79.9-25
					c-5.5,0-10.5,2.9-13.2,7.7L9.4,81.9c-2.7,4.7-2.7,10.5,0,15.2l57.2,99.3c2.7,4.7,7.8,7.7,13.2,7.7h114.3
					c5.5,0,10.5-2.9,13.2-7.7l57.2-99.3c2.7-4.7,2.7-10.5,0-15.2l-57.2-99.3c-2.7-4.7-7.8-7.6-13.2-7.7L79.9-25z"/>
				<path class="st53" d="M194.2,206.9H78.3c-5.7,0-11-3.1-13.8-8L6.4,98.2c-2.8-4.9-2.8-11,0-15.9l58-100.7c2.9-4.9,8.1-8,13.8-8
					h115.9c5.7,0,11,3.1,13.8,8l58,100.7c2.8,4.9,2.8,11,0,15.9l-58,100.7C205.2,203.9,199.9,206.9,194.2,206.9z M78.3-25.8
					c-5.5,0-10.6,3-13.3,7.7L6.9,82.6c-2.7,4.7-2.7,10.6,0,15.3l58,100.7c2.7,4.8,7.8,7.7,13.3,7.7h115.9c5.5,0,10.6-3,13.3-7.7
					l58-100.7c2.7-4.7,2.7-10.6,0-15.3l-58-100.7c-2.8-4.8-7.8-7.7-13.4-7.7L78.3-25.8z"/>
				<path class="st54" d="M194.3,209.3H76.7c-5.8,0-11.1-3.1-14-8.1L3.8,99c-2.8-5-2.8-11,0-16L62.7-19.1c2.9-5,8.2-8.1,14-8.1
					h117.6c5.8,0,11.1,3.1,14,8.1L267.2,83c2.8,5,2.8,11,0,16l-58.9,102.1C205.4,206.2,200,209.3,194.3,209.3z M76.7-26.7
					c-5.6,0-10.7,3-13.5,7.8L4.3,83.3c-2.7,4.8-2.7,10.7,0,15.5l58.9,102.1c2.8,4.8,7.9,7.8,13.5,7.8h117.5c5.6,0,10.7-3,13.5-7.8
					l58.9-102.1c2.7-4.8,2.7-10.7,0-15.5L207.7-18.9c-2.8-4.8-7.9-7.8-13.5-7.8L76.7-26.7z"/>
				<path class="st55" d="M194.3,211.6H75.1c-5.8,0-11.2-3.1-14.1-8.1L1.3,99.8c-2.9-5-2.9-11.2,0-16.2L61-19.9
					c2.9-5,8.3-8.1,14.1-8.2h119.3c5.8,0,11.2,3.1,14.1,8.2l59.7,103.6c2.9,5,2.9,11.2,0,16.2l-59.7,103.6
					C205.5,208.5,200.2,211.6,194.3,211.6z M75.1-27.5c-5.6,0-10.8,3-13.6,7.9L1.8,84c-2.8,4.8-2.8,10.8,0,15.6l59.7,103.6
					c2.8,4.9,8,7.9,13.6,7.9h119.3c5.6,0,10.8-3,13.6-7.9l59.7-103.6c2.8-4.8,2.8-10.8,0-15.6L207.9-19.6c-2.8-4.9-8-7.9-13.6-7.9
					H75.1z"/>
				<path class="st55" d="M194.4,213.9H73.5c-5.9,0-11.3-3.1-14.2-8.2l-60.5-105c-2.9-5-2.9-11.3,0-16.3l60.5-105
					c2.9-5.1,8.3-8.2,14.2-8.2h120.9c5.9,0,11.3,3.1,14.2,8.2l60.5,105c2.9,5,2.9,11.3,0,16.3l-60.5,105
					C205.7,210.8,200.3,213.9,194.4,213.9z M73.5-28.3c-5.7,0-10.9,3-13.7,7.9l-60.5,105c-2.8,4.9-2.8,10.9,0,15.7l60.5,105
					c2.8,4.9,8,7.9,13.7,7.9h120.9c5.7,0,10.9-3,13.7-7.9l60.5-105c2.8-4.9,2.8-10.9,0-15.7l-60.5-105c-2.8-4.9-8-7.9-13.7-7.9
					L73.5-28.3z"/>
				<path class="st56" d="M194.5,216.2H71.9c-5.9,0-11.4-3.2-14.3-8.3L-3.7,101.5c-2.9-5.1-2.9-11.3,0-16.4L57.6-21.4
					c3-5.1,8.4-8.3,14.3-8.3h122.5c5.9,0,11.4,3.2,14.3,8.3L270.2,85c2.9,5.1,2.9,11.3,0,16.4l-61.4,106.4
					C205.9,213,200.4,216.2,194.5,216.2z M71.9-29.1c-5.7,0-11,3.1-13.8,8L-3.2,85.3c-2.8,4.9-2.8,10.9,0,15.9l61.4,106.4
					c2.8,4.9,8.1,8,13.8,8h122.6c5.7,0,11-3.1,13.8-8l61.4-106.4c2.8-4.9,2.8-10.9,0-15.9L208.3-21.1c-2.8-4.9-8.1-8-13.8-8
					L71.9-29.1z"/>
				<path class="st57" d="M194.6,218.5H70.3c-6,0-11.5-3.2-14.4-8.4L-6.3,102.3c-2.9-5.1-2.9-11.4,0-16.6L55.9-22.1
					c3-5.2,8.5-8.4,14.4-8.4h124.2c6,0,11.5,3.2,14.4,8.4l62.2,107.9c2.9,5.1,2.9,11.4,0,16.6L209,210.2
					C206,215.3,200.5,218.5,194.6,218.5z M70.3-29.9c-5.7,0-11.1,3.1-13.9,8.1L-5.7,86c-2.8,5-2.8,11,0,16l62.2,107.9
					c2.9,5,8.2,8.1,13.9,8.1h124.2c5.7,0,11.1-3.1,13.9-8.1L270.7,102c2.8-5,2.8-11,0-16L208.5-21.8c-2.9-5-8.2-8.1-13.9-8.1H70.3z"
					/>
				<path class="st57" d="M194.6,220.9H68.8c-6,0-11.6-3.2-14.6-8.4l-63-109.3c-3-5.2-3-11.5,0-16.7l63-109.3
					c3-5.2,8.5-8.4,14.6-8.4h125.9c6,0,11.6,3.2,14.5,8.4l63,109.3c3,5.2,3,11.5,0,16.7l-63,109.3
					C206.2,217.6,200.6,220.8,194.6,220.9z M68.8-30.7c-5.8,0-11.1,3.1-14,8.1l-63,109.3c-2.9,5-2.9,11.1,0,16.1l63,109.3
					c2.9,5,8.2,8.1,14,8.1h125.9c5.8,0,11.1-3.1,14-8.1l63-109.3c2.9-5,2.9-11.1,0-16.1l-63-109.3c-2.9-5-8.2-8.1-14-8.1L68.8-30.7z
					"/>
				<path class="st58" d="M194.7,223.2H67.2c-6.1,0-11.6-3.3-14.7-8.5l-63.8-110.7c-3-5.2-3-11.6,0-16.9L52.5-23.6
					c3-5.2,8.6-8.5,14.7-8.5h127.6c6.1,0,11.6,3.2,14.7,8.5l63.9,110.7c3,5.2,3,11.6,0,16.9l-63.9,110.7
					C206.4,219.9,200.8,223.2,194.7,223.2z M67.2-31.5c-5.8,0-11.2,3.1-14.1,8.2L-10.8,87.4c-2.9,5-2.9,11.2,0,16.3L53,214.4
					c2.9,5.1,8.3,8.2,14.1,8.2h127.6c5.8,0,11.2-3.1,14.1-8.2l63.8-110.7c2.9-5,2.9-11.2,0-16.3L208.9-23.3
					c-2.9-5.1-8.3-8.2-14.1-8.2H67.2z"/>
				<path class="st59" d="M194.8,225.5H65.6c-6.1,0-11.7-3.3-14.8-8.6l-64.7-112.2c-3-5.3-3-11.7,0-17L50.8-24.4
					c3-5.3,8.7-8.6,14.8-8.6h129.2c6.1,0,11.7,3.3,14.8,8.6l64.7,112.2c3,5.3,3,11.7,0,17l-64.7,112.2
					C206.5,222.2,200.9,225.5,194.8,225.5z M65.6-32.3c-5.9,0-11.3,3.2-14.3,8.3L-13.4,88.1c-2.9,5.1-2.9,11.3,0,16.4l64.7,112.2
					c2.9,5.1,8.4,8.2,14.3,8.2h129.2c5.9,0,11.3-3.2,14.3-8.2l64.7-112.1c2.9-5.1,2.9-11.3,0-16.4L209.1-24.1
					c-2.9-5.1-8.4-8.3-14.3-8.3H65.6z"/>
				<path class="st60" d="M194.9,227.8H64c-6.2,0-11.8-3.3-14.9-8.6l-65.5-113.6c-3-5.3-3-11.8,0-17.1L49.1-25.1
					c3.1-5.3,8.8-8.6,14.9-8.6h130.9c6.2,0,11.8,3.3,14.9,8.6l65.5,113.6c3,5.3,3,11.8,0,17.1l-65.5,113.5
					C206.7,224.5,201,227.8,194.9,227.8z M64-33.2c-5.9,0-11.4,3.2-14.4,8.3L-15.9,88.8c-2.9,5.1-2.9,11.4,0,16.5l65.5,113.6
					c3,5.1,8.4,8.3,14.4,8.3h130.9c5.9,0,11.4-3.2,14.4-8.3l65.5-113.6c2.9-5.1,2.9-11.4,0-16.5L209.3-24.8c-3-5.1-8.4-8.3-14.4-8.3
					L64-33.2z"/>
				<path class="st61" d="M194.9,230.1H62.4c-6.2,0-11.9-3.3-15-8.7l-66.3-115c-3.1-5.4-3.1-11.9,0-17.3l66.3-115
					c3.1-5.4,8.8-8.7,15-8.7h132.5c6.2,0,11.9,3.3,15,8.7l66.3,115c3.1,5.4,3.1,11.9,0,17.3l-66.3,115
					C206.8,226.8,201.1,230.1,194.9,230.1z M62.4-34c-6,0-11.5,3.2-14.5,8.4L-18.4,89.5c-2.9,5.2-2.9,11.5,0,16.7l66.3,115
					c3,5.2,8.5,8.3,14.5,8.3h132.5c6,0,11.5-3.2,14.5-8.4l66.3-115c3-5.2,3-11.5,0-16.7l-66.3-115c-3-5.2-8.5-8.4-14.5-8.4L62.4-34z
					"/>
				<path class="st62" d="M195,232.5H60.8c-6.3,0-12-3.4-15.2-8.8l-67.2-116.5c-3.1-5.4-3.1-12,0-17.4L45.7-26.6
					c3.1-5.4,8.9-8.8,15.2-8.8H195c6.3,0,12,3.3,15.2,8.8l67.2,116.5c3.1,5.4,3.1,12,0,17.4l-67.2,116.4
					C207,229.1,201.3,232.5,195,232.5z M60.8-34.8c-6,0-11.6,3.2-14.6,8.4L-20.9,90.1c-3,5.2-3,11.6,0,16.8l67.2,116.4
					c3,5.2,8.6,8.4,14.6,8.5H195c6,0,11.6-3.2,14.6-8.5l67.2-116.5c3-5.2,3-11.6,0-16.8L209.6-26.3c-3-5.2-8.6-8.4-14.6-8.4H60.8z"
					/>
				<path class="st63" d="M195.1,234.8H59.3c-6.3,0-12.1-3.4-15.3-8.8L-24,108c-3.1-5.4-3.1-12.1,0-17.6L44-27.4
					c3.1-5.5,9-8.8,15.3-8.8h135.8c6.3,0,12.1,3.4,15.3,8.8l68,117.9c3.1,5.4,3.1,12.1,0,17.6l-68,117.9
					C207.2,231.4,201.4,234.7,195.1,234.8z M59.3-35.6c-6.1,0-11.7,3.3-14.7,8.5l-68,117.9c-3,5.2-3,11.7,0,16.9l68,117.9
					c3,5.3,8.6,8.5,14.7,8.5h135.8c6.1,0,11.7-3.3,14.7-8.5l68-117.9c3-5.2,3-11.7,0-16.9l-68-117.9c-3-5.3-8.6-8.5-14.7-8.5H59.3z"
					/>
				<path class="st64" d="M195.2,237.1H57.7c-6.3,0-12.2-3.4-15.4-8.9l-68.8-119.3c-3.1-5.5-3.1-12.2,0-17.7L42.3-28.1
					c3.2-5.5,9-8.9,15.4-8.9h137.5c6.4,0,12.2,3.4,15.4,8.9l68.8,119.3c3.1,5.5,3.1,12.2,0,17.7l-68.8,119.3
					C207.4,233.7,201.5,237.1,195.2,237.1z M57.7-36.4c-6.1,0-11.8,3.3-14.8,8.6L-26,91.5c-3,5.3-3,11.8,0,17.1l68.8,119.3
					c3,5.3,8.7,8.6,14.8,8.6h137.5c6.1,0,11.8-3.3,14.8-8.6l68.8-119.3c3-5.3,3-11.8,0-17.1L210-27.8c-3.1-5.3-8.7-8.6-14.8-8.6
					H57.7z"/>
				<path class="st64" d="M195.3,239.4H56.1c-6.4,0-12.3-3.4-15.5-9l-69.7-120.7c-3.2-5.5-3.2-12.3,0-17.8L40.6-28.9
					c3.2-5.6,9.1-9,15.5-9h139.2c6.4,0,12.3,3.4,15.5,9l69.6,120.7c3.2,5.5,3.2,12.3,0,17.8l-69.7,120.8
					C207.5,236,201.6,239.4,195.3,239.4z M56.1-37.2c-6.2,0-11.9,3.3-14.9,8.7L-28.5,92.2c-3.1,5.3-3.1,11.9,0,17.2l69.6,120.7
					c3.1,5.3,8.8,8.6,14.9,8.6h139.2c6.2,0,11.9-3.3,14.9-8.6l69.6-120.7c3.1-5.3,3.1-11.9,0-17.2L210.2-28.5
					c-3.1-5.4-8.7-8.7-14.9-8.7H56.1z"/>
				<path class="st65" d="M195.3,241.7H54.5c-6.4,0-12.4-3.4-15.6-9l-70.5-122.2c-3.2-5.6-3.2-12.4,0-18L38.9-29.6
					c3.2-5.6,9.2-9,15.6-9h140.8c6.4,0,12.4,3.4,15.6,9l70.5,122.1c3.2,5.6,3.2,12.4,0,18l-70.5,122.2
					C207.7,238.3,201.7,241.7,195.3,241.7z M54.5-38c-6.2,0-12,3.3-15.1,8.7L-31,92.9c-3.1,5.4-3.1,12,0,17.3l70.5,122.2
					c3.1,5.4,8.8,8.7,15.1,8.7h140.8c6.2,0,12-3.3,15.1-8.7l70.5-122.2c3.1-5.4,3.1-12,0-17.3L210.4-29.3c-3.1-5.4-8.9-8.7-15.1-8.7
					H54.5z"/>
				<path class="st66" d="M195.4,244H52.9c-6.5,0-12.5-3.5-15.7-9.1l-71.3-123.6c-3.2-5.6-3.2-12.5,0-18.1L37.2-30.4
					c3.2-5.6,9.2-9.1,15.7-9.1h142.5c6.5,0,12.5,3.5,15.7,9.1l71.3,123.6c3.2,5.6,3.2,12.5,0,18.1l-71.3,123.6
					C207.9,240.6,201.9,244,195.4,244z M52.9-38.8c-6.3,0-12,3.4-15.2,8.8L-33.6,93.5c-3.1,5.4-3.1,12.1,0,17.5l71.3,123.6
					c3.1,5.4,8.9,8.8,15.2,8.8h142.5c6.3,0,12-3.4,15.2-8.8L281.9,111c3.1-5.4,3.1-12.1,0-17.5L210.6-30.1
					c-3.1-5.4-8.9-8.8-15.2-8.8L52.9-38.8z"/>
				<path class="st66" d="M195.5,246.4H51.3c-6.5,0-12.6-3.5-15.9-9.2l-72.1-125c-3.2-5.7-3.2-12.6,0-18.3l72.1-125
					c3.3-5.7,9.3-9.2,15.9-9.2h144.2c6.5,0,12.6,3.5,15.9,9.2l72.1,125c3.2,5.7,3.2,12.6,0,18.3l-72.1,125
					C208.1,242.8,202,246.3,195.5,246.4z M51.3-39.6c-6.3,0-12.1,3.4-15.3,8.8l-72.1,125c-3.1,5.5-3.1,12.1,0,17.6l72.1,125
					c3.1,5.5,9,8.9,15.3,8.9h144.2c6.3,0,12.1-3.4,15.3-8.8l72.1-125c3.1-5.4,3.1-12.1,0-17.6l-72.1-125c-3.2-5.5-9-8.8-15.3-8.8
					L51.3-39.6z"/>
				<path class="st67" d="M195.5,248.7H49.7c-6.6,0-12.7-3.5-16-9.2l-73-126.5c-3.3-5.7-3.3-12.7,0-18.4l73-126.5
					c3.3-5.7,9.4-9.2,16-9.2h145.8c6.6,0,12.7,3.5,16,9.2l72.9,126.5c3.3,5.7,3.3,12.7,0,18.4l-73,126.5
					C208.2,245.2,202.1,248.7,195.5,248.7z M49.7-40.5c-6.4,0-12.2,3.4-15.4,8.9l-73,126.5c-3.2,5.5-3.2,12.2,0,17.7l73,126.5
					c3.2,5.5,9,8.9,15.4,8.9h145.8c6.4,0,12.2-3.4,15.4-8.9l72.9-126.5c3.2-5.5,3.2-12.2,0-17.7L210.9-31.5c-3.2-5.5-9-8.9-15.4-8.9
					L49.7-40.5z"/>
				<path class="st68" d="M195.6,251H48.1c-6.6,0-12.8-3.6-16.1-9.3l-73.8-127.9c-3.3-5.7-3.3-12.8,0-18.5L32-32.6
					c3.3-5.8,9.5-9.3,16.1-9.3h147.5c6.6,0,12.8,3.6,16.1,9.3l73.8,127.9c3.3,5.7,3.3,12.8,0,18.5l-73.8,127.9
					C208.4,247.4,202.3,251,195.6,251z M48.1-41.3c-6.4,0-12.3,3.5-15.5,9L-41.2,95.6c-3.2,5.5-3.2,12.3,0,17.9l73.8,127.9
					c3.2,5.6,9.1,9,15.5,9h147.5c6.4,0,12.3-3.4,15.5-9l73.8-127.9c3.2-5.5,3.2-12.3,0-17.9L211.1-32.3c-3.2-5.5-9.1-9-15.5-9
					L48.1-41.3z"/>
				<path class="st69" d="M195.7,253.3H46.6c-6.7,0-12.9-3.6-16.2-9.4l-74.6-129.3c-3.3-5.8-3.3-12.9,0-18.7L30.3-33.4
					c3.3-5.8,9.5-9.4,16.2-9.4h149.1c6.7,0,12.9,3.6,16.2,9.4l74.6,129.3c3.3,5.8,3.3,12.9,0,18.7l-74.6,129.3
					C208.6,249.7,202.4,253.3,195.7,253.3z M46.6-42.1c-6.4,0-12.4,3.4-15.6,9L-43.7,96.3c-3.2,5.6-3.2,12.4,0,18l74.7,129.3
					c3.2,5.6,9.2,9,15.6,9h149.1c6.4,0,12.4-3.4,15.6-9l74.6-129.3c3.2-5.6,3.2-12.4,0-18L211.3-33c-3.2-5.6-9.2-9-15.6-9L46.6-42.1
					z"/>
				<path class="st70" d="M195.8,255.6H45c-6.7,0-13-3.6-16.3-9.5l-75.4-130.7c-3.3-5.8-3.3-13,0-18.8L28.6-34.1
					C32-40,38.2-43.6,45-43.6h150.8c6.7,0,13,3.6,16.3,9.4l75.4,130.8c3.3,5.8,3.3,13,0,18.8l-75.4,130.8
					C208.7,252,202.5,255.6,195.8,255.6z M45-42.9c-6.5,0-12.5,3.5-15.7,9.1L-46.2,97c-3.2,5.6-3.2,12.5,0,18.1l75.5,130.8
					c3.2,5.6,9.2,9.1,15.7,9.1h150.8c6.5,0,12.5-3.5,15.8-9.1L287,115.1c3.2-5.6,3.2-12.5,0-18.1L211.5-33.8
					c-3.3-5.6-9.3-9.1-15.8-9.1H45z"/>
				<path class="st71" d="M195.8,257.9H43.4c-6.8,0-13.1-3.6-16.5-9.5l-76.3-132.2c-3.4-5.9-3.4-13.1,0-19L26.9-34.9
					c3.4-5.9,9.7-9.5,16.5-9.5h152.5c6.8,0,13.1,3.6,16.4,9.5l76.3,132.2c3.4,5.9,3.4,13.1,0,19l-76.3,132.2
					C208.9,254.3,202.6,257.9,195.8,257.9z M43.4-43.7c-6.5,0-12.6,3.5-15.9,9.2L-48.7,97.6c-3.2,5.7-3.2,12.6,0,18.3l76.2,132.2
					c3.3,5.7,9.3,9.2,15.9,9.2h152.5c6.5,0,12.6-3.5,15.9-9.2L288,115.9c3.2-5.7,3.2-12.6,0-18.3L211.7-34.5
					c-3.3-5.7-9.3-9.2-15.9-9.2L43.4-43.7z"/>
				<path class="st72" d="M195.9,260.3H41.8c-6.8,0-13.2-3.7-16.6-9.6l-77.1-133.6c-3.4-5.9-3.4-13.2,0-19.1L25.2-35.6
					c3.4-5.9,9.7-9.6,16.6-9.6h154.1c6.8,0,13.2,3.7,16.6,9.6L289.6,98c3.4,5.9,3.4,13.2,0,19.1l-77.1,133.6
					C209.1,256.6,202.7,260.3,195.9,260.3z M41.8-44.5c-6.6,0-12.7,3.5-16,9.2L-51.3,98.3c-3.3,5.7-3.3,12.7,0,18.4l77.1,133.6
					c3.3,5.7,9.4,9.2,16,9.2h154.1c6.6,0,12.7-3.5,16-9.2L289,116.7c3.3-5.7,3.3-12.7,0-18.4L211.9-35.3c-3.3-5.7-9.4-9.2-16-9.2
					H41.8z"/>
				<path class="st73" d="M196,262.6H40.2c-6.9,0-13.3-3.7-16.7-9.7l-77.9-135c-3.4-6-3.4-13.3,0-19.2l77.9-135
					c3.4-6,9.8-9.6,16.7-9.6H196c6.9,0,13.3,3.7,16.7,9.6l77.9,135c3.4,6,3.4,13.3,0,19.2l-77.9,135
					C209.2,258.9,202.9,262.6,196,262.6z M40.2-45.3c-6.6,0-12.8,3.6-16.1,9.3L-53.8,99c-3.3,5.7-3.3,12.8,0,18.5l77.9,135
					c3.3,5.7,9.5,9.3,16.1,9.3H196c6.6,0,12.8-3.6,16.1-9.3l77.9-135c3.3-5.7,3.3-12.8,0-18.5L212.1-36c-3.3-5.7-9.5-9.3-16.1-9.3
					L40.2-45.3z"/>
				<path class="st74" d="M196.1,264.9H38.6c-6.9,0-13.3-3.7-16.8-9.7l-78.8-136.5c-3.4-6-3.4-13.4,0-19.4L21.8-37.1
					c3.5-6,9.9-9.7,16.8-9.7h157.4c6.9,0,13.3,3.7,16.8,9.7l78.8,136.5c3.4,6,3.4,13.4,0,19.4l-78.8,136.5
					C209.4,261.2,203,264.9,196.1,264.9z M38.6-46.1c-6.7,0-12.9,3.6-16.2,9.4L-56.3,99.7c-3.3,5.8-3.3,12.9,0,18.7l78.8,136.5
					c3.3,5.8,9.5,9.3,16.2,9.4h157.4c6.7,0,12.9-3.6,16.2-9.4L291,118.4c3.3-5.8,3.3-12.9,0-18.7L212.3-36.8
					c-3.3-5.8-9.5-9.4-16.2-9.4L38.6-46.1z"/>
				<path class="st75" d="M196.1,267.2H37c-7,0-13.4-3.7-16.9-9.7l-79.6-137.9c-3.5-6-3.5-13.5,0-19.5L20.1-37.8
					c3.5-6,9.9-9.8,16.9-9.8h159.1c7,0,13.4,3.7,16.9,9.8l79.6,137.9c3.5,6,3.5,13.5,0,19.5l-79.6,137.9
					C209.6,263.5,203.1,267.2,196.1,267.2z M37-47c-6.7,0-12.9,3.6-16.3,9.4l-79.6,137.9c-3.3,5.8-3.3,13,0,18.8l79.6,137.9
					c3.4,5.8,9.6,9.4,16.3,9.4h159.1c6.7,0,13-3.6,16.3-9.4L292,119.2c3.3-5.8,3.3-13,0-18.8L212.5-37.5c-3.4-5.8-9.6-9.4-16.3-9.4
					L37-47z"/>
				<path class="st76" d="M196.2,269.5H35.5c-7,0-13.5-3.8-17.1-9.9L-62,120.4c-3.5-6.1-3.5-13.6,0-19.7L18.4-38.6
					c3.5-6.1,10-9.9,17.1-9.9h160.8c7,0,13.5,3.8,17.1,9.9l80.4,139.3c3.5,6.1,3.5,13.6,0,19.7l-80.4,139.3
					C209.8,265.8,203.2,269.5,196.2,269.5z M35.5-47.8c-6.8,0-13,3.6-16.4,9.5l-80.4,139.3c-3.4,5.9-3.4,13.1,0,18.9L19,259.3
					c3.4,5.9,9.7,9.5,16.4,9.5h160.8c6.8,0,13-3.6,16.4-9.5L293.1,120c3.4-5.9,3.4-13.1,0-18.9L212.6-38.3
					c-3.4-5.9-9.7-9.5-16.4-9.5L35.5-47.8z"/>
				<path class="st77" d="M196.3,271.9H33.9c-7.1,0-13.6-3.8-17.2-9.9l-81.2-140.8c-3.5-6.1-3.5-13.7,0-19.8L16.7-39.4
					c3.5-6.1,10.1-9.9,17.2-9.9h162.4c7.1,0,13.6,3.8,17.2,9.9l81.2,140.8c3.5,6.1,3.5,13.7,0,19.8l-81.2,140.8
					C209.9,268.1,203.4,271.9,196.3,271.9z M33.9-48.6c-6.8,0-13.1,3.7-16.5,9.6l-81.2,140.8c-3.4,5.9-3.4,13.2,0,19.1l81.2,140.8
					c3.4,5.9,9.7,9.5,16.5,9.6h162.4c6.8,0,13.1-3.7,16.5-9.6l81.2-140.8c3.4-5.9,3.4-13.2,0-19.1L212.8-39
					c-3.4-5.9-9.7-9.6-16.6-9.6H33.9z"/>
				<path class="st78" d="M196.4,274.2H32.3c-7.1,0-13.7-3.8-17.3-10L-67.1,122c-3.5-6.2-3.5-13.8,0-19.9L15-40.1
					c3.6-6.2,10.2-10,17.3-10h164.1c7.1,0,13.7,3.8,17.3,10l82.1,142.2c3.5,6.2,3.5,13.8,0,19.9l-82.1,142.2
					C210.1,270.4,203.5,274.2,196.4,274.2z M32.3-49.4c-6.9,0-13.2,3.7-16.7,9.6l-82.1,142.2c-3.4,5.9-3.4,13.3,0,19.2l82.1,142.2
					c3.4,6,9.8,9.6,16.6,9.7h164.1c6.9,0,13.2-3.7,16.7-9.6l82.1-142.2c3.4-5.9,3.4-13.3,0-19.2L213-39.8c-3.4-5.9-9.8-9.6-16.7-9.6
					H32.3z"/>
				<path class="st79" d="M196.4,276.5H30.7c-7.2,0-13.8-3.8-17.4-10l-82.9-143.7c-3.6-6.2-3.6-13.9,0-20.1L13.3-40.9
					c3.6-6.2,10.2-10,17.4-10h165.8c7.2,0,13.8,3.8,17.4,10l82.9,143.6c3.6,6.2,3.6,13.9,0,20.1l-82.9,143.7
					C210.2,272.7,203.6,276.5,196.4,276.5z M30.7-50.2c-6.9,0-13.3,3.7-16.8,9.7L-69,103.1c-3.4,6-3.4,13.4,0,19.4l82.9,143.6
					c3.5,6,9.9,9.7,16.8,9.7h165.7c6.9,0,13.3-3.7,16.8-9.7l82.9-143.6c3.4-6,3.4-13.4,0-19.4L213.2-40.5c-3.5-6-9.9-9.7-16.8-9.7
					H30.7z"/>
				<path class="st80" d="M196.5,278.8H29.1c-7.2,0-13.9-3.9-17.5-10.1l-83.7-145c-3.6-6.3-3.6-14,0-20.2L11.6-41.6
					c3.6-6.3,10.3-10.1,17.5-10.1h167.4c7.2,0,13.9,3.9,17.5,10.1l83.7,145c3.6,6.3,3.6,14,0,20.2L214,268.7
					C210.4,274.9,203.7,278.8,196.5,278.8z M29.1-51c-6.9,0-13.4,3.7-16.8,9.8l-83.8,145.1c-3.5,6-3.5,13.4,0,19.5l83.8,145
					c3.5,6,9.9,9.7,16.9,9.8h167.4c7,0,13.4-3.7,16.9-9.8l83.7-145c3.5-6,3.5-13.4,0-19.5l-83.7-145c-3.5-6-9.9-9.7-16.9-9.8
					L29.1-51z"/>
				<path class="st81" d="M196.6,281.1H27.5c-7.3,0-14-3.9-17.7-10.2l-84.5-146.5c-3.6-6.3-3.6-14.1,0-20.4L9.9-42.4
					c3.6-6.3,10.4-10.2,17.7-10.2h169.1c7.3,0,14,3.9,17.7,10.2l84.5,146.5c3.6,6.3,3.6,14.1,0,20.4l-84.5,146.5
					C210.6,277.3,203.9,281.1,196.6,281.1z M27.5-51.9c-7,0-13.5,3.8-17,9.8L-74,104.5c-3.5,6.1-3.5,13.5,0,19.6l84.5,146.5
					c3.5,6.1,10,9.8,17,9.8h169.1c7,0,13.5-3.7,17-9.8l84.5-146.5c3.5-6.1,3.5-13.5,0-19.6L213.6-42c-3.5-6.1-10-9.8-17-9.8
					L27.5-51.9z"/>
				<path class="st82" d="M196.7,283.5H25.9c-7.3,0-14.1-3.9-17.8-10.3l-85.4-147.9c-3.6-6.3-3.6-14.2,0-20.5L8.2-43.1
					c3.7-6.3,10.4-10.3,17.8-10.3h170.7c7.3,0,14.1,3.9,17.8,10.3l85.4,147.9c3.6,6.3,3.6,14.2,0,20.5l-85.4,147.9
					C210.8,279.5,204,283.5,196.7,283.5z M25.9-52.6c-7.1,0-13.6,3.8-17.1,9.9l-85.4,147.9c-3.5,6.1-3.5,13.6,0,19.8L8.8,272.8
					c3.5,6.1,10.1,9.9,17.1,9.9h170.7c7.1,0,13.6-3.8,17.1-9.9l85.4-147.9c3.5-6.1,3.5-13.6,0-19.8L213.8-42.8
					c-3.5-6.1-10.1-9.9-17.1-9.9H25.9z"/>
				<path class="st83" d="M196.7,285.8H24.4c-7.4,0-14.2-3.9-17.9-10.3l-86.2-149.4c-3.7-6.4-3.7-14.2,0-20.6L6.5-43.9
					c3.7-6.4,10.5-10.3,17.9-10.3h172.4c7.4,0,14.2,3.9,17.9,10.3l86.2,149.4c3.7,6.4,3.7,14.2,0,20.6l-86.2,149.4
					C210.9,281.9,204.1,285.8,196.7,285.8z M24.4-53.4c-7.1,0-13.7,3.8-17.2,10l-86.2,149.3c-3.5,6.2-3.5,13.7,0,19.9L7.1,275.1
					c3.6,6.1,10.1,9.9,17.2,10h172.4c7.1,0,13.7-3.8,17.2-10l86.2-149.3c3.5-6.2,3.5-13.7,0-19.9L214-43.5c-3.5-6.2-10.1-10-17.2-10
					L24.4-53.4z"/>
				<path class="st84" d="M196.8,288.1h-174c-7.4,0-14.3-4-18-10.4l-87-150.8c-3.7-6.4-3.7-14.3,0-20.8l87-150.8
					C8.5-51,15.4-55,22.8-55h174c7.6,0,14.3,4.1,16.5,9.8l87,150.7c4.9,6.5,5.5,14.5,1.5,21.4l-87,150.8
					C211.1,284.1,204.2,288.1,196.8,288.1z M22.8-54.3c-7.1,0-13.8,3.8-17.3,10l-87.1,150.8c-3.6,6.2-3.6,13.8,0,20l87,150.8
					c3.6,6.2,10.2,10,17.3,10h174.1c7.1,0,13.8-3.8,17.3-10l87-150.8c3.8-6.6,3.3-14.1-1.5-20.6l-87-150.8
					c-2.1-5.6-8.6-9.4-15.8-9.4H22.8z"/>
				<path class="st85" d="M196.9,290.4H21.2c-7.5,0-14.4-4-18.1-10.5l-87.9-152.2c-3.7-6.5-3.7-14.4,0-20.9L3.1-45.4
					c3.7-6.5,10.7-10.5,18.1-10.5h175.7c7.5,0,14.4,4,18.1,10.5l87.9,152.2c3.7,6.5,3.7,14.4,0,20.9L215,279.9
					C211.3,286.4,204.4,290.4,196.9,290.4z M21.2-55.1C14-55.1,7.3-51.2,3.7-45l-87.9,152.2c-3.6,6.2-3.6,13.9,0,20.1L3.7,279.6
					c3.6,6.2,10.3,10.1,17.5,10.1h175.7c7.2,0,13.9-3.8,17.5-10.1l87.9-152.2c3.6-6.2,3.6-13.9,0-20.1L214.3-45
					c-3.6-6.2-10.3-10.1-17.5-10.1H21.2z"/>
				<path class="st86" d="M197,292.7H19.6c-7.5,0-14.5-4-18.2-10.5l-88.7-153.6c-3.7-6.5-3.7-14.5,0-21.1L1.3-46.1
					c3.8-6.5,10.7-10.5,18.2-10.5H197c7.5,0,14.5,4,18.2,10.5l88.7,153.6c3.7,6.5,3.7,14.5,0,21.1l-88.7,153.7
					C211.4,288.7,204.5,292.7,197,292.7z M19.6-55.9C12.3-55.9,5.6-52,2-45.7l-88.7,153.6c-3.6,6.3-3.6,14,0,20.3L2,281.8
					c3.6,6.3,10.3,10.1,17.6,10.1H197c7.2,0,13.9-3.9,17.6-10.1l88.7-153.6c3.6-6.3,3.6-14,0-20.3L214.5-45.7
					c-3.6-6.3-10.3-10.1-17.6-10.2H19.6z"/>
				<path class="st87" d="M197,295H18c-7.6,0-14.6-4-18.4-10.6l-89.5-155.1c-3.8-6.6-3.8-14.6,0-21.2L-0.4-46.9
					C3.4-53.4,10.4-57.5,18-57.5h179c7.6,0,14.6,4,18.4,10.6l89.5,155.1c3.8,6.6,3.8,14.6,0,21.2l-89.5,155.1
					C211.6,291,204.6,295,197,295z M18-56.7c-7.3,0-14,3.9-17.7,10.2l-89.5,155.1c-3.6,6.3-3.6,14.1,0,20.4L0.3,284.1
					c3.7,6.3,10.4,10.2,17.7,10.2h179c7.3,0,14-3.9,17.7-10.2L304.3,129c3.6-6.3,3.6-14.1,0-20.4L214.7-46.5
					c-3.7-6.3-10.4-10.2-17.7-10.2L18-56.7z"/>
				<path class="st88" d="M197.1,297.4H16.4c-7.6,0-14.7-4.1-18.5-10.7l-90.3-156.5c-3.8-6.6-3.8-14.7,0-21.3L-2.1-47.6
					c3.8-6.6,10.9-10.7,18.5-10.7h180.7c7.6,0,14.7,4.1,18.5,10.7l90.4,156.5c3.8,6.6,3.8,14.7,0,21.3l-90.4,156.5
					C211.8,293.3,204.7,297.4,197.1,297.4z M16.4-57.5c-7.3,0-14.1,3.9-17.8,10.3l-90.4,156.5c-3.7,6.4-3.7,14.2,0,20.6l90.3,156.5
					c3.7,6.3,10.5,10.3,17.8,10.3h180.7c7.3,0,14.1-3.9,17.8-10.3l90.4-156.5c3.7-6.4,3.7-14.2,0-20.6L214.9-47.2
					c-3.7-6.4-10.5-10.3-17.8-10.3H16.4z"/>
				<path class="st89" d="M197.2,299.7H14.8c-7.7,0-14.7-4.1-18.6-10.7L-94.9,131c-3.8-6.7-3.8-14.8,0-21.5L-3.7-48.4
					C0.1-55,7.2-59.1,14.9-59.1h182.3c7.7,0,14.8,4.1,18.6,10.7L307,109.5c3.8,6.7,3.8,14.8,0,21.5l-91.2,157.9
					C211.9,295.6,204.9,299.7,197.2,299.7z M14.8-58.3c-7.4,0-14.2,4-17.9,10.3l-91.2,157.9c-3.7,6.4-3.7,14.3,0,20.7l91.2,157.9
					c3.7,6.4,10.5,10.3,17.9,10.4h182.4c7.4,0,14.2-4,17.9-10.4l91.2-157.9c3.7-6.4,3.7-14.3,0-20.7L215.1-48
					c-3.7-6.4-10.5-10.3-17.9-10.3L14.8-58.3z"/>
			</g>
		</g>
	</g>
	<g>
		<defs>
			<path id="SVGID_00000126290586465757149090000000452309041182908820_" d="M210.7,19v135.6c0,26.8-18.6,50.1-44.9,55.8
				c-8.1,1.8-17.5,3.4-28.5,4.6c-8.6,1-17.1,3.2-25.1,6.6L109,223l-6.2-2.9c-6-2.8-12.4-4.6-19-5.3c-10.6-1.1-21.1-2.8-31.6-5
				c-26.2-5.7-45-28.9-44.9-55.8V18.5l9.4-1.9C77.6,4.3,140.3,4.4,201.2,17.1L210.7,19z"/>
		</defs>
		<clipPath id="SVGID_00000117663507410161966290000002786509507625693064_">
			<use xlink:href="#SVGID_00000126290586465757149090000000452309041182908820_"  style="overflow:visible;"/>
		</clipPath>
		<g style="clip-path:url(#SVGID_00000117663507410161966290000002786509507625693064_);">
			
				<radialGradient id="SVGID_00000180338133885539156410000000171719930681625480_" cx="4.43" cy="122.2491" r="173.22" gradientTransform="matrix(1 0 0 -1 0 294.5223)" gradientUnits="userSpaceOnUse">
				<stop  offset="0" style="stop-color:#A2DEF9"/>
				<stop  offset="2.000000e-02" style="stop-color:#92DBF8"/>
				<stop  offset="0.11" style="stop-color:#5FD1F7"/>
				<stop  offset="0.19" style="stop-color:#36C9F5"/>
				<stop  offset="0.26" style="stop-color:#18C4F4"/>
				<stop  offset="0.32" style="stop-color:#06C0F3"/>
				<stop  offset="0.37" style="stop-color:#00BFF3"/>
				<stop  offset="0.45" style="stop-color:#04ACE1"/>
				<stop  offset="0.6" style="stop-color:#0E7AB2"/>
				<stop  offset="0.83" style="stop-color:#1D2A67"/>
				<stop  offset="0.86" style="stop-color:#201D5A"/>
				<stop  offset="0.88" style="stop-color:#1D1B51"/>
				<stop  offset="0.92" style="stop-color:#161539"/>
				<stop  offset="0.96" style="stop-color:#0C0D19"/>
			</radialGradient>
			<path style="fill:url(#SVGID_00000180338133885539156410000000171719930681625480_);" d="M93.4,25.2c-1.3-1.3-2.9-2.1-4.6-2.6
				h-8.1c-2.6,0-4.4,0.4-5.5,1.1c-1.4,1.2-2.5,2.7-3.2,4.4l-83.6,159.4v1.8h54.5l62.1-125.2c0.6-1.1,1.8-1.7,3-1.6h2.8
				c0.7,0,1.4,0.1,2,0.4L93.4,25.2z"/>
			
				<radialGradient id="SVGID_00000060030997200826001100000000664794777886496129_" cx="100.86" cy="264.4891" r="159.22" gradientTransform="matrix(1 0 0 -1 0 294.5223)" gradientUnits="userSpaceOnUse">
				<stop  offset="0" style="stop-color:#A2DEF9"/>
				<stop  offset="3.000000e-02" style="stop-color:#92DBF8"/>
				<stop  offset="0.16" style="stop-color:#5FD1F7"/>
				<stop  offset="0.28" style="stop-color:#36C9F5"/>
				<stop  offset="0.38" style="stop-color:#18C4F4"/>
				<stop  offset="0.48" style="stop-color:#06C0F3"/>
				<stop  offset="0.54" style="stop-color:#00BFF3"/>
				<stop  offset="0.6" style="stop-color:#05A8DD"/>
				<stop  offset="0.73" style="stop-color:#106DA5"/>
				<stop  offset="0.88" style="stop-color:#201D5A"/>
				<stop  offset="0.91" style="stop-color:#1E1B54"/>
				<stop  offset="0.94" style="stop-color:#191742"/>
				<stop  offset="0.98" style="stop-color:#101026"/>
				<stop  offset="1" style="stop-color:#0C0D19"/>
			</radialGradient>
			<path style="fill:url(#SVGID_00000060030997200826001100000000664794777886496129_);" d="M204.5,138.3L147.3,28.1
				c-0.8-1.7-2.1-3.2-3.6-4.4c-1.1-0.8-3-1.1-5.6-1.1H88.8c1.8,0.4,3.4,1.3,4.6,2.6l19.2,37.7c0.5,0.3,0.9,0.7,1.2,1.2l26.3,52.7
				c2.4,4.9,4.5,8.9,6.2,12.1c1.7,3.2,3.1,6,4.4,8.2c1.2,2.3,2.3,4.2,3.3,5.8s1.9,3.2,2.9,4.9l-0.7,1.5l40.5,2.1
				C196.7,151.5,204.8,149.7,204.5,138.3z"/>
			
				<radialGradient id="SVGID_00000060015787855243027230000017449380041775711900_" cx="199.09" cy="143.0492" r="132.05" gradientTransform="matrix(1 0 0 -1 0 294.5223)" gradientUnits="userSpaceOnUse">
				<stop  offset="9.000000e-02" style="stop-color:#A2DEF9"/>
				<stop  offset="0.42" style="stop-color:#00BFF3"/>
				<stop  offset="0.47" style="stop-color:#02B6EB"/>
				<stop  offset="0.53" style="stop-color:#069FD4"/>
				<stop  offset="0.62" style="stop-color:#0E78B0"/>
				<stop  offset="0.72" style="stop-color:#19437E"/>
				<stop  offset="0.78" style="stop-color:#201D5A"/>
				<stop  offset="0.83" style="stop-color:#1B194A"/>
				<stop  offset="0.92" style="stop-color:#0F0F22"/>
				<stop  offset="0.94" style="stop-color:#0C0D19"/>
			</radialGradient>
			<path style="fill:url(#SVGID_00000060015787855243027230000017449380041775711900_);" d="M230.1,187.5l-25.6-49.2
				c0.2,11.4-7.9,13.2-7.9,13.2l-40.5-2.1v0.1L150,149c-2.1-0.1-4.6-0.3-7.3-0.4c-2.7-0.1-5.9-0.1-9.5-0.1H73.7v4.6l13.7,36.2h142.7
				V187.5z"/>
		</g>
	</g>
	<path class="st94" d="M108.9,225.5l-7.1-3.3c-5.8-2.7-12-4.4-18.3-5.1c-10.7-1.1-21.3-2.8-31.8-5C24.4,206.1,5,182,5,154.1V16.5
		l11.2-2.3C77.4,1.8,140.5,1.9,201.6,14.7l11.3,2.4v137.5c0,27.9-19.4,52.1-46.7,58c-8.7,1.9-18.4,3.5-28.8,4.7
		c-8.4,1-16.7,3.1-24.5,6.4L108.9,225.5z M9.5,20.2V154c0.1,25.7,18,48,43.1,53.6c10.3,2.2,20.8,3.8,31.3,4.9
		c6.8,0.8,13.5,2.6,19.8,5.5l5.3,2.5l2.3-1c8.2-3.5,16.9-5.7,25.7-6.7c10.2-1.2,19.7-2.8,28.3-4.6c25.1-5.6,43-27.8,43.1-53.6V20.8
		l-7.7-1.6C140.2,6.5,77.7,6.3,17.1,18.7L9.5,20.2z"/>
	<path class="st95" d="M195.7,57.5h-26.3c-0.2,0-0.5-0.1-0.6-0.3c-0.2-0.3-0.3-0.6-0.3-0.9v-5c0-0.6,0.1-1.1,0.3-1.6
		c0.3-0.4,0.8-0.7,1.2-0.8l17.8-6.1c0.4-0.1,0.7-0.3,1-0.6c0.2-0.3,0.3-0.6,0.3-1v-0.9c0-0.3-0.1-0.6-0.3-0.9
		c-0.3-0.2-0.7-0.4-1.1-0.3H170l-2-5.3v-0.2h22.2c0.9,0,1.8,0.1,2.7,0.4c0.7,0.2,1.3,0.6,1.8,1.1c0.5,0.5,0.8,1.1,1,1.7
		c0.2,0.7,0.3,1.5,0.3,2.2v2.4c0,0.7,0,1.4-0.2,2.1c-0.1,0.5-0.3,1-0.6,1.5c-0.3,0.4-0.7,0.8-1.2,1c-0.6,0.3-1.2,0.6-1.9,0.8l-9.3,3
		l-2.1,0.7l-1.5,0.5l-1.2,0.3c-0.4,0.1-0.7,0.2-1.1,0.3v0.2l1.9-0.1l1.6-0.1h1.4h13.9L195.7,57.5z"/>
	<path class="st95" d="M281.6,127.1h-13.1l-2.6-16.8h-16.6l-2.6,16.8h-13.1v-0.2l17.1-88.4h13.9L281.6,127.1z M264,98.9L257.5,59
		L251,98.9H264z"/>
	<path class="st95" d="M361.9,86.8c0,5.5-2.7,8.2-8.1,8.2h-21.4v32.1h-13.2V38.6h34.7c5.4,0,8.1,2.7,8.1,8.1V86.8z M348.5,83.7V49.9
		h-16.2v33.7L348.5,83.7z"/>
	<path class="st95" d="M444.2,86.8c0,5.5-2.7,8.2-8.1,8.2h-21.4v32.1h-13.2V38.6h34.7c5.4,0,8.1,2.7,8.1,8.1L444.2,86.8z
		 M430.8,83.7V49.9h-16.2v33.7L430.8,83.7z"/>
	<path class="st95" d="M518.5,127.1h-34.8V38.6h13.2v76.7h21.6V127.1z"/>
	<path class="st95" d="M569.9,127.1h-13.2V38.6h13.2V127.1z"/>
	<path class="st95" d="M647.6,127.1h-36.7V38.6h36.4v11.7h-23.2v25.9H644v11.5h-19.9v27.8h23.5V127.1z"/>
	<path class="st95" d="M730.9,110.4c0,5.2-1.5,9.3-4.6,12.2s-7.3,4.5-12.5,4.5h-27V38.6h27c5.2,0,9.4,1.5,12.5,4.5
		c3.1,3,4.6,7.1,4.6,12.3V110.4z M717.6,108.2V57.4c0-4.9-2.6-7.4-7.8-7.4H700v65.8h9.5C714.9,115.7,717.6,113.2,717.6,108.2
		L717.6,108.2z"/>
	<path class="st96" d="M258.9,144.2v22.6h-3.1v-3.9c-1.2,1.4-2.7,2.5-4.4,3.3c-1.7,0.8-3.5,1.1-5.4,1.1c-3.3,0.1-6.4-1.2-8.8-3.5
		c-2.4-2.2-3.7-5.2-3.6-8.5c0-3.2,1.3-6.2,3.7-8.3c2.4-2.3,5.6-3.5,8.9-3.5c3.8-0.1,7.4,1.7,9.7,4.7v-4.1H258.9z M246.5,146.4
		c-1.7,0-3.3,0.4-4.8,1.2c-1.4,0.8-2.7,1.9-3.5,3.4c-1.7,2.8-1.7,6.3,0,9.1c0.9,1.4,2.1,2.6,3.6,3.4c1.5,0.8,3.1,1.2,4.8,1.2
		c1.7,0,3.4-0.4,4.9-1.2c3-1.5,4.8-4.6,4.8-7.9c0.1-2.5-1-4.9-2.8-6.5C251.4,147.3,249,146.4,246.5,146.4z"/>
	<path class="st96" d="M336.3,135.5h3.1v31.3h-3.1V135.5z"/>
	<path class="st96" d="M416.3,144.2h3.1v10.5c-0.1,1.8,0.1,3.6,0.5,5.3c0.4,1.4,1.3,2.5,2.6,3.3c1.4,0.8,2.9,1.3,4.5,1.2
		c1.6,0,3.1-0.4,4.4-1.2c1.2-0.7,2-1.8,2.5-3.1c0.4-1.8,0.6-3.7,0.5-5.5v-10.5h3.2v11.1c0.1,2.4-0.3,4.8-1.2,7
		c-0.8,1.6-2,2.9-3.5,3.7c-3.7,1.8-8.1,1.8-11.8,0c-1.5-0.8-2.8-2.2-3.5-3.7c-0.9-2.3-1.3-4.8-1.2-7.2L416.3,144.2z"/>
	<path class="st96" d="M515.3,144.2h3.1v3.9c0.9-1.3,2-2.3,3.3-3.1c1.5-0.9,3.2-1.3,5-1.3c1.1,0,2.3,0.2,3.3,0.6
		c1,0.4,1.9,1,2.6,1.7c0.8,0.9,1.4,1.9,1.7,3.1c0.9-1.6,2.3-3,3.9-4c1.5-0.9,3.2-1.4,5-1.4c1.6,0,3.1,0.4,4.4,1.2
		c1.3,0.8,2.3,1.9,2.9,3.3c0.7,2,1,4.2,0.9,6.4v12.3h-3.2v-12.3c0.1-1.7-0.1-3.4-0.5-5c-0.4-0.9-1.1-1.7-1.9-2.2
		c-1-0.6-2.1-0.9-3.2-0.8c-1.5,0-2.9,0.4-4.2,1.2c-1.2,0.8-2.2,2-2.7,3.3c-0.7,2.2-1,4.6-0.9,6.9v8.8h-3.1v-11.6
		c0.1-1.9-0.1-3.7-0.5-5.6c-0.4-1-1-1.8-1.9-2.3c-1-0.6-2.1-0.9-3.2-0.9c-3,0-5.6,1.8-6.8,4.5c-0.7,2-1,4.2-0.9,6.3v9.6h-3.1V144.2z
		"/>
	<path class="st96" d="M628.9,144.2h3.1v4c1.1-1.4,2.5-2.6,4.2-3.5c1.5-0.8,3.2-1.2,5-1.1c1.7,0,3.4,0.4,4.8,1.3
		c1.4,0.8,2.5,2,3.1,3.5c0.8,2.2,1.1,4.5,1,6.8v11.6H647V156c0.1-1.7-0.1-3.5-0.3-5.2c-0.3-1.3-1-2.5-2.1-3.4
		c-1.2-0.8-2.6-1.2-4-1.1c-1.8,0-3.6,0.6-5.1,1.7c-1.4,1.1-2.5,2.6-3,4.3c-0.4,2-0.5,4.1-0.4,6.1v8.3h-3.1L628.9,144.2z"/>
	<path class="st96" d="M728.7,134.9c0.7,0,1.3,0.2,1.8,0.7c0.9,0.8,1,2.3,0.2,3.2c-0.1,0.1-0.1,0.1-0.2,0.2c-1,0.9-2.6,0.9-3.6,0
		c-0.9-0.8-1-2.3-0.2-3.2c0.1-0.1,0.1-0.1,0.2-0.2C727.4,135.1,728,134.9,728.7,134.9z M727.1,144.2h3.1v22.6h-3.1V144.2z"/>
</g>
</svg>
