<?xml version="1.0" encoding="utf-8"?>
<!-- Generator: Adobe Illustrator 26.4.1, SVG Export Plug-In . SVG Version: 6.00 Build 0)  -->
<svg version="1.1" id="Layer_1" xmlns="http://www.w3.org/2000/svg" xmlns:xlink="http://www.w3.org/1999/xlink" x="0px" y="0px"
	 viewBox="0 0 284 357.1" style="enable-background:new 0 0 284 357.1;" xml:space="preserve">
<style type="text/css">
	.st0{opacity:0.39;}
	.st1{clip-path:url(#SVGID_00000142889263739381158320000002498241732714024342_);}
	.st2{fill:#004881;}
	.st3{fill:#004880;}
	.st4{fill:#00477F;}
	.st5{fill:#00467E;}
	.st6{fill:#00457D;}
	.st7{fill:#00447C;}
	.st8{fill:#00447B;}
	.st9{fill:#00437A;}
	.st10{fill:#004279;}
	.st11{fill:#004178;}
	.st12{fill:#004077;}
	.st13{fill:#004076;}
	.st14{fill:#003F76;}
	.st15{fill:#003F75;}
	.st16{fill:#003E74;}
	.st17{fill:#003D73;}
	.st18{fill:#003C72;}
	.st19{fill:#003C71;}
	.st20{fill:#003B71;}
	.st21{fill:#003B70;}
	.st22{fill:#003A6F;}
	.st23{fill:#00396F;}
	.st24{fill:#00396E;}
	.st25{fill:#00386D;}
	.st26{fill:#00376C;}
	.st27{fill:#00376B;}
	.st28{fill:#00366B;}
	.st29{fill:#00366A;}
	.st30{fill:#003569;}
	.st31{fill:#003469;}
	.st32{fill:#003468;}
	.st33{fill:#003367;}
	.st34{fill:#003266;}
	.st35{fill:#003265;}
	.st36{fill:#003165;}
	.st37{fill:#003064;}
	.st38{fill:#003063;}
	.st39{fill:#002F63;}
	.st40{fill:#002F62;}
	.st41{fill:#002E61;}
	.st42{fill:#002D60;}
	.st43{fill:#002C5F;}
	.st44{fill:#002B5E;}
	.st45{fill:#002A5D;}
	.st46{fill:#002A5C;}
	.st47{fill:#00295C;}
	.st48{fill:#00285B;}
	.st49{fill:#00285A;}
	.st50{fill:#00275A;}
	.st51{fill:#002759;}
	.st52{fill:#002658;}
	.st53{fill:#002558;}
	.st54{fill:#002557;}
	.st55{fill:#002456;}
	.st56{fill:#002355;}
	.st57{fill:#002254;}
	.st58{fill:#002153;}
	.st59{fill:#002152;}
	.st60{fill:#002052;}
	.st61{fill:#001F51;}
	.st62{fill:#001F50;}
	.st63{fill:#001E50;}
	.st64{fill:#001D4F;}
	.st65{fill:#001C4E;}
	.st66{fill:#001B4D;}
	.st67{fill:#001A4C;}
	.st68{fill:#00194B;}
	.st69{fill:#00184B;}
	.st70{fill:#00184A;}
	.st71{fill:#001749;}
	.st72{fill:#001648;}
	.st73{fill:#001548;}
	.st74{fill:#001547;}
	.st75{fill:#001446;}
	.st76{fill:#001346;}
	.st77{fill:#001245;}
	.st78{fill:#001144;}
	.st79{fill:#001044;}
	.st80{fill:#000F43;}
	.st81{fill:#000E42;}
	.st82{fill:#000D42;}
	.st83{fill:#000C41;}
	.st84{fill:#000B40;}
	.st85{fill:#000A3F;}
	.st86{fill:#00093F;}
	.st87{fill:#00083E;}
	.st88{fill:#00073D;}
	.st89{fill:#00053D;}
	.st90{clip-path:url(#SVGID_00000044140357315254358860000004663906426857683089_);}
	.st91{fill:url(#SVGID_00000012442272549041301480000018433850571220663976_);}
	.st92{fill:url(#SVGID_00000109019487028155756700000003304493099646087054_);}
	.st93{fill:url(#SVGID_00000113325527230657429200000005192553507815033246_);}
	.st94{fill:#191249;}
	.st95{fill:#150958;}
	.st96{fill:#A7A9AC;}
</style>
<g>
	<g class="st0">
		<g>
			<defs>
				<path id="SVGID_1_" d="M258.8,97.4v167.4c0,33.1-23,61.8-55.4,68.9c-10,2.2-21.6,4.1-35.2,5.7c-10.7,1.2-21.1,4-31,8.1l-3.9,1.7
					l-7.7-3.5c-7.4-3.4-15.4-5.7-23.5-6.6c-13.1-1.4-26.1-3.4-39-6.1c-32.4-7.1-55.4-35.7-55.4-68.9V96.7l11.6-2.4
					C94.5,79.1,172,79.3,247.1,95L258.8,97.4z"/>
			</defs>
			<clipPath id="SVGID_00000162354603872289773080000017840119666118553000_">
				<use xlink:href="#SVGID_1_"  style="overflow:visible;"/>
			</clipPath>
			<g style="clip-path:url(#SVGID_00000162354603872289773080000017840119666118553000_);">
				<path class="st2" d="M232.8,154.7h-18c-3.4,0-6.5-1.8-8.1-4.8l-9.3-16.6c-1.6-2.8-1.6-6.2,0-9.1l9.3-16.6
					c1.6-2.9,4.7-4.8,8.1-4.8h18c3.4,0,6.5,1.8,8.1,4.8l9.3,16.6c1.6,2.8,1.6,6.2,0,9.1l-9.3,16.6
					C239.3,152.9,236.2,154.7,232.8,154.7z M214.8,103.1c-3.3,0-6.3,1.8-7.9,4.6l-9.3,16.6c-1.5,2.7-1.5,6.1,0,8.8l9.3,16.6
					c1.6,2.9,4.6,4.6,7.9,4.6h18c3.3,0,6.3-1.8,7.9-4.6l9.3-16.6c1.5-2.7,1.5-6.1,0-8.8l-9.3-16.6c-1.6-2.9-4.6-4.6-7.9-4.6
					L214.8,103.1z"/>
				<path class="st3" d="M232.9,157.6h-20.1c-3.4,0-6.6-1.9-8.3-4.9l-10.3-18.4c-1.6-2.9-1.6-6.4,0-9.2l10.4-18.5
					c1.7-3,4.8-4.8,8.3-4.9H233c3.4,0,6.6,1.9,8.3,4.9l10.3,18.4c1.6,2.9,1.6,6.4,0,9.2l-10.3,18.4
					C239.5,155.8,236.4,157.6,232.9,157.6z M212.8,102.1c-3.3,0-6.4,1.8-8,4.7l-10.3,18.4c-1.6,2.8-1.6,6.2,0,9l10.3,18.4
					c1.6,2.9,4.7,4.7,8,4.7h20.1c3.3,0,6.4-1.8,8-4.7l10.3-18.4c1.6-2.8,1.6-6.2,0-9l-10.3-18.4c-1.6-2.9-4.7-4.7-8-4.7L212.8,102.1
					z"/>
				<path class="st4" d="M233,160.5h-22.1c-3.5,0-6.7-1.9-8.4-4.9l-11.3-20.2c-1.6-2.9-1.6-6.5,0-9.4l11.3-20.2
					c1.7-3,4.9-4.9,8.4-4.9H233c3.5,0,6.7,1.9,8.4,4.9l11.3,20.2c1.6,2.9,1.6,6.5,0,9.4l-11.3,20.2
					C239.7,158.6,236.5,160.5,233,160.5z M210.9,101.1c-3.4,0-6.5,1.8-8.2,4.8l-11.3,20.2c-1.6,2.8-1.6,6.3,0,9.1l11.3,20.2
					c1.7,3,4.8,4.8,8.2,4.8H233c3.4,0,6.5-1.8,8.2-4.8l11.3-20.2c1.6-2.8,1.6-6.3,0-9.1l-11.3-20.2c-1.7-3-4.8-4.8-8.2-4.8
					L210.9,101.1z"/>
				<path class="st4" d="M233.1,163.4h-24.2c-3.5,0-6.8-1.9-8.6-5l-12.4-22c-1.6-3-1.6-6.6,0-9.6l12.4-21.9c1.7-3.1,5-5,8.6-5h24.2
					c3.5,0,6.8,1.9,8.6,5l12.4,21.9c1.6,3,1.6,6.6,0,9.6l-12.4,21.9C239.9,161.4,236.7,163.4,233.1,163.4z M208.9,100.2
					c-3.4,0-6.6,1.9-8.3,4.9L188.3,127c-1.6,2.9-1.6,6.4,0,9.3l12.4,22c1.7,3,4.9,4.9,8.3,4.9h24.2c3.4,0,6.6-1.9,8.3-4.9l12.4-22
					c1.6-2.9,1.6-6.4,0-9.3L241.4,105c-1.7-3-4.9-4.9-8.3-4.9L208.9,100.2z"/>
				<path class="st5" d="M233.2,166.2H207c-3.6,0-6.9-2-8.7-5.1l-13.4-23.7c-1.7-3-1.7-6.7,0-9.7l13.4-23.7c1.8-3.2,5.1-5.1,8.7-5.1
					h26.2c3.6,0,6.9,2,8.7,5.1l13.4,23.7c1.7,3,1.7,6.7,0,9.7l-13.4,23.7C240.1,164.2,236.8,166.2,233.2,166.2z M207,99.1
					c-3.5,0-6.7,1.9-8.4,4.9l-13.4,23.7c-1.6,2.9-1.6,6.5,0,9.5l13.4,23.7c1.7,3.1,4.9,4.9,8.4,5h26.2c3.5,0,6.7-1.9,8.4-5
					l13.4-23.7c1.6-2.9,1.6-6.5,0-9.4l-13.4-23.7c-1.7-3.1-4.9-4.9-8.4-4.9H207z"/>
				<path class="st6" d="M233.3,169H205c-3.7,0-7.1-2-8.9-5.2l-14.4-25.5c-1.7-3.1-1.7-6.8,0-9.9l14.4-25.5c1.8-3.2,5.2-5.2,8.9-5.2
					h28.3c3.7,0,7.1,2,8.9,5.2l14.4,25.5c1.7,3.1,1.7,6.8,0,9.9l-14.4,25.5C240.4,167.1,237,169.1,233.3,169z M205,98.1
					c-3.6,0-6.8,1.9-8.6,5L182,128.6c-1.7,3-1.7,6.6,0,9.6l14.4,25.5c1.7,3.1,5,5,8.6,5h28.3c3.6,0,6.8-1.9,8.6-5l14.4-25.5
					c1.7-3,1.7-6.6,0-9.6l-14.4-25.5c-1.8-3.1-5-5-8.6-5L205,98.1z"/>
				<path class="st6" d="M233.4,171.9h-30.3c-3.7,0-7.2-2-9-5.3l-15.5-27.3c-1.7-3.1-1.7-7,0-10.1L194,102c1.8-3.3,5.3-5.3,9-5.3
					h30.3c3.7,0,7.2,2,9,5.3l15.4,27.2c1.8,3.1,1.8,7,0,10.1l-15.4,27.2C240.5,169.9,237.1,171.9,233.4,171.9z M203.1,97.1
					c-3.6,0-7,2-8.7,5.1l-15.4,27.2c-1.7,3-1.7,6.7,0,9.8l15.4,27.2c1.8,3.2,5.1,5.1,8.7,5.1h30.3c3.6,0,7-2,8.7-5.1l15.4-27.2
					c1.7-3,1.7-6.7,0-9.8l-15.4-27.2c-1.8-3.2-5.1-5.1-8.7-5.1L203.1,97.1z"/>
				<path class="st7" d="M233.5,174.8h-32.4c-3.8,0-7.3-2.1-9.1-5.4l-16.4-29c-1.8-3.2-1.8-7.1,0-10.3l16.4-29
					c1.9-3.3,5.4-5.3,9.1-5.4h32.4c3.8,0,7.3,2.1,9.2,5.4l16.4,29c1.8,3.2,1.8,7.1,0,10.3l-16.5,29
					C240.8,172.7,237.3,174.7,233.5,174.8z M201.1,96.1c-3.7,0-7.1,2-8.9,5.2l-16.5,29c-1.7,3.1-1.7,6.9,0,10l16.5,29
					c1.8,3.2,5.2,5.2,8.9,5.2h32.4c3.7,0,7.1-2,8.9-5.2l16.4-29c1.7-3.1,1.7-6.9,0-9.9l-16.4-29c-1.8-3.2-5.2-5.2-8.9-5.2
					L201.1,96.1z"/>
				<path class="st8" d="M233.6,177.6h-34.5c-3.9,0-7.4-2.1-9.3-5.4l-17.5-30.8c-1.8-3.2-1.8-7.2,0-10.4l17.5-30.8
					c1.9-3.4,5.4-5.4,9.3-5.4h34.5c3.9,0,7.4,2.1,9.3,5.4l17.5,30.8c1.8,3.2,1.8,7.2,0,10.4l-17.5,30.8
					C241,175.5,237.5,177.6,233.6,177.6z M199.2,95.1c-3.7,0-7.2,2-9,5.3l-17.5,30.8c-1.8,3.1-1.8,7,0,10.1l17.5,30.8
					c1.8,3.3,5.3,5.3,9,5.3h34.4c3.7,0,7.2-2,9-5.3l17.5-30.8c1.8-3.1,1.8-7,0-10.1l-17.5-30.8c-1.8-3.3-5.3-5.3-9-5.3L199.2,95.1z"
					/>
				<path class="st9" d="M233.7,180.5h-36.5c-3.9,0-7.5-2.1-9.5-5.5l-18.5-32.5c-1.8-3.3-1.8-7.3,0-10.6l18.5-32.5
					c1.9-3.4,5.5-5.5,9.5-5.5h36.5c3.9,0,7.5,2.1,9.5,5.5l18.5,32.5c1.8,3.3,1.8,7.3,0,10.6L243.1,175
					C241.2,178.4,237.6,180.5,233.7,180.5z M197.2,94.1c-3.8,0-7.3,2-9.1,5.4L169.5,132c-1.8,3.2-1.8,7.1,0,10.3l18.5,32.5
					c1.9,3.3,5.4,5.3,9.1,5.4h36.5c3.8,0,7.3-2,9.2-5.4l18.5-32.5c1.8-3.2,1.8-7.1,0-10.3l-18.5-32.5c-1.9-3.3-5.4-5.3-9.2-5.4
					L197.2,94.1z"/>
				<path class="st9" d="M233.8,183.4h-38.5c-4,0-7.6-2.1-9.6-5.6l-19.5-34.3c-1.9-3.4-1.9-7.4,0-10.8l19.5-34.3
					c1.9-3.5,5.6-5.6,9.6-5.6h38.5c4,0,7.6,2.1,9.6,5.6l19.5,34.3c1.9,3.4,1.9,7.4,0,10.8l-19.5,34.3
					C241.4,181.2,237.7,183.4,233.8,183.4z M195.2,93.1c-3.8,0-7.4,2.1-9.3,5.4l-19.5,34.3c-1.8,3.2-1.8,7.2,0,10.4l19.5,34.3
					c1.9,3.4,5.4,5.4,9.3,5.4h38.5c3.8,0,7.4-2.1,9.3-5.4l19.6-34.3c1.8-3.2,1.8-7.2,0-10.4l-19.5-34.3c-1.9-3.4-5.4-5.4-9.3-5.4
					L195.2,93.1z"/>
				<path class="st10" d="M233.9,186.2h-40.6c-4,0-7.8-2.2-9.7-5.7L163,144.5c-1.9-3.4-1.9-7.6,0-11l20.5-36.1
					c2-3.5,5.7-5.7,9.7-5.7h40.6c4,0,7.8,2.2,9.7,5.7l20.5,36.1c1.9,3.4,1.9,7.6,0,11l-20.5,36.1C241.6,184,237.9,186.2,233.9,186.2
					z M193.3,92.1c-3.9,0-7.5,2.1-9.4,5.5l-20.5,36.1c-1.8,3.3-1.8,7.3,0,10.6l20.5,36.1c1.9,3.4,5.5,5.5,9.4,5.5h40.6
					c3.9,0,7.5-2.1,9.4-5.5l20.5-36.1c1.8-3.3,1.8-7.3,0-10.6l-20.5-36.1c-1.9-3.4-5.5-5.5-9.4-5.5L193.3,92.1z"/>
				<path class="st11" d="M233.9,189.1h-42.6c-4.1,0-7.9-2.2-9.9-5.8l-21.5-37.8c-1.9-3.5-1.9-7.7,0-11.1l21.5-37.8
					c2-3.6,5.8-5.8,9.9-5.8h42.6c4.1,0,7.9,2.2,9.9,5.8l21.6,37.9c1.9,3.5,1.9,7.7,0,11.1l-21.5,37.8
					C241.8,186.9,238,189.1,233.9,189.1z M191.3,91.1c-4,0-7.6,2.1-9.6,5.6l-21.6,37.8c-1.9,3.4-1.9,7.4,0,10.8l21.6,37.8
					c1.9,3.5,5.6,5.6,9.6,5.6h42.6c4,0,7.6-2.1,9.6-5.6l21.5-37.8c1.9-3.3,1.9-7.4,0-10.8l-21.5-37.8c-1.9-3.5-5.6-5.6-9.6-5.6
					L191.3,91.1z"/>
				<path class="st11" d="M234,191.9h-44.7c-4.1,0-8-2.3-10-5.9l-22.6-39.6c-2-3.5-2-7.8,0-11.3l22.6-39.6c2-3.6,5.9-5.9,10-5.9H234
					c4.1,0,8,2.3,10,5.9l22.6,39.6c2,3.5,2,7.8,0,11.3L244,186.1C242,189.7,238.2,191.9,234,191.9z M189.4,90.1
					c-4,0-7.8,2.2-9.8,5.7l-22.5,39.6c-1.9,3.4-1.9,7.5,0,11l22.5,39.6c2,3.5,5.7,5.7,9.7,5.7H234c4,0,7.7-2.2,9.7-5.7l22.6-39.6
					c1.9-3.4,1.9-7.5,0-10.9l-22.5-39.6c-2-3.5-5.7-5.7-9.7-5.7H189.4z"/>
				<path class="st12" d="M234.1,194.8h-46.7c-4.2,0-8.1-2.3-10.2-5.9l-23.6-41.4c-2-3.6-2-7.9,0-11.5l23.6-41.4
					c2.1-3.7,6-5.9,10.2-5.9h46.7c4.2,0,8.1,2.3,10.2,5.9l23.6,41.4c2,3.6,2,7.9,0,11.5l-23.6,41.4
					C242.2,192.5,238.3,194.8,234.1,194.8z M187.4,89.1c-4.1,0-7.8,2.2-9.9,5.8l-23.6,41.3c-1.9,3.5-1.9,7.7,0,11.1l23.6,41.4
					c2,3.6,5.8,5.8,9.9,5.8h46.7c4.1,0,7.8-2.2,9.8-5.8l23.6-41.4c1.9-3.5,1.9-7.7,0-11.1L244,94.9c-2-3.6-5.8-5.8-9.8-5.8
					L187.4,89.1z"/>
				<path class="st13" d="M234.2,197.7h-48.8c-4.3,0-8.2-2.3-10.3-6l-24.6-43.1c-2-3.6-2-8,0-11.6l24.6-43.1c2.1-3.7,6.1-6,10.3-6
					h48.8c4.3,0,8.2,2.3,10.3,6l24.6,43.1c2,3.6,2,8,0,11.6l-24.6,43.1C242.4,195.4,238.5,197.7,234.2,197.7z M185.4,88.1
					c-4.1,0-8,2.2-10,5.8L150.8,137c-2,3.5-2,7.8,0,11.3l24.6,43.1c2,3.6,5.9,5.8,10,5.8h48.8c4.1,0,8-2.2,10-5.8l24.6-43.1
					c2-3.5,2-7.8,0-11.3L244.2,94c-2-3.6-5.9-5.8-10-5.8L185.4,88.1z"/>
				<path class="st14" d="M234.3,200.5h-50.8c-4.3,0-8.4-2.4-10.5-6.2l-25.6-44.9c-2.1-3.7-2.1-8.2,0-11.8L173,92.8
					c2.1-3.8,6.1-6.1,10.5-6.1h50.8c4.3,0,8.3,2.3,10.5,6.1l25.7,44.9c2.1,3.7,2.1,8.2,0,11.8l-25.7,44.9
					C242.7,198.2,238.7,200.5,234.3,200.5z M183.5,87.1c-4.2,0-8.1,2.3-10.1,5.9l-25.6,44.9c-2,3.6-2,7.9,0,11.4l25.6,44.9
					c2.1,3.6,5.9,5.9,10.1,5.9h50.8c4.2,0,8.1-2.3,10.1-5.9l25.6-44.8c2-3.6,2-7.9,0-11.4L244.4,93c-2.1-3.7-5.9-5.9-10.1-5.9
					L183.5,87.1z"/>
				<path class="st15" d="M234.4,203.4h-52.9c-4.4,0-8.5-2.4-10.6-6.2l-26.7-46.6c-2.1-3.7-2.1-8.3,0-12l26.7-46.6
					c2.2-3.8,6.2-6.2,10.6-6.2h52.9c4.4,0,8.5,2.4,10.6,6.2l26.7,46.6c2.1,3.7,2.1,8.3,0,12L245,197.2
					C242.9,201,238.8,203.4,234.4,203.4z M181.5,86.1c-4.3,0-8.2,2.3-10.3,6l-26.6,46.7c-2,3.6-2,8,0,11.6l26.7,46.6
					c2.1,3.7,6,6,10.3,6h52.9c4.3,0,8.2-2.3,10.3-6l26.7-46.6c2-3.6,2-8,0-11.6l-26.7-46.7c-2.1-3.7-6-6-10.3-6L181.5,86.1z"/>
				<path class="st16" d="M234.5,206.2h-54.9c-4.5,0-8.6-2.4-10.8-6.3l-27.7-48.4c-2.1-3.8-2.1-8.4,0-12.2L168.8,91
					c2.2-3.9,6.3-6.3,10.8-6.3h54.9c4.5,0,8.6,2.4,10.8,6.3l27.7,48.4c2.1,3.8,2.1,8.4,0,12.2L245.3,200
					C243.1,203.8,239,206.2,234.5,206.2z M179.6,85.1c-4.3,0-8.3,2.3-10.4,6.1l-27.7,48.4c-2.1,3.7-2.1,8.1,0,11.8l27.7,48.4
					c2.1,3.7,6.1,6.1,10.4,6.1h54.9c4.3,0,8.3-2.3,10.4-6.1l27.7-48.4c2.1-3.7,2.1-8.1,0-11.8l-27.7-48.4c-2.1-3.7-6.1-6.1-10.4-6.1
					L179.6,85.1z"/>
				<path class="st17" d="M234.6,209.1h-57c-4.5,0-8.7-2.4-10.9-6.4L138,152.6c-2.2-3.8-2.2-8.5,0-12.3L166.7,90
					c2.2-3.9,6.4-6.4,10.9-6.4h57c4.5,0,8.7,2.4,10.9,6.4l28.7,50.2c2.2,3.8,2.2,8.5,0,12.3l-28.7,50.2
					C243.3,206.7,239.1,209.1,234.6,209.1z M177.6,84.1c-4.4,0-8.4,2.4-10.6,6.2l-28.7,50.2c-2.1,3.7-2.1,8.2,0,11.9l28.7,50.2
					c2.2,3.8,6.2,6.1,10.6,6.1h57c4.4,0,8.4-2.4,10.5-6.2l28.7-50.2c2.1-3.7,2.1-8.2,0-11.9l-28.7-50.2c-2.1-3.8-6.2-6.2-10.5-6.2
					L177.6,84.1z"/>
				<path class="st17" d="M234.7,212h-59c-4.6,0-8.8-2.5-11.1-6.5l-29.7-51.9c-2.2-3.9-2.2-8.6,0-12.5l29.7-51.9
					c2.3-4,6.5-6.4,11.1-6.4h59c4.6,0,8.8,2.5,11.1,6.4l29.7,51.9c2.2,3.9,2.2,8.6,0,12.5l-29.7,51.9
					C243.5,209.5,239.3,212,234.7,212z M175.7,83.1c-4.4,0-8.5,2.4-10.7,6.2l-29.7,52c-2.1,3.8-2.1,8.3,0,12.1l29.7,51.9
					c2.2,3.9,6.3,6.2,10.7,6.2h59c4.4,0,8.5-2.4,10.7-6.2l29.7-52c2.1-3.8,2.1-8.3,0-12.1l-29.7-51.9c-2.2-3.9-6.3-6.2-10.7-6.2
					L175.7,83.1z"/>
				<path class="st18" d="M234.8,214.8h-61.1c-4.6,0-8.9-2.5-11.2-6.5l-30.8-53.7c-2.2-3.9-2.2-8.7,0-12.7l30.8-53.7
					c2.3-4,6.6-6.5,11.2-6.5h61.1c4.6,0,8.9,2.5,11.2,6.5l30.7,53.7c2.2,3.9,2.2,8.8,0,12.7L246,208.3
					C243.7,212.3,239.4,214.8,234.8,214.8z M173.7,82.1c-4.5,0-8.6,2.4-10.8,6.3l-30.8,53.7c-2.1,3.8-2.1,8.5,0,12.3l30.8,53.7
					c2.2,3.9,6.4,6.3,10.8,6.3h61.1c4.5,0,8.6-2.4,10.8-6.3l30.8-53.7c2.1-3.8,2.1-8.5,0-12.3l-30.8-53.7c-2.2-3.9-6.4-6.3-10.8-6.3
					L173.7,82.1z"/>
				<path class="st19" d="M234.9,217.7h-63.1c-4.7,0-9-2.5-11.4-6.6l-31.8-55.5c-2.3-4-2.3-8.9,0-12.9l31.8-55.5
					c2.3-4.1,6.7-6.6,11.4-6.6h63.1c4.7,0,9,2.5,11.4,6.6l31.8,55.5c2.3,4,2.3,8.9,0,12.9l-31.8,55.5
					C243.9,215.2,239.6,217.7,234.9,217.7z M171.7,81.1c-4.6,0-8.8,2.4-11,6.4L129,143c-2.2,3.9-2.2,8.6,0,12.4l31.8,55.5
					c2.2,4,6.4,6.4,11,6.4h63.1c4.6,0,8.8-2.4,11-6.4l31.7-55.5c2.2-3.9,2.2-8.6,0-12.4l-31.8-55.5c-2.2-4-6.4-6.4-11-6.4
					L171.7,81.1z"/>
				<path class="st20" d="M235,220.6h-65.2c-4.8,0-9.2-2.6-11.5-6.7l-32.8-57.2c-2.3-4-2.3-9,0-13l32.8-57.2
					c2.4-4.1,6.7-6.7,11.5-6.7H235c4.8,0,9.1,2.6,11.5,6.7l32.8,57.2c2.3,4,2.3,9,0,13l-32.8,57.2C244.1,218,239.7,220.6,235,220.6z
					 M169.8,80.1c-4.6,0-8.9,2.5-11.1,6.5l-32.8,57.2c-2.2,3.9-2.2,8.7,0,12.6l32.8,57.2c2.3,4,6.5,6.5,11.1,6.5H235
					c4.6,0,8.8-2.5,11.1-6.5l32.8-57.3c2.2-3.9,2.2-8.7,0-12.6l-32.8-57.2c-2.3-4-6.5-6.5-11.1-6.5L169.8,80.1z"/>
				<path class="st21" d="M235.1,223.4h-67.2c-4.8,0-9.3-2.6-11.6-6.8l-33.8-59c-2.3-4.1-2.3-9.1,0-13.2l33.8-59
					c2.4-4.2,6.8-6.8,11.6-6.8h67.2c4.8,0,9.3,2.6,11.6,6.7l33.8,59c2.3,4.1,2.3,9.1,0,13.2l-33.8,59
					C244.3,220.8,239.9,223.4,235.1,223.4z M167.8,79.1c-4.6,0-8.9,2.5-11.2,6.6l-33.8,59c-2.2,4-2.2,8.8,0,12.8l33.8,59
					c2.3,4,6.6,6.5,11.3,6.6h67.2c4.6,0,8.9-2.5,11.2-6.6l33.8-59c2.2-4,2.2-8.8,0-12.8l-33.8-59c-2.3-4-6.6-6.6-11.3-6.6
					L167.8,79.1z"/>
				<path class="st22" d="M235.1,226.3h-69.3c-4.9,0-9.4-2.7-11.8-6.9l-34.8-60.8c-2.3-4.2-2.3-9.2,0-13.4l34.8-60.8
					c2.4-4.2,6.9-6.9,11.8-6.9h69.3c4.9,0,9.4,2.6,11.8,6.9l34.8,60.8c2.3,4.2,2.3,9.2,0,13.4l-34.8,60.8
					C244.5,223.6,240,226.3,235.1,226.3z M165.9,78.1c-4.7,0-9.1,2.5-11.4,6.6l-34.9,60.8c-2.3,4-2.3,8.9,0,12.9l34.8,60.8
					c2.3,4.1,6.7,6.6,11.4,6.6h69.3c4.7,0,9.1-2.5,11.4-6.6l34.8-60.8c2.3-4,2.3-8.9,0-12.9l-34.8-60.8c-2.3-4.1-6.7-6.6-11.4-6.6
					L165.9,78.1z"/>
				<path class="st23" d="M235.2,229.1h-71.3c-4.9,0-9.5-2.7-12-7l-35.9-62.5c-2.4-4.2-2.4-9.3,0-13.5L152,83.6
					c2.4-4.3,7-6.9,11.9-6.9h71.3c5,0,9.6,2.7,12,7l35.9,62.5c2.4,4.2,2.4,9.3,0,13.5l-35.9,62.5
					C244.8,226.5,240.2,229.2,235.2,229.1z M163.9,77.1c-4.8,0-9.2,2.6-11.5,6.7l-35.9,62.6c-2.3,4.1-2.3,9,0,13.1l35.9,62.5
					c2.4,4.1,6.8,6.7,11.5,6.7h71.3c4.8,0,9.2-2.6,11.5-6.7l35.8-62.6c2.3-4.1,2.3-9,0-13l-35.9-62.5c-2.4-4.1-6.8-6.7-11.5-6.7
					L163.9,77.1z"/>
				<path class="st24" d="M235.3,232H162c-5,0-9.6-2.7-12.1-7L113,160.7c-2.4-4.3-2.4-9.5,0-13.7l36.9-64.3c2.5-4.3,7.1-7,12.1-7
					h73.4c5,0,9.6,2.7,12.1,7l36.9,64.3c2.4,4.3,2.4,9.5,0,13.7L247.4,225C244.9,229.3,240.3,232,235.3,232z M162,76.1
					c-4.8,0-9.3,2.6-11.7,6.8l-36.9,64.3c-2.3,4.1-2.3,9.1,0,13.3l36.9,64.3c2.4,4.2,6.8,6.8,11.7,6.8h73.4c4.8,0,9.3-2.6,11.7-6.8
					l36.9-64.3c2.3-4.1,2.3-9.1,0-13.3L247,82.9c-2.4-4.2-6.8-6.8-11.7-6.8L162,76.1z"/>
				<path class="st25" d="M235.4,234.9H160c-5.1,0-9.7-2.7-12.2-7.1l-37.9-66.1c-2.4-4.3-2.4-9.6,0-13.9l37.9-66.1
					c2.5-4.4,7.2-7.1,12.2-7.1h75.4c5.1,0,9.7,2.7,12.2,7.1l37.9,66.1c2.4,4.3,2.4,9.6,0,13.9l-37.9,66.1
					C245.2,232.1,240.5,234.9,235.4,234.9z M160,75.1c-4.9,0-9.4,2.6-11.8,6.9L110.3,148c-2.4,4.2-2.4,9.3,0,13.4l37.9,66.1
					c2.4,4.2,6.9,6.9,11.8,6.9h75.4c4.9,0,9.4-2.6,11.8-6.9l37.9-66.1c2.4-4.2,2.4-9.3,0-13.4l-37.9-66.1c-2.4-4.3-6.9-6.9-11.8-6.9
					L160,75.1z"/>
				<path class="st25" d="M235.5,237.7H158c-5.1,0-9.9-2.8-12.4-7.2l-38.9-67.8c-2.5-4.4-2.5-9.7,0-14.1l38.9-67.8
					c2.5-4.5,7.3-7.2,12.4-7.2h77.5c5.1,0,9.8,2.8,12.4,7.2l38.9,67.8c2.5,4.4,2.5,9.7,0,14.1l-38.9,67.8
					C245.4,235,240.6,237.7,235.5,237.7z M158,74.1c-5,0-9.6,2.7-12,7l-38.9,67.8c-2.4,4.2-2.4,9.4,0,13.6l38.9,67.8
					c2.4,4.3,7,7,12,7h77.5c5,0,9.6-2.7,12-7l38.9-67.8c2.4-4.2,2.4-9.4,0-13.6l-38.9-67.8c-2.4-4.3-7-7-12-7H158z"/>
				<path class="st26" d="M235.6,240.6h-79.5c-5.2,0-9.9-2.8-12.5-7.3l-40-69.6c-2.5-4.4-2.5-9.8,0-14.2l40-69.6
					c2.6-4.5,7.3-7.3,12.5-7.3h79.5c5.2,0,10,2.8,12.5,7.3l40,69.6c2.5,4.4,2.5,9.8,0,14.2l-40,69.6
					C245.6,237.8,240.8,240.6,235.6,240.6z M156.1,73.1c-5,0-9.6,2.7-12.1,7.1l-40,69.6c-2.4,4.3-2.4,9.5,0,13.8l40,69.6
					c2.5,4.3,7.1,7,12.1,7h79.5c5,0,9.6-2.7,12.1-7l39.9-69.6c2.4-4.3,2.4-9.5,0-13.8l-39.9-69.6c-2.5-4.3-7.1-7-12.1-7.1H156.1z"/>
				<path class="st27" d="M235.7,243.4h-81.6c-5.2,0-10.1-2.8-12.7-7.4l-41-71.4c-2.5-4.5-2.5-9.9,0-14.4l41-71.4
					c2.6-4.6,7.4-7.4,12.7-7.4h81.6c5.2,0,10.1,2.8,12.7,7.4l41,71.4c2.5,4.5,2.5,9.9,0,14.4l-41,71.4
					C245.8,240.6,240.9,243.4,235.7,243.4z M154.1,72.1c-5.1,0-9.7,2.7-12.2,7.1l-41,71.3c-2.4,4.3-2.4,9.6,0,13.9l41,71.4
					c2.5,4.4,7.2,7.1,12.2,7.1h81.6c5.1,0,9.7-2.7,12.2-7.1l41-71.4c2.4-4.3,2.4-9.6,0-13.9l-41-71.3c-2.5-4.4-7.2-7.1-12.2-7.1
					L154.1,72.1z"/>
				<path class="st28" d="M235.8,246.3h-83.6c-5.3,0-10.2-2.9-12.8-7.5l-42-73.1c-2.6-4.5-2.6-10.1,0-14.6l42-73.1
					c2.6-4.6,7.5-7.5,12.8-7.5h83.6c5.3,0,10.2,2.9,12.8,7.5l42,73.1c2.6,4.5,2.6,10.1,0,14.6l-42,73.1
					C246,243.5,241.1,246.3,235.8,246.3z M152.2,71.1c-5.1,0-9.8,2.8-12.4,7.2l-42,73.1c-2.5,4.4-2.5,9.7,0,14.1l42,73.1
					c2.5,4.5,7.3,7.2,12.4,7.2h83.6c5.1,0,9.9-2.8,12.4-7.2l42-73.1c2.5-4.4,2.5-9.7,0-14.1l-42-73.1c-2.5-4.5-7.3-7.2-12.4-7.2
					L152.2,71.1z"/>
				<path class="st29" d="M235.9,249.2h-85.7c-5.4,0-10.3-2.9-13-7.5l-43-74.9c-2.6-4.6-2.6-10.2,0-14.8l43-74.9
					c2.7-4.7,7.6-7.5,13-7.5h85.7c5.4,0,10.3,2.9,13,7.5l43,74.9c2.6,4.6,2.6,10.2,0,14.8l-43,74.9
					C246.2,246.3,241.3,249.2,235.9,249.2z M150.2,70.1c-5.2,0-10,2.8-12.5,7.3l-43,74.9c-2.5,4.4-2.5,9.8,0,14.3l43,74.9
					c2.6,4.5,7.4,7.3,12.5,7.3h85.7c5.2,0,10-2.8,12.5-7.3l43-74.9c2.5-4.4,2.5-9.8,0-14.3l-43-74.9c-2.6-4.5-7.4-7.3-12.5-7.3
					L150.2,70.1z"/>
				<path class="st30" d="M236,252h-87.7c-5.4,0-10.4-2.9-13.1-7.7l-44-76.7c-2.6-4.6-2.6-10.3,0-14.9l44-76.6
					c2.7-4.7,7.7-7.6,13.1-7.6H236c5.4,0,10.4,2.9,13.1,7.6l44,76.6c2.6,4.6,2.6,10.3,0,14.9l-44,76.7
					C246.4,249.1,241.4,252,236,252z M148.3,69c-5.2,0-10.1,2.8-12.6,7.4l-44,76.7c-2.5,4.5-2.5,10,0,14.4l44,76.6
					c2.6,4.5,7.4,7.4,12.7,7.4H236c5.2,0,10-2.8,12.6-7.4l44-76.6c2.5-4.5,2.5-10,0-14.4l-44-76.6c-2.6-4.5-7.4-7.4-12.7-7.4
					L148.3,69z"/>
				<path class="st31" d="M236.1,254.9h-89.8c-5.5,0-10.5-2.9-13.3-7.7L88,168.8c-2.7-4.7-2.7-10.4,0-15.1L133,75.2
					c2.7-4.8,7.8-7.7,13.3-7.7h89.8c5.5,0,10.5,3,13.3,7.7l45.1,78.4c2.7,4.7,2.7,10.4,0,15.1l-45.1,78.4
					C246.6,251.9,241.6,254.9,236.1,254.9z M146.3,68c-5.3,0-10.2,2.9-12.8,7.4l-45.1,78.4c-2.6,4.5-2.6,10.1,0,14.6l45.1,78.4
					c2.6,4.6,7.5,7.4,12.8,7.5h89.8c5.3,0,10.2-2.8,12.8-7.5l45.1-78.4c2.6-4.5,2.6-10.1,0-14.6l-45.1-78.4
					c-2.6-4.6-7.5-7.4-12.8-7.4H146.3z"/>
				<path class="st32" d="M236.2,257.8h-91.8c-5.5,0-10.7-3-13.4-7.8l-46.1-80.2c-2.7-4.7-2.7-10.5,0-15.3l46.1-80.1
					c2.7-4.8,7.9-7.8,13.4-7.8h91.8c5.6,0,10.7,3,13.4,7.8l46.1,80.2c2.7,4.7,2.7,10.5,0,15.3L249.6,250
					C246.8,254.8,241.7,257.8,236.2,257.8z M144.3,67.1c-5.4,0-10.3,2.9-13,7.5l-46,80.2c-2.6,4.6-2.6,10.2,0,14.8l46.1,80.2
					c2.7,4.7,7.6,7.5,13,7.5h91.8c5.4,0,10.3-2.9,13-7.5l46.1-80.2c2.6-4.6,2.6-10.2,0-14.8l-46.1-80.2c-2.7-4.7-7.6-7.5-13-7.5
					L144.3,67.1z"/>
				<path class="st33" d="M236.3,260.6h-93.9c-5.6,0-10.8-3-13.6-7.9l-47.1-82c-2.7-4.8-2.7-10.7,0-15.5l47.1-82
					c2.8-4.9,8-7.9,13.6-7.9h93.9c5.6,0,10.8,3,13.6,7.9l47.1,82c2.7,4.8,2.7,10.7,0,15.5l-47.1,82
					C247,257.6,241.8,260.6,236.3,260.6z M142.4,66c-5.4,0-10.4,2.9-13.1,7.6l-47.1,81.9c-2.6,4.6-2.6,10.3,0,14.9l47.1,81.9
					c2.7,4.7,7.7,7.6,13.1,7.6h93.9c5.4,0,10.4-2.9,13.1-7.6l47.1-81.9c2.6-4.6,2.6-10.3,0-14.9l-47.1-81.9
					c-2.7-4.7-7.7-7.6-13.1-7.6L142.4,66z"/>
				<path class="st33" d="M236.3,263.5h-95.9c-5.7,0-10.9-3.1-13.7-8l-48.1-83.7c-2.7-4.8-2.7-10.8,0-15.6l48.1-83.7
					c2.8-4.9,8-8,13.7-8h95.9c5.7,0,10.9,3.1,13.7,8l48.1,83.7c2.7,4.8,2.7,10.8,0,15.6l-48.1,83.7
					C247.2,260.4,242,263.5,236.3,263.5z M140.4,65c-5.5,0-10.5,2.9-13.2,7.7l-48.1,83.7c-2.6,4.7-2.6,10.4,0,15.1l48.1,83.7
					c2.7,4.7,7.8,7.7,13.2,7.7h95.9c5.5,0,10.5-2.9,13.3-7.7l48.1-83.7c2.7-4.7,2.7-10.4,0-15.1l-48.1-83.7
					c-2.7-4.7-7.8-7.7-13.2-7.7H140.4z"/>
				<path class="st34" d="M236.4,266.4h-98c-5.7,0-11-3.1-13.8-8.1l-49.1-85.5c-2.8-4.9-2.8-10.9,0-15.8l49.1-85.5
					c2.9-4.9,8.1-8,13.9-8h98c5.7,0,11,3.1,13.8,8l49.2,85.5c2.8,4.9,2.8,10.9,0,15.8l-49.2,85.5
					C247.5,263.3,242.2,266.4,236.4,266.4z M138.4,64.1c-5.5,0-10.6,3-13.4,7.8l-49.1,85.5c-2.7,4.7-2.7,10.5,0,15.3l49.1,85.5
					c2.7,4.8,7.8,7.8,13.4,7.8h98c5.5,0,10.6-3,13.4-7.8l49.2-85.5c2.7-4.7,2.7-10.5,0-15.2l-49.2-85.5c-2.7-4.8-7.8-7.8-13.4-7.8
					H138.4z"/>
				<path class="st35" d="M236.5,269.2h-100c-5.8,0-11.1-3.1-14-8.1l-50.2-87.2c-2.8-5-2.8-11,0-16l50.2-87.2c2.9-5,8.2-8.1,14-8.1
					h100c5.8,0,11.1,3.1,14,8.1l50.2,87.2c2.8,5,2.8,11,0,16l-50.2,87.2C247.7,266.1,242.3,269.2,236.5,269.2z M136.5,63
					c-5.6,0-10.7,3-13.5,7.8l-50.2,87.2c-2.7,4.8-2.7,10.6,0,15.4l50.2,87.2c2.8,4.9,7.9,7.8,13.5,7.9h100c5.6,0,10.7-3,13.5-7.9
					l50.2-87.2c2.7-4.8,2.7-10.6,0-15.4l-50.2-87.2c-2.8-4.9-7.9-7.8-13.5-7.9L136.5,63z"/>
				<path class="st36" d="M236.6,272.1h-102c-5.8,0-11.2-3.1-14.1-8.2l-51.2-89c-2.8-5-2.8-11.1,0-16.1l51.2-89
					c2.9-5.1,8.3-8.2,14.1-8.2h102c5.8,0,11.2,3.1,14.2,8.2l51.2,89c2.8,5,2.8,11.1,0,16.1l-51.2,89
					C247.8,268.9,242.4,272,236.6,272.1z M134.6,62c-5.6,0-10.8,3-13.6,7.9l-51.2,89c-2.7,4.8-2.7,10.7,0,15.6l51.2,89
					c2.8,4.9,8,7.9,13.7,8h102c5.6,0,10.9-3,13.7-7.9l51.2-89c2.7-4.8,2.7-10.7,0-15.6l-51.2-89c-2.8-4.9-8-7.9-13.7-8H134.6z"/>
				<path class="st37" d="M236.7,274.9H132.6c-5.9,0-11.4-3.2-14.3-8.3l-52.2-90.8c-2.9-5.1-2.9-11.3,0-16.3l52.2-90.8
					c2.9-5.1,8.4-8.3,14.3-8.3h104.1c5.9,0,11.4,3.2,14.3,8.3l52.2,90.8c2.9,5.1,2.9,11.3,0,16.3L251,266.6
					C248.1,271.8,242.6,274.9,236.7,274.9z M132.6,61c-5.7,0-11,3.1-13.8,8l-52.2,90.8c-2.8,4.9-2.8,10.9,0,15.8l52.2,90.8
					c2.8,4.9,8.1,8,13.8,8h104.1c5.7,0,11-3.1,13.8-8l52.2-90.8c2.8-4.9,2.8-10.9,0-15.8l-52.2-90.8c-2.8-4.9-8.1-8-13.8-8L132.6,61
					z"/>
				<path class="st38" d="M236.8,277.8H130.6c-6,0-11.5-3.2-14.4-8.4L63,176.9c-2.9-5.1-2.9-11.4,0-16.5l53.2-92.5
					c3-5.2,8.4-8.4,14.4-8.4h106.2c6,0,11.5,3.2,14.4,8.4l53.2,92.5c2.9,5.1,2.9,11.4,0,16.5l-53.2,92.5
					C248.3,274.6,242.8,277.8,236.8,277.8z M130.6,60c-5.8,0-11.1,3.1-13.9,8.1l-53.2,92.5c-2.8,4.9-2.8,11,0,15.9l53.2,92.5
					c2.9,5,8.2,8.1,13.9,8.1h106.2c5.8,0,11.1-3.1,13.9-8.1l53.2-92.5c2.8-4.9,2.8-11,0-15.9l-53.2-92.5c-2.9-5-8.2-8.1-13.9-8.1
					L130.6,60z"/>
				<path class="st39" d="M236.9,280.6H128.7c-6,0-11.6-3.2-14.6-8.5l-54.3-94.3c-2.9-5.2-2.9-11.5,0-16.7l54.3-94.3
					c3-5.2,8.6-8.5,14.6-8.5h108.2c6,0,11.6,3.2,14.6,8.5l54.3,94.3c2.9,5.2,2.9,11.5,0,16.7l-54.3,94.3
					C248.5,277.4,242.9,280.6,236.9,280.6z M128.7,59c-5.8,0-11.2,3.1-14.1,8.2l-54.3,94.3c-2.8,5-2.8,11.1,0,16.1l54.3,94.3
					c2.9,5,8.3,8.2,14.1,8.2h108.2c5.8,0,11.2-3.1,14.1-8.2l54.3-94.3c2.8-5,2.8-11.1,0-16.1L251,67.2c-2.9-5-8.3-8.2-14.1-8.2
					L128.7,59z"/>
				<path class="st40" d="M237,283.5H126.7c-6.1,0-11.7-3.3-14.7-8.5l-55.3-96.1c-3-5.2-3-11.6,0-16.8L112,66
					c3-5.3,8.6-8.5,14.7-8.6H237c6.1,0,11.7,3.3,14.7,8.6l55.3,96.1c3,5.2,3,11.6,0,16.8L251.7,275
					C248.7,280.2,243.1,283.5,237,283.5z M126.7,58c-5.9,0-11.3,3.2-14.2,8.2l-55.3,96.1c-2.9,5-2.9,11.2,0,16.2l55.3,96.1
					c2.9,5.1,8.3,8.2,14.2,8.3H237c5.9,0,11.3-3.2,14.2-8.3l55.3-96.1c2.9-5,2.9-11.2,0-16.2l-55.3-96.1c-2.9-5.1-8.3-8.2-14.2-8.2
					L126.7,58z"/>
				<path class="st41" d="M237.1,286.4H124.8c-6.1,0-11.8-3.3-14.9-8.6l-56.3-97.8c-3-5.3-3-11.7,0-17l56.3-97.8
					c3.1-5.3,8.7-8.6,14.9-8.6h112.3c6.1,0,11.8,3.3,14.9,8.6l56.3,97.8c3,5.3,3,11.7,0,17L252,277.7
					C248.9,283.1,243.2,286.4,237.1,286.4z M124.8,57c-5.9,0-11.4,3.2-14.4,8.3l-56.3,97.8c-2.9,5.1-2.9,11.3,0,16.4l56.3,97.8
					c3,5.1,8.4,8.3,14.4,8.3h112.3c5.9,0,11.4-3.2,14.4-8.3l56.3-97.8c2.9-5.1,2.9-11.3,0-16.4l-56.3-97.8c-3-5.1-8.4-8.3-14.4-8.3
					H124.8z"/>
				<path class="st41" d="M237.2,289.2H122.8c-6.2,0-11.9-3.3-15-8.7l-57.3-99.6c-3-5.3-3-11.9,0-17.2l57.3-99.6
					c3.1-5.4,8.8-8.7,15-8.7h114.4c6.2,0,11.9,3.3,15,8.7l57.3,99.6c3,5.3,3,11.9,0,17.2l-57.3,99.6
					C249.1,285.9,243.4,289.2,237.2,289.2z M122.8,56c-6,0-11.5,3.2-14.5,8.4L51,164c-2.9,5.1-2.9,11.4,0,16.6l57.3,99.6
					c3,5.2,8.5,8.4,14.5,8.4h114.4c6,0,11.5-3.2,14.5-8.4l57.3-99.6c2.9-5.1,2.9-11.4,0-16.6l-57.3-99.6c-3-5.2-8.5-8.4-14.5-8.4
					L122.8,56z"/>
				<path class="st42" d="M237.3,292.1H120.9c-6.3,0-12.1-3.4-15.2-8.8L47.3,181.9c-3.1-5.4-3.1-12,0-17.4l58.4-101.4
					c3.1-5.4,8.9-8.8,15.2-8.8h116.4c6.3,0,12.1,3.4,15.2,8.8l58.3,101.4c3.1,5.4,3.1,12,0,17.4l-58.3,101.4
					C249.3,288.7,243.5,292.1,237.3,292.1z M120.9,55c-6,0-11.6,3.2-14.6,8.5L47.9,164.9c-2.9,5.2-2.9,11.6,0,16.8L106.2,283
					c3,5.2,8.6,8.5,14.6,8.5h116.4c6,0,11.6-3.2,14.6-8.5l58.3-101.4c2.9-5.2,2.9-11.6,0-16.8L251.9,63.5c-3-5.2-8.6-8.5-14.6-8.5
					H120.9z"/>
				<path class="st43" d="M237.4,294.9H118.9c-6.3,0-12.1-3.4-15.3-8.9L44.2,182.9c-3.1-5.4-3.1-12.1,0-17.5l59.4-103.1
					c3.1-5.5,9-8.9,15.3-8.9h118.5c6.3,0,12.2,3.4,15.3,8.9l59.4,103.1c3.1,5.4,3.1,12.1,0,17.5l-59.4,103.2
					C249.5,291.6,243.7,294.9,237.4,294.9z M118.9,54c-6.1,0-11.7,3.3-14.8,8.6L44.7,165.7c-3,5.2-3,11.7,0,16.9l59.4,103.1
					c3,5.3,8.7,8.6,14.8,8.6h118.5c6.1,0,11.7-3.3,14.8-8.6l59.4-103.1c3-5.2,3-11.7,0-16.9L252.1,62.6c-3-5.3-8.7-8.6-14.8-8.6
					H118.9z"/>
				<path class="st43" d="M237.5,297.8H116.9c-6.4,0-12.3-3.4-15.5-9L41.1,184c-3.1-5.5-3.1-12.2,0-17.7l60.4-104.9
					c3.2-5.6,9.1-9,15.5-9h120.5c6.4,0,12.3,3.4,15.5,9l60.4,104.9c3.1,5.5,3.1,12.2,0,17.7l-60.4,104.9
					C249.7,294.4,243.8,297.8,237.5,297.8z M116.9,53c-6.2,0-11.9,3.3-14.9,8.6L41.6,166.6c-3,5.3-3,11.8,0,17.1L102,288.5
					c3.1,5.3,8.8,8.6,14.9,8.7h120.5c6.2,0,11.9-3.3,14.9-8.7l60.4-104.9c3-5.3,3-11.8,0-17.1L252.4,61.7c-3.1-5.3-8.8-8.6-14.9-8.6
					H116.9z"/>
				<path class="st44" d="M237.5,300.7H115c-6.5,0-12.4-3.5-15.6-9.1L38,185c-3.1-5.5-3.1-12.3,0-17.9L99.4,60.5
					c3.2-5.6,9.2-9.1,15.6-9.1h122.6c6.5,0,12.4,3.5,15.6,9.1l61.4,106.7c3.2,5.5,3.2,12.3,0,17.9l-61.4,106.6
					C250,297.2,244,300.7,237.5,300.7z M115,52c-6.2,0-12,3.3-15.1,8.7L38.5,167.4c-3,5.3-3,11.9,0,17.2l61.4,106.6
					c3.1,5.4,8.8,8.7,15.1,8.7h122.6c6.2,0,12-3.3,15.1-8.7L314,184.6c3-5.3,3-11.9,0-17.2L252.6,60.8c-3.1-5.4-8.8-8.7-15.1-8.7
					H115z"/>
				<path class="st44" d="M237.6,303.5H113c-6.5,0-12.5-3.5-15.8-9.2L34.8,186c-3.2-5.6-3.2-12.4,0-18L97.3,59.6
					c3.2-5.7,9.2-9.2,15.8-9.2h124.6c6.5,0,12.5,3.5,15.8,9.1l62.4,108.4c3.2,5.6,3.2,12.4,0,18l-62.4,108.4
					C250.2,300,244.1,303.5,237.6,303.5z M113,51c-6.3,0-12.1,3.4-15.2,8.8L35.4,168.3c-3.1,5.4-3.1,12,0,17.4l62.4,108.4
					c3.1,5.4,8.9,8.8,15.2,8.8h124.6c6.3,0,12.1-3.4,15.2-8.8l62.4-108.4c3.1-5.4,3.1-12,0-17.4L252.8,59.8
					c-3.1-5.4-8.9-8.8-15.2-8.8H113z"/>
				<path class="st45" d="M237.7,306.4H111.1c-6.6,0-12.6-3.5-15.9-9.2L31.7,187c-3.2-5.6-3.2-12.6,0-18.2L95.2,58.6
					c3.3-5.7,9.3-9.2,15.9-9.2h126.7c6.6,0,12.6,3.5,15.9,9.2l63.5,110.2c3.2,5.6,3.2,12.6,0,18.2l-63.5,110.2
					C250.3,302.9,244.3,306.4,237.7,306.4z M111.1,50c-6.3,0-12.2,3.4-15.3,8.9L32.3,169.1c-3.1,5.4-3.1,12.1,0,17.6l63.5,110.2
					c3.2,5.5,9,8.9,15.3,8.9h126.7c6.3,0,12.2-3.4,15.3-8.9l63.4-110.2c3.1-5.4,3.1-12.1,0-17.6L253.1,58.9c-3.2-5.5-9-8.9-15.3-8.9
					L111.1,50z"/>
				<path class="st46" d="M237.8,309.3H109.1c-6.6,0-12.8-3.6-16.1-9.3L28.6,188c-3.3-5.7-3.3-12.7,0-18.4L93.1,57.7
					c3.3-5.7,9.4-9.3,16.1-9.3h128.7c6.6,0,12.8,3.6,16.1,9.3l64.5,112c3.3,5.7,3.3,12.7,0,18.4l-64.5,112
					C250.5,305.8,244.4,309.3,237.8,309.3z M109.1,49c-6.4,0-12.3,3.4-15.5,9L29.1,169.9c-3.1,5.5-3.1,12.2,0,17.7l64.5,112
					c3.2,5.6,9.1,9,15.5,9h128.7c6.4,0,12.3-3.4,15.5-9l64.5-112c3.1-5.5,3.1-12.2,0-17.7L253.3,58c-3.2-5.6-9.1-9-15.5-9L109.1,49z
					"/>
				<path class="st47" d="M237.9,312.1H107.2c-6.7,0-12.9-3.6-16.2-9.4L25.5,189c-3.3-5.8-3.3-12.8,0-18.6L91,56.8
					c3.3-5.8,9.5-9.4,16.2-9.4h130.8c6.7,0,12.9,3.6,16.2,9.4l65.5,113.7c3.3,5.8,3.3,12.8,0,18.6l-65.5,113.7
					C250.8,308.5,244.6,312.1,237.9,312.1z M107.2,48c-6.5,0-12.4,3.5-15.6,9.1L26,170.8c-3.2,5.5-3.2,12.4,0,17.9l65.5,113.7
					c3.2,5.6,9.2,9.1,15.6,9.1h130.8c6.5,0,12.4-3.5,15.6-9.1l65.5-113.7c3.2-5.5,3.2-12.4,0-17.9L253.5,57.1
					c-3.2-5.6-9.2-9.1-15.6-9.1L107.2,48z"/>
				<path class="st48" d="M238,315H105.2c-6.7,0-13-3.6-16.3-9.5L22.3,190c-3.3-5.8-3.3-12.9,0-18.7L88.9,55.8
					c3.4-5.8,9.6-9.4,16.3-9.4H238c6.7,0,13,3.6,16.3,9.5l66.5,115.5c3.3,5.8,3.3,12.9,0,18.7l-66.5,115.5
					C251,311.4,244.8,315,238,315z M105.2,47c-6.5,0-12.5,3.5-15.8,9.1L22.9,171.6c-3.2,5.6-3.2,12.5,0,18.1l66.5,115.5
					c3.2,5.7,9.2,9.2,15.8,9.2H238c6.5,0,12.5-3.5,15.8-9.1l66.5-115.5c3.2-5.6,3.2-12.5,0-18.1L253.8,56.2
					c-3.2-5.6-9.3-9.1-15.8-9.1L105.2,47z"/>
				<path class="st49" d="M238.1,317.9H103.2c-6.8,0-13.1-3.7-16.5-9.6L19.2,191c-3.3-5.9-3.3-13,0-18.9L86.7,54.9
					c3.4-5.9,9.7-9.6,16.5-9.6h134.9c6.8,0,13.1,3.6,16.5,9.6l67.5,117.2c3.3,5.9,3.3,13,0,18.9l-67.5,117.2
					C251.2,314.2,244.9,317.8,238.1,317.9z M103.2,46c-6.6,0-12.6,3.5-15.9,9.2L19.8,172.5c-3.2,5.7-3.2,12.6,0,18.2l67.5,117.2
					c3.3,5.7,9.3,9.2,15.9,9.2h134.9c6.6,0,12.6-3.5,15.9-9.2l67.6-117.2c3.2-5.7,3.2-12.6,0-18.2L254,55.2
					c-3.3-5.7-9.3-9.2-15.9-9.2H103.2z"/>
				<path class="st50" d="M238.2,320.7H101.3c-6.9,0-13.2-3.7-16.7-9.6L16,192.1c-3.4-5.9-3.4-13.2,0-19.1L84.6,54
					c3.4-6,9.8-9.6,16.7-9.6h136.9c6.9,0,13.2,3.7,16.6,9.6l68.6,119c3.4,5.9,3.4,13.2,0,19.1l-68.6,119
					C251.4,317,245.1,320.7,238.2,320.7z M101.3,45c-6.6,0-12.7,3.6-16,9.3L16.7,173.4c-3.3,5.7-3.3,12.7,0,18.4l68.6,119
					c3.3,5.7,9.4,9.3,16,9.3h136.9c6.6,0,12.7-3.6,16-9.3l68.6-119c3.3-5.7,3.3-12.7,0-18.4l-68.6-119c-3.3-5.7-9.4-9.3-16-9.3
					L101.3,45z"/>
				<path class="st51" d="M238.3,323.6h-139c-6.9,0-13.3-3.7-16.8-9.7L12.9,193.1c-3.4-6-3.4-13.3,0-19.2L82.5,53.1
					c3.5-6,9.9-9.7,16.8-9.7h139c6.9,0,13.3,3.7,16.8,9.7l69.6,120.8c3.4,6,3.4,13.3,0,19.2l-69.6,120.7
					C251.6,319.9,245.2,323.6,238.3,323.6z M99.3,44c-6.7,0-12.8,3.6-16.1,9.4L13.5,174.2c-3.3,5.8-3.3,12.8,0,18.6l69.6,120.8
					c3.3,5.8,9.5,9.4,16.2,9.4h139c6.7,0,12.9-3.6,16.2-9.4l69.6-120.8c3.3-5.8,3.3-12.8,0-18.6L254.5,53.4
					c-3.3-5.8-9.5-9.4-16.2-9.4L99.3,44z"/>
				<path class="st52" d="M238.4,326.4h-141c-7,0-13.5-3.7-16.9-9.8L9.8,194.1c-3.4-6-3.4-13.4,0-19.4L80.4,52.1
					c3.5-6.1,9.9-9.8,16.9-9.8h141c7,0,13.4,3.8,16.9,9.8l70.6,122.5c3.4,6,3.4,13.4,0,19.4l-70.6,122.5
					C251.8,322.7,245.4,326.4,238.4,326.4z M97.4,43c-6.7,0-13,3.6-16.3,9.5L10.4,175c-3.3,5.8-3.3,12.9,0,18.7L81,316.3
					c3.4,5.8,9.6,9.5,16.3,9.5h141c6.7,0,13-3.6,16.3-9.5l70.6-122.5c3.3-5.8,3.3-12.9,0-18.7L254.7,52.5c-3.4-5.8-9.6-9.5-16.3-9.5
					L97.4,43z"/>
				<path class="st53" d="M238.5,329.3H95.4c-7.1,0-13.6-3.8-17.1-9.9L6.7,195.1c-3.5-6.1-3.5-13.5,0-19.6L78.3,51.2
					c3.5-6.1,10-9.9,17.1-9.9h143.1c7.1,0,13.6,3.8,17.1,9.9l71.6,124.3c3.5,6.1,3.5,13.5,0,19.6l-71.6,124.3
					C252.1,325.5,245.5,329.3,238.5,329.3z M95.4,42c-6.8,0-13.1,3.6-16.5,9.5L7.3,175.9c-3.4,5.9-3.4,13,0,18.9L78.9,319
					c3.4,5.9,9.7,9.5,16.5,9.5h143.1c6.8,0,13.1-3.6,16.5-9.5l71.7-124.3c3.3-5.9,3.3-13,0-18.9L255,51.6c-3.4-5.9-9.7-9.5-16.5-9.5
					L95.4,42z"/>
				<path class="st54" d="M238.6,332.1H93.5c-7.1,0-13.7-3.8-17.2-10l-72.6-126c-3.5-6.1-3.5-13.6,0-19.7L76.2,50.3
					c3.5-6.2,10.1-10,17.2-10h145.1c7.1,0,13.7,3.8,17.2,10l72.6,126.1c3.5,6.1,3.5,13.6,0,19.8l-72.7,126
					C252.2,328.3,245.7,332.1,238.6,332.1z M93.5,41c-6.9,0-13.2,3.7-16.6,9.6L4.2,176.7c-3.4,5.9-3.4,13.2,0,19.1l72.7,126.1
					c3.4,5.9,9.8,9.6,16.6,9.6h145.2c6.9,0,13.2-3.7,16.6-9.6l72.7-126.1c3.4-5.9,3.4-13.2,0-19.1L255.2,50.6
					c-3.4-5.9-9.7-9.6-16.6-9.6H93.5z"/>
				<path class="st55" d="M238.7,335H91.5c-7.2,0-13.8-3.8-17.4-10.1L0.4,197.1c-3.5-6.2-3.5-13.8,0-19.9L74.1,49.4
					c3.6-6.2,10.2-10.1,17.4-10.1h147.2c7.2,0,13.8,3.8,17.4,10.1l73.7,127.8c3.5,6.2,3.5,13.8,0,19.9L256,324.9
					C252.5,331.2,245.8,335,238.7,335z M91.5,40c-6.9,0-13.3,3.7-16.8,9.7L1.1,177.5c-3.4,6-3.4,13.3,0,19.2l73.7,127.8
					c3.5,6,9.8,9.7,16.8,9.7h147.2c6.9,0,13.3-3.7,16.8-9.7l73.7-127.8c3.4-6,3.4-13.3,0-19.2L255.4,49.7c-3.5-6-9.8-9.7-16.8-9.7
					L91.5,40z"/>
				<path class="st55" d="M238.8,337.9H89.5c-7.2,0-13.9-3.9-17.5-10.1L-2.7,198.1c-3.6-6.2-3.6-13.9,0-20.1L72,48.4
					c3.6-6.3,10.3-10.1,17.5-10.1h149.2c7.2,0,13.9,3.9,17.5,10.1L331,178c3.6,6.2,3.6,13.9,0,20.1l-74.7,129.6
					C252.7,334,246,337.9,238.8,337.9z M89.5,39c-7,0-13.4,3.7-16.9,9.8L-2.1,178.4c-3.4,6-3.4,13.4,0,19.4l74.7,129.6
					c3.5,6,9.9,9.8,16.9,9.8h149.3c7,0,13.4-3.8,16.8-9.8l74.7-129.6c3.4-6,3.4-13.4,0-19.4L255.6,48.8c-3.5-6-9.9-9.8-16.9-9.8
					H89.5z"/>
				<path class="st56" d="M238.8,340.7H87.6c-7.3,0-14-3.9-17.7-10.2L-5.8,199.1c-3.6-6.3-3.6-14,0-20.3L69.9,47.5
					c3.6-6.3,10.4-10.2,17.7-10.2h151.2c7.3,0,14,3.9,17.7,10.2l75.7,131.4c3.6,6.3,3.6,14,0,20.3l-75.7,131.4
					C252.9,336.8,246.1,340.7,238.8,340.7z M87.6,38c-7,0-13.5,3.8-17,9.9L-5.2,179.2c-3.5,6.1-3.5,13.5,0,19.6l75.7,131.4
					c3.5,6.1,10,9.8,17,9.9h151.3c7,0,13.5-3.8,17-9.9l75.8-131.4c3.5-6.1,3.5-13.5,0-19.6L255.9,47.9c-3.5-6.1-10-9.8-17-9.9H87.6z
					"/>
				<path class="st57" d="M238.9,343.6H85.6c-7.4,0-14.1-3.9-17.8-10.3L-8.9,200.2c-3.6-6.3-3.6-14.1,0-20.5L67.8,46.6
					c3.7-6.4,10.4-10.3,17.8-10.3h153.3c7.4,0,14.1,3.9,17.8,10.3l76.7,133.1c3.6,6.3,3.6,14.1,0,20.5l-76.7,133.1
					C253.1,339.7,246.3,343.6,238.9,343.6z M85.6,37c-7.1,0-13.6,3.8-17.2,9.9L-8.3,180.1c-3.5,6.1-3.5,13.6,0,19.7l76.7,133.1
					c3.5,6.1,10.1,9.9,17.2,9.9h153.3c7.1,0,13.6-3.8,17.2-9.9l76.7-133.1c3.5-6.1,3.5-13.6,0-19.7L256.1,46.9
					c-3.5-6.1-10.1-9.9-17.2-9.9H85.6z"/>
				<path class="st57" d="M239,346.5H83.7c-7.4,0-14.3-4-18-10.4l-77.7-134.9c-3.7-6.4-3.7-14.2,0-20.6L65.7,45.7
					c3.7-6.4,10.6-10.4,18-10.4H239c7.4,0,14.3,4,18,10.4l77.8,134.9c3.7,6.4,3.7,14.2,0,20.6L257,336.1
					C253.3,342.5,246.4,346.5,239,346.5z M83.7,36c-7.1,0-13.7,3.8-17.3,10l-77.8,134.9c-3.5,6.2-3.5,13.7,0,19.9l77.8,134.9
					c3.6,6.2,10.2,10,17.3,10H239c7.1,0,13.7-3.8,17.3-10l77.8-134.9c3.5-6.2,3.5-13.7,0-19.9L256.3,46c-3.6-6.2-10.2-10-17.3-10
					L83.7,36z"/>
				<path class="st58" d="M239.1,349.4H81.7c-7.5,0-14.4-4-18.1-10.5l-78.8-136.6c-3.7-6.4-3.7-14.4,0-20.8L63.6,44.7
					c3.7-6.5,10.6-10.5,18.1-10.5h157.4c7.5,0,14.4,4,18.1,10.5L336,181.4c3.7,6.4,3.7,14.4,0,20.8l-78.8,136.6
					C253.5,345.3,246.6,349.3,239.1,349.4z M81.7,35c-7.2,0-13.9,3.9-17.5,10.1l-78.8,136.6c-3.6,6.2-3.6,13.8,0,20.1l78.8,136.7
					c3.6,6.2,10.3,10.1,17.5,10.1h157.4c7.2,0,13.9-3.9,17.5-10.1l78.8-136.7c3.6-6.2,3.6-13.8,0-20.1L256.6,45.1
					C253,38.9,246.4,35,239.2,35H81.7z"/>
				<path class="st59" d="M239.2,352.2H79.8c-7.5,0-14.5-4-18.3-10.6l-79.8-138.4c-3.7-6.5-3.7-14.5,0-21L61.5,43.8
					c3.8-6.5,10.7-10.6,18.3-10.6h159.5c7.5,0,14.5,4,18.2,10.6l79.8,138.4c3.7,6.5,3.7,14.5,0,21l-79.8,138.4
					C253.7,348.1,246.7,352.2,239.2,352.2z M79.8,34c-7.3,0-14,3.9-17.6,10.2l-79.8,138.4c-3.6,6.3-3.6,14,0,20.2l79.8,138.4
					c3.6,6.3,10.3,10.2,17.6,10.2h159.5c7.3,0,14-3.9,17.6-10.2l79.8-138.4c3.6-6.3,3.6-14,0-20.2L256.8,44.2
					c-3.6-6.3-10.3-10.2-17.6-10.2H79.8z"/>
				<path class="st60" d="M239.3,355H77.8c-7.6,0-14.6-4.1-18.4-10.7l-80.8-140.2c-3.7-6.6-3.7-14.6,0-21.1L59.4,42.9
					c3.8-6.6,10.8-10.6,18.4-10.6h161.5c7.6,0,14.6,4.1,18.4,10.6l80.8,140.2c3.7,6.6,3.7,14.6,0,21.1l-80.8,140.2
					C253.9,351,246.9,355,239.3,355z M77.8,33c-7.3,0-14.1,3.9-17.7,10.3l-80.8,140.2c-3.6,6.3-3.6,14.1,0,20.4L60.1,344
					c3.7,6.3,10.4,10.3,17.7,10.3h161.5c7.3,0,14.1-3.9,17.7-10.3l80.8-140.2c3.6-6.3,3.6-14.1,0-20.4L257,43.3
					c-3.7-6.3-10.4-10.3-17.7-10.3H77.8z"/>
				<path class="st61" d="M239.4,357.9H75.8c-7.7,0-14.7-4.1-18.5-10.7l-81.9-141.9c-3.8-6.6-3.8-14.7,0-21.3L57.3,42
					c3.8-6.6,10.9-10.7,18.5-10.7h163.5c7.7,0,14.7,4.1,18.5,10.7l81.9,141.9c3.8,6.6,3.8,14.7,0,21.3l-81.9,142
					C254.1,353.8,247,357.9,239.4,357.9z M75.8,32c-7.4,0-14.2,4-17.9,10.4l-81.9,141.9c-3.7,6.4-3.7,14.2,0,20.6l81.9,142
					c3.7,6.4,10.5,10.3,17.9,10.3h163.5c7.4,0,14.2-3.9,17.9-10.3l81.9-141.9c3.7-6.4,3.7-14.2,0-20.6l-81.9-142
					C253.6,36,246.8,32,239.4,32L75.8,32z"/>
				<path class="st62" d="M239.5,360.8H73.9c-7.7,0-14.8-4.1-18.7-10.8l-82.9-143.7c-3.8-6.7-3.8-14.8,0-21.5L55.2,41
					c3.9-6.7,11-10.8,18.7-10.8h165.6c7.7,0,14.8,4.1,18.7,10.8l82.9,143.7c3.8,6.7,3.8,14.8,0,21.5l-82.9,143.7
					C254.3,356.6,247.2,360.8,239.5,360.8z M73.9,31c-7.4,0-14.3,4-18,10.4L-27,185.1c-3.7,6.4-3.7,14.3,0,20.7l82.9,143.7
					c3.7,6.4,10.6,10.4,18,10.4h165.6c7.4,0,14.3-4,18-10.4l82.9-143.7c3.7-6.4,3.7-14.3,0-20.7L257.5,41.4
					c-3.7-6.4-10.6-10.4-18-10.4L73.9,31z"/>
				<path class="st63" d="M239.6,363.6H71.9c-7.8,0-15-4.2-18.8-10.9l-83.9-145.5c-3.9-6.7-3.9-15,0-21.7L53.1,40.1
					c3.9-6.7,11.1-10.9,18.8-10.9h167.7c7.8,0,15,4.2,18.8,10.9l83.9,145.5c3.9,6.7,3.9,15,0,21.7l-83.9,145.5
					C254.6,359.5,247.4,363.6,239.6,363.6z M71.9,30c-7.5,0-14.4,4-18.2,10.5L-30.1,186c-3.7,6.5-3.7,14.4,0,20.9l83.9,145.5
					c3.7,6.5,10.7,10.5,18.2,10.5h167.7c7.5,0,14.4-4,18.1-10.5l83.9-145.5c3.7-6.5,3.7-14.4,0-20.9L257.7,40.5
					C254,34,247.1,30,239.6,30H71.9z"/>
				<path class="st64" d="M239.7,366.5H70c-7.8,0-15.1-4.2-19-11l-84.9-147.2c-3.9-6.8-3.9-15.1,0-21.8L51,39.2
					c3.9-6.8,11.2-11,19-11h169.7c7.8,0,15.1,4.2,19,11l84.9,147.2c3.9,6.8,3.9,15.1,0,21.8l-84.9,147.3
					C254.7,362.3,247.5,366.5,239.7,366.5z M70,29c-7.6,0-14.5,4-18.3,10.6l-84.9,147.2c-3.7,6.5-3.7,14.5,0,21.1l84.9,147.2
					c3.8,6.5,10.8,10.6,18.3,10.6h169.7c7.6,0,14.5-4,18.3-10.6l84.9-147.2c3.7-6.5,3.7-14.5,0-21.1L258,39.6
					C254.2,33,247.2,29,239.7,29H70z"/>
				<path class="st64" d="M239.8,369.4H68c-7.9,0-15.2-4.2-19.1-11.1l-85.9-149c-3.9-6.8-3.9-15.2,0-22l85.9-149
					c3.9-6.8,11.2-11.1,19.1-11.1h171.7c7.9,0,15.2,4.2,19.1,11.1l86,149c3.9,6.8,3.9,15.2,0,22l-86,149
					C255,365.1,247.7,369.4,239.8,369.4z M68,28c-7.6,0-14.6,4.1-18.4,10.7l-86,149c-3.8,6.6-3.8,14.6,0,21.2l85.9,149
					c3.8,6.6,10.8,10.7,18.5,10.7h171.8c7.6,0,14.6-4.1,18.4-10.7l85.9-149c3.8-6.6,3.8-14.6,0-21.2l-85.9-149
					c-3.8-6.6-10.8-10.7-18.4-10.7L68,28z"/>
				<path class="st65" d="M239.9,372.2H66.1c-8,0-15.3-4.3-19.3-11.1l-87-150.8c-3.9-6.9-3.9-15.3,0-22.2l87-150.8
					c4-6.9,11.3-11.1,19.3-11.2h173.8c8,0,15.3,4.3,19.3,11.2l87,150.8c3.9,6.9,3.9,15.3,0,22.2l-87,150.8
					C255.1,368,247.8,372.2,239.9,372.2z M66.1,27c-7.7,0-14.7,4.1-18.6,10.8l-87,150.8c-3.8,6.6-3.8,14.8,0,21.4l87,150.8
					c3.8,6.6,10.9,10.7,18.6,10.7h173.8c7.7,0,14.8-4.1,18.6-10.8l87-150.8c3.8-6.6,3.8-14.8,0-21.4l-87-150.8
					c-3.8-6.6-10.9-10.7-18.6-10.8L66.1,27z"/>
				<path class="st66" d="M240,375.1H64.1c-8,0-15.4-4.3-19.4-11.2l-88-152.5c-4-6.9-4-15.4,0-22.4l88-152.5
					c4-6.9,11.4-11.2,19.4-11.2H240c8,0,15.4,4.3,19.4,11.2l88,152.5c4,6.9,4,15.4,0,22.4l-88,152.5
					C255.4,370.8,248,375.1,240,375.1z M64.1,26c-7.7,0-14.9,4.1-18.7,10.8l-88,152.6c-3.8,6.7-3.8,14.9,0,21.6l88,152.5
					c3.9,6.7,11,10.8,18.7,10.8H240c7.7,0,14.9-4.1,18.7-10.8l88-152.5c3.8-6.7,3.8-14.9,0-21.6l-88-152.5
					c-3.9-6.7-11-10.8-18.7-10.8L64.1,26z"/>
				<path class="st66" d="M240,377.9H62.1c-8.1,0-15.5-4.3-19.5-11.3l-89-154.3c-4-7-4-15.6,0-22.5l89-154.3
					c4-7,11.5-11.3,19.6-11.3h177.9c8.1,0,15.5,4.3,19.5,11.3l89,154.3c4,7,4,15.6,0,22.5l-89,154.3
					C255.6,373.6,248.1,377.9,240,377.9z M62.1,24.9c-7.8,0-15,4.2-18.9,10.9l-89,154.3c-3.9,6.7-3.9,15,0,21.7l89,154.3
					c3.9,6.7,11.1,10.9,18.9,10.9H240c7.8,0,15-4.2,18.9-10.9l89-154.3c3.8-6.7,3.8-15,0-21.7l-89-154.3C255,29.1,247.8,25,240,24.9
					L62.1,24.9z"/>
				<path class="st67" d="M240.1,380.8h-180c-8.1,0-15.7-4.4-19.7-11.4l-90-156c-4-7-4-15.7,0-22.7l90-156.1
					c4.1-7,11.6-11.4,19.7-11.4h180c8.1,0,15.7,4.4,19.7,11.4l90,156.1c4,7,4,15.7,0,22.7l-90,156
					C255.8,376.4,248.3,380.8,240.1,380.8z M60.2,24c-7.8,0-15.1,4.2-19,11l-90,156.1c-3.9,6.8-3.9,15.1,0,21.9l90,156.1
					c3.9,6.8,11.2,11,19,11h180c7.8,0,15.1-4.2,19-11l90-156.1c3.9-6.8,3.9-15.1,0-21.9L259.2,35c-3.9-6.8-11.2-11-19-11H60.2z"/>
				<path class="st68" d="M240.2,383.7h-182c-8.2,0-15.8-4.4-19.9-11.5l-91.1-157.8c-4.1-7.1-4.1-15.8,0-22.9L38.4,33.7
					c4.1-7.1,11.7-11.5,19.9-11.5h182c8.2,0,15.8,4.4,19.9,11.5l91,157.8c4.1,7.1,4.1,15.8,0,22.9l-91,157.8
					C256,379.3,248.4,383.7,240.2,383.7z M58.2,23C50.3,23,43,27.2,39.1,34L-52,191.9c-3.9,6.8-3.9,15.2,0,22l91.1,157.8
					c4,6.8,11.2,11.1,19.1,11.1h182c7.9,0,15.2-4.2,19.2-11.1l91.1-157.8c3.9-6.8,3.9-15.2,0-22L259.4,34
					c-4-6.8-11.2-11.1-19.2-11.1H58.2z"/>
				<path class="st69" d="M240.3,386.5h-184c-8.3,0-15.9-4.4-20-11.6l-92.1-159.6c-4.1-7.1-4.1-15.9,0-23L36.3,32.7
					c4.1-7.1,11.7-11.6,20-11.6h184.1c8.3,0,15.9,4.4,20,11.6l92.1,159.6c4.1,7.1,4.1,15.9,0,23L260.3,375
					C256.2,382.1,248.6,386.5,240.3,386.5z M56.3,22c-8,0-15.3,4.3-19.3,11.1l-92.1,159.6c-4,6.9-4,15.3,0,22.2L37,374.5
					c4,6.9,11.3,11.1,19.3,11.1h184c8,0,15.3-4.3,19.3-11.1l92.1-159.6c3.9-6.9,3.9-15.3,0-22.2L259.6,33.1
					c-4-6.9-11.3-11.1-19.3-11.1H56.3z"/>
				<path class="st70" d="M240.4,389.4H54.3c-8.3,0-16-4.5-20.2-11.7L-59,216.4c-4.1-7.2-4.1-16,0-23.2L34.1,31.8
					c4.2-7.2,11.8-11.6,20.2-11.7h186.1c8.3,0,16,4.4,20.2,11.7l93.1,161.4c4.1,7.2,4.1,16,0,23.2l-93.1,161.4
					C256.4,384.9,248.7,389.4,240.4,389.4z M54.3,21c-8,0-15.4,4.3-19.4,11.2l-93.1,161.4c-4,6.9-4,15.5,0,22.4l93.1,161.4
					c4,6.9,11.4,11.2,19.4,11.2h186.1c8,0,15.4-4.3,19.4-11.2l93.1-161.4c4-6.9,4-15.5,0-22.4L259.8,32.2
					c-4-6.9-11.4-11.2-19.4-11.2H54.3z"/>
				<path class="st71" d="M240.5,392.2H52.4c-8.4,0-16.1-4.5-20.3-11.7l-94.1-163.1c-4.2-7.2-4.2-16.2,0-23.4L32,30.8
					c4.2-7.3,11.9-11.7,20.3-11.7h188.2c8.4,0,16.1,4.5,20.3,11.7L354.9,194c4.1,7.2,4.1,16.2,0,23.4l-94.1,163.1
					C256.6,387.8,248.9,392.2,240.5,392.2z M52.4,20c-8.1,0-15.5,4.3-19.6,11.3l-94.1,163.1c-4,7-4,15.6,0,22.5l94.1,163.2
					c4,7,11.5,11.3,19.6,11.3h188.2c8.1,0,15.5-4.3,19.6-11.3l94.1-163.1c4-7,4-15.6,0-22.5L260.1,31.3c-4-7-11.5-11.3-19.6-11.3
					H52.4z"/>
				<path class="st72" d="M240.6,395.1H50.4c-8.4,0-16.2-4.5-20.5-11.8l-95.1-164.9c-4.2-7.3-4.2-16.3,0-23.6L29.9,29.9
					c4.2-7.3,12-11.8,20.5-11.8h190.2c8.4,0,16.2,4.5,20.5,11.8l95.1,164.9c4.2,7.3,4.2,16.3,0,23.6l-95.1,164.9
					C256.8,390.6,249,395.1,240.6,395.1z M50.4,19c-8.1,0-15.6,4.4-19.7,11.4l-95.1,164.9c-4,7-4,15.7,0,22.7l95.1,164.9
					c4.1,7,11.6,11.4,19.7,11.4h190.2c8.1,0,15.6-4.4,19.7-11.4L355.5,218c4-7,4-15.7,0-22.7L260.3,30.4c-4.1-7-11.6-11.4-19.7-11.4
					H50.4z"/>
				<path class="st73" d="M240.7,398H48.4c-8.5,0-16.4-4.6-20.6-11.9l-96.2-166.7c-4.2-7.4-4.2-16.4,0-23.7L27.8,29
					c4.3-7.4,12.1-11.9,20.6-11.9h192.3c8.5,0,16.3,4.6,20.6,11.9l96.2,166.7c4.2,7.4,4.2,16.4,0,23.7l-96.2,166.7
					C257,393.4,249.2,398,240.7,398z M48.4,18c-8.2,0-15.7,4.4-19.8,11.5l-96.2,166.6c-4.1,7.1-4.1,15.8,0,22.9l96.2,166.6
					c4.1,7.1,11.7,11.5,19.9,11.5h192.2c8.2,0,15.7-4.4,19.8-11.5L356.7,219c4.1-7.1,4.1-15.8,0-22.9L260.5,29.4
					c-4.1-7.1-11.7-11.5-19.8-11.5L48.4,18z"/>
				<path class="st74" d="M240.8,400.8H46.5c-8.6,0-16.5-4.6-20.7-12l-97.2-168.4c-4.3-7.4-4.3-16.5,0-23.9L25.7,28.1
					c4.3-7.4,12.2-12,20.7-12h194.3c8.6,0,16.5,4.6,20.7,12l97.2,168.4c4.3,7.4,4.3,16.5,0,23.9l-97.2,168.4
					C257.2,396.2,249.3,400.8,240.8,400.8z M46.5,17c-8.3,0-15.9,4.4-20,11.6l-97.2,168.4c-4.1,7.1-4.1,15.9,0,23l97.2,168.4
					c4.1,7.1,11.8,11.5,20,11.5h194.3c8.2,0,15.9-4.4,20-11.5L358,220c4.1-7.1,4.1-15.9,0-23L260.8,28.5c-4.1-7.1-11.7-11.5-20-11.6
					H46.5z"/>
				<path class="st75" d="M240.9,403.7H44.5c-8.6,0-16.6-4.6-20.9-12.1l-98.2-170.2c-4.3-7.5-4.3-16.6,0-24.1L23.6,27.2
					c4.3-7.5,12.3-12.1,20.9-12.1h196.4c8.6,0,16.6,4.6,20.9,12.1L360,197.4c4.3,7.5,4.3,16.6,0,24.1l-98.2,170.1
					C257.5,399.1,249.5,403.7,240.9,403.7z M44.5,16c-8.3,0-16,4.4-20.1,11.6l-98.2,170.2c-4.1,7.2-4.1,16,0,23.2l98.2,170.2
					c4.2,7.2,11.8,11.6,20.1,11.6h196.4c8.3,0,16-4.4,20.1-11.6L359.2,221c4.1-7.2,4.1-16,0-23.2L261,27.6
					c-4.2-7.2-11.8-11.6-20.1-11.6H44.5z"/>
				<path class="st76" d="M241,406.5H42.6c-8.7,0-16.7-4.6-21.1-12.2l-99.2-171.9c-4.3-7.5-4.3-16.8,0-24.3L21.5,26.2
					c4.4-7.5,12.4-12.2,21.1-12.2H241c8.7,0,16.7,4.7,21,12.2l99.2,172c4.3,7.5,4.3,16.8,0,24.3L262,394.4
					C257.7,401.9,249.6,406.5,241,406.5z M42.6,15c-8.4,0-16.1,4.5-20.3,11.7l-99.2,172c-4.2,7.2-4.2,16.1,0,23.4L22.3,394
					c4.2,7.2,11.9,11.7,20.3,11.7H241c8.4,0,16.1-4.5,20.3-11.7L360.5,222c4.2-7.2,4.2-16.1,0-23.4L261.2,26.7
					C257,19.4,249.3,15,241,15L42.6,15z"/>
				<path class="st77" d="M241.1,409.4H40.6c-8.7,0-16.8-4.7-21.2-12.2L-80.8,223.4c-4.3-7.6-4.3-16.9,0-24.4L19.4,25.3
					c4.4-7.6,12.4-12.2,21.2-12.2h200.5c8.7,0,16.8,4.7,21.2,12.2L362.5,199c4.3,7.6,4.3,16.9,0,24.4L262.3,397.2
					C257.9,404.7,249.8,409.4,241.1,409.4z M40.6,14c-8.4,0-16.2,4.5-20.4,11.8L-80.1,199.5c-4.2,7.3-4.2,16.3,0,23.5L20.2,396.7
					c4.2,7.3,12,11.8,20.4,11.8h200.5c8.4,0,16.2-4.5,20.4-11.8L361.7,223c4.2-7.3,4.2-16.3,0-23.5L261.5,25.8
					c-4.2-7.3-12-11.8-20.4-11.8L40.6,14z"/>
				<path class="st78" d="M241.2,412.3H38.7c-8.8,0-16.9-4.7-21.3-12.3L-84,224.5c-4.4-7.6-4.4-17,0-24.6L17.3,24.4
					c4.4-7.6,12.5-12.3,21.3-12.3h202.5c8.8,0,16.9,4.7,21.3,12.3l101.3,175.5c4.4,7.6,4.4,17,0,24.6L262.5,399.9
					C258.1,407.6,250,412.3,241.2,412.3z M38.7,13c-8.5,0-16.3,4.5-20.6,11.9L-83.2,200.3c-4.2,7.3-4.2,16.4,0,23.7L18.1,399.5
					c4.2,7.3,12.1,11.9,20.6,11.9h202.5c8.5,0,16.3-4.5,20.6-11.9L363,224c4.2-7.3,4.2-16.4,0-23.7L261.7,24.8
					c-4.2-7.3-12.1-11.9-20.6-11.9L38.7,13z"/>
				<path class="st79" d="M241.2,415.1H36.7c-8.9,0-17.1-4.7-21.5-12.4L-87.1,225.5c-4.4-7.7-4.4-17.1,0-24.8L15.2,23.5
					c4.4-7.7,12.6-12.4,21.5-12.4h204.5c8.9,0,17.1,4.7,21.5,12.4L365,200.7c4.4,7.7,4.4,17.1,0,24.8L262.7,402.7
					C258.3,410.4,250.1,415.1,241.2,415.1z M36.7,12c-8.5,0-16.4,4.6-20.7,12L-86.3,201.1c-4.2,7.4-4.2,16.5,0,23.9L16,402.3
					c4.3,7.4,12.2,12,20.7,12h204.5c8.5,0,16.4-4.6,20.7-12L364.2,225c4.2-7.4,4.2-16.5,0-23.9L261.9,23.9c-4.3-7.4-12.2-12-20.7-12
					L36.7,12z"/>
				<path class="st80" d="M241.3,418H34.7c-8.9,0-17.2-4.8-21.6-12.5l-103.3-179c-4.4-7.7-4.4-17.2,0-25l103.3-179
					c4.5-7.7,12.7-12.5,21.6-12.5h206.6c8.9,0,17.2,4.8,21.6,12.5l103.3,179c4.4,7.7,4.4,17.2,0,25L263,405.5
					C258.5,413.2,250.3,418,241.3,418z M34.7,11c-8.6,0-16.5,4.6-20.8,12L-89.4,202c-4.3,7.4-4.3,16.6,0,24L13.9,405
					c4.3,7.4,12.3,12,20.8,12h206.6c8.6,0,16.5-4.6,20.8-12l103.3-179c4.3-7.4,4.3-16.6,0-24L262.2,23c-4.3-7.4-12.3-12-20.8-12
					H34.7z"/>
				<path class="st81" d="M241.4,420.9H32.8c-9,0-17.3-4.8-21.8-12.6L-93.3,227.5c-4.5-7.8-4.5-17.3,0-25.1L11,21.6
					C15.5,13.8,23.8,9,32.8,9h208.7c9,0,17.3,4.8,21.8,12.6l104.4,180.8c4.5,7.8,4.5,17.3,0,25.1L263.2,408.3
					C258.7,416.1,250.4,420.8,241.4,420.9z M32.8,10c-8.7,0-16.7,4.6-21,12.1L-92.5,202.8c-4.3,7.5-4.3,16.7,0,24.2L11.8,407.8
					c4.3,7.5,12.3,12.1,21,12.1h208.6c8.7,0,16.7-4.6,21-12.1L366.8,227c4.3-7.5,4.3-16.7,0-24.2L262.4,22.1
					c-4.3-7.5-12.3-12.1-21-12.1L32.8,10z"/>
				<path class="st82" d="M241.5,423.7H30.8c-9,0-17.4-4.8-21.9-12.7L-96.5,228.5c-4.5-7.8-4.5-17.5,0-25.3L8.9,20.7
					C13.4,12.9,21.8,8,30.8,8h210.7c9,0,17.4,4.8,21.9,12.7l105.4,182.5c4.5,7.8,4.5,17.5,0,25.3L263.5,411
					C258.9,418.9,250.6,423.7,241.5,423.7z M30.8,9c-8.7,0-16.8,4.7-21.1,12.2L-95.7,203.7c-4.3,7.5-4.3,16.8,0,24.4L9.7,410.6
					c4.4,7.5,12.4,12.2,21.1,12.2h210.7c8.7,0,16.7-4.7,21.1-12.2L368,228c4.3-7.5,4.3-16.8,0-24.4L262.6,21.2
					C258.2,13.6,250.2,9,241.5,9H30.8z"/>
				<path class="st83" d="M241.6,426.6H28.9c-9.1,0-17.5-4.9-22.1-12.8L-99.6,229.5c-4.5-7.9-4.5-17.6,0-25.5L6.8,19.8
					C11.4,11.9,19.8,7,28.9,7h212.7c9.1,0,17.5,4.9,22.1,12.8l106.4,184.3c4.5,7.9,4.5,17.6,0,25.5L263.7,413.8
					C259.1,421.7,250.7,426.6,241.6,426.6z M28.9,7.9C20.1,8,12,12.6,7.6,20.2L-98.8,204.5c-4.4,7.6-4.4,16.9,0,24.5L7.6,413.4
					c4.4,7.6,12.5,12.3,21.3,12.3h212.7c8.8,0,16.9-4.7,21.3-12.3l106.4-184.3c4.4-7.6,4.4-16.9,0-24.5L262.9,20.2
					c-4.4-7.6-12.5-12.3-21.3-12.3H28.9z"/>
				<path class="st84" d="M241.7,429.4H26.9c-9.2,0-17.6-4.9-22.2-12.8l-107.4-186.1c-4.6-7.9-4.6-17.7,0-25.6L4.7,18.8
					C9.3,10.9,17.7,6,26.9,6h214.8c9.3,0,17.7,5,20.4,12.1l107.4,186c6,8.1,6.7,18,1.9,26.4L263.9,416.6
					C259.3,424.5,250.9,429.4,241.7,429.4z M26.9,6.9c-8.8,0-17,4.7-21.4,12.4l-107.4,186.1c-4.4,7.6-4.4,17.1,0,24.7L5.5,416.1
					c4.4,7.6,12.6,12.3,21.4,12.4h214.8c8.8,0,17-4.7,21.4-12.4l107.4-186.1c4.7-8.2,4.1-17.5-1.8-25.4L261.2,18.6
					c-2.6-6.9-10.6-11.6-19.5-11.6H26.9z"/>
				<path class="st85" d="M241.8,432.3H25c-9.2,0-17.7-5-22.4-12.9l-108.4-187.8c-4.6-8-4.6-17.8,0-25.8L2.6,17.9
					C7.2,9.9,15.7,5,25,5h216.8c9.2,0,17.7,4.9,22.4,12.9l108.4,187.8c4.6,8,4.6,17.8,0,25.8L264.2,419.4
					C259.5,427.4,251,432.3,241.8,432.3z M25,5.9C16.1,6,7.9,10.7,3.4,18.4L-105,206.2c-4.4,7.7-4.4,17.2,0,24.9L3.4,418.9
					c4.4,7.7,12.7,12.4,21.5,12.5h216.8c8.9,0,17.1-4.7,21.5-12.4l108.4-187.9c4.4-7.7,4.4-17.2,0-24.9L263.3,18.4
					c-4.5-7.7-12.7-12.4-21.5-12.4L25,5.9z"/>
				<path class="st86" d="M241.9,435.2H23c-9.3,0-17.9-5-22.5-13L-109,232.6c-4.6-8-4.6-18,0-26L0.5,17C5.1,8.9,13.7,4,23,4h218.9
					c9.3,0,17.9,5,22.5,13l109.5,189.6c4.6,8,4.6,18,0,26L264.4,422.2C259.7,430.2,251.2,435.2,241.9,435.2z M23,4.9
					C14.1,5,5.8,9.7,1.3,17.5l-109.4,189.6c-4.4,7.7-4.4,17.3,0,25L1.3,421.7c4.5,7.7,12.7,12.5,21.7,12.5h218.9
					c9,0,17.2-4.8,21.7-12.5L373,232.1c4.4-7.7,4.4-17.3,0-25L263.6,17.5C259.1,9.7,250.9,5,241.9,4.9L23,4.9z"/>
				<path class="st87" d="M242,438H21c-9.3,0-18-5-22.7-13.1l-110.5-191.4c-4.7-8.1-4.7-18.1,0-26.2L-1.6,16.1C3.1,8,11.7,3,21,3
					H242c9.3,0,17.9,5,22.6,13.1l110.5,191.4c4.7,8.1,4.7,18.1,0,26.2L264.6,424.9C259.9,433,251.3,438,242,438z M21,3.9
					C12,4,3.7,8.8-0.8,16.5l-110.5,191.4c-4.5,7.8-4.5,17.4,0,25.2L-0.8,424.5C3.7,432.2,12,437,21,437.1H242
					c9,0,17.3-4.8,21.8-12.6l110.5-191.4c4.5-7.8,4.5-17.4,0-25.2L263.8,16.5C259.3,8.8,251,4,242,3.9H21z"/>
				<path class="st88" d="M242.1,440.9h-223c-9.4,0-18.1-5-22.8-13.2l-111.5-193.1c-4.7-8.2-4.7-18.2,0-26.3L-3.7,15.1
					C1,7,9.7,2,19.1,2h223c9.4,0,18.1,5,22.8,13.2l111.5,193.1c4.7,8.2,4.7,18.2,0,26.3L264.9,427.7
					C260.2,435.9,251.5,440.9,242.1,440.9z M19.1,2.9c-9.1,0-17.4,4.8-22,12.7l-111.5,193.1c-4.5,7.9-4.5,17.5,0,25.4L-2.9,427.2
					c4.5,7.8,12.9,12.7,22,12.7h223c9.1,0,17.5-4.8,22-12.7l111.5-193.1c4.5-7.9,4.5-17.5,0-25.4L264,15.6
					c-4.5-7.8-12.9-12.7-22-12.7L19.1,2.9z"/>
				<path class="st89" d="M242.2,443.8h-225c-9.5,0-18.2-5.1-23-13.2l-112.6-194.9c-4.7-8.2-4.7-18.3,0-26.5L-5.8,14.2
					C-1.1,6,7.7,1,17.1,0.9h225c9.5,0,18.2,5.1,23,13.3l112.5,194.9c4.7,8.2,4.7,18.3,0,26.5L265.1,430.5
					C260.4,438.7,251.6,443.7,242.2,443.8z M17.2,1.9C8,1.9-0.4,6.8-4.9,14.7l-112.6,194.9c-4.6,7.9-4.6,17.6,0,25.5L-5,430
					c4.6,7.9,13,12.7,22.1,12.8h225c9.1,0,17.5-4.9,22.1-12.8l112.6-194.9c4.6-7.9,4.6-17.6,0-25.5L264.3,14.7
					c-4.6-7.9-13-12.8-22.1-12.8H17.2z"/>
			</g>
		</g>
	</g>
	<g>
		<defs>
			<path id="SVGID_00000146465187850843871950000016127525461559475126_" d="M258.8,97.4v167.4c0,33.1-23,61.8-55.4,68.9
				c-10,2.2-21.6,4.1-35.2,5.7c-10.7,1.2-21.1,4-31,8.1l-3.9,1.7l-7.7-3.5c-7.4-3.4-15.4-5.7-23.5-6.6c-13.1-1.4-26.1-3.4-39-6.1
				c-32.4-7.1-55.4-35.7-55.4-68.9V96.7l11.6-2.4C94.5,79.1,172,79.3,247.1,95L258.8,97.4z"/>
		</defs>
		<clipPath id="SVGID_00000015320558155508867990000017495434190855836825_">
			<use xlink:href="#SVGID_00000146465187850843871950000016127525461559475126_"  style="overflow:visible;"/>
		</clipPath>
		<g style="clip-path:url(#SVGID_00000015320558155508867990000017495434190855836825_);">
			
				<radialGradient id="SVGID_00000016771621388588383330000018059338530029526716_" cx="4.2901" cy="311.48" r="213.77" gradientTransform="matrix(1 0 0 -1 0 598)" gradientUnits="userSpaceOnUse">
				<stop  offset="0" style="stop-color:#A2DEF9"/>
				<stop  offset="2.000000e-02" style="stop-color:#92DBF8"/>
				<stop  offset="0.11" style="stop-color:#5FD1F7"/>
				<stop  offset="0.19" style="stop-color:#36C9F5"/>
				<stop  offset="0.26" style="stop-color:#18C4F4"/>
				<stop  offset="0.32" style="stop-color:#06C0F3"/>
				<stop  offset="0.37" style="stop-color:#00BFF3"/>
				<stop  offset="0.45" style="stop-color:#04ACE1"/>
				<stop  offset="0.6" style="stop-color:#0E7AB2"/>
				<stop  offset="0.83" style="stop-color:#1D2A67"/>
				<stop  offset="0.86" style="stop-color:#201D5A"/>
				<stop  offset="0.88" style="stop-color:#1D1B51"/>
				<stop  offset="0.92" style="stop-color:#161539"/>
				<stop  offset="0.96" style="stop-color:#0C0D19"/>
			</radialGradient>
			<path style="fill:url(#SVGID_00000016771621388588383330000018059338530029526716_);" d="M114.1,105c-1.6-1.6-3.6-2.6-5.7-3.2
				H98.3c-3.2,0-5.5,0.5-6.8,1.4c-1.7,1.5-3.1,3.3-4,5.4L-15.6,305.2v2.3h67.3l76.6-154.6c0.7-1.3,2.2-2.1,3.7-2h3.4
				c0.9,0,1.7,0.2,2.5,0.5L114.1,105z"/>
			
				<radialGradient id="SVGID_00000096741452796665864930000014602761858714768773_" cx="123.2901" cy="487.03" r="196.49" gradientTransform="matrix(1 0 0 -1 0 598)" gradientUnits="userSpaceOnUse">
				<stop  offset="0" style="stop-color:#A2DEF9"/>
				<stop  offset="3.000000e-02" style="stop-color:#92DBF8"/>
				<stop  offset="0.16" style="stop-color:#5FD1F7"/>
				<stop  offset="0.28" style="stop-color:#36C9F5"/>
				<stop  offset="0.38" style="stop-color:#18C4F4"/>
				<stop  offset="0.48" style="stop-color:#06C0F3"/>
				<stop  offset="0.54" style="stop-color:#00BFF3"/>
				<stop  offset="0.6" style="stop-color:#05A8DD"/>
				<stop  offset="0.73" style="stop-color:#106DA5"/>
				<stop  offset="0.88" style="stop-color:#201D5A"/>
				<stop  offset="0.91" style="stop-color:#1E1B54"/>
				<stop  offset="0.94" style="stop-color:#191742"/>
				<stop  offset="0.98" style="stop-color:#101026"/>
				<stop  offset="1" style="stop-color:#0C0D19"/>
			</radialGradient>
			<path style="fill:url(#SVGID_00000096741452796665864930000014602761858714768773_);" d="M251.3,244.6l-70.7-136
				c-1.1-2.1-2.5-3.9-4.4-5.4c-1.4-0.9-3.7-1.4-6.9-1.4h-60.9c2.2,0.5,4.1,1.6,5.7,3.2l23.7,46.5c0.6,0.3,1.1,0.8,1.5,1.4l32.5,65
				c3,6,5.6,11,7.6,15c2.1,4,3.9,7.4,5.4,10.2c1.5,2.8,2.9,5.2,4.1,7.2s2.4,4,3.5,6.1l-0.8,1.9l49.9,2.6
				C241.5,260.9,251.5,258.6,251.3,244.6z"/>
			
				<radialGradient id="SVGID_00000111170582623428127080000012381223871006936750_" cx="244.52" cy="337.16" r="162.97" gradientTransform="matrix(1 0 0 -1 0 598)" gradientUnits="userSpaceOnUse">
				<stop  offset="9.000000e-02" style="stop-color:#A2DEF9"/>
				<stop  offset="0.42" style="stop-color:#00BFF3"/>
				<stop  offset="0.47" style="stop-color:#02B6EB"/>
				<stop  offset="0.53" style="stop-color:#069FD4"/>
				<stop  offset="0.62" style="stop-color:#0E78B0"/>
				<stop  offset="0.72" style="stop-color:#19437E"/>
				<stop  offset="0.78" style="stop-color:#201D5A"/>
				<stop  offset="0.83" style="stop-color:#1B194A"/>
				<stop  offset="0.92" style="stop-color:#0F0F22"/>
				<stop  offset="0.94" style="stop-color:#0C0D19"/>
			</radialGradient>
			<path style="fill:url(#SVGID_00000111170582623428127080000012381223871006936750_);" d="M282.8,305.3l-31.6-60.7
				c0.3,14-9.7,16.3-9.7,16.3l-49.9-2.6v0.1l-7.6-0.6c-2.7-0.2-5.7-0.3-9-0.4s-7.2-0.1-11.7-0.1H89.8v5.6l17,44.6h176V305.3z"/>
		</g>
	</g>
	<path class="st94" d="M133.3,352.1l-8.8-4c-7.1-3.3-14.8-5.5-22.6-6.3c-13.2-1.4-26.3-3.5-39.2-6.2C28.9,328.2,5,298.4,5,264V94.3
		l13.8-2.8c75.5-15.4,153.4-15.1,228.8,0.7l14,2.9v169.7c0.1,34.5-23.9,64.3-57.6,71.6c-10.8,2.3-22.7,4.3-35.5,5.8
		c-10.4,1.2-20.6,3.9-30.2,7.9L133.3,352.1z M10.6,98.9V264c0.1,31.8,22.2,59.2,53.2,66.1c12.8,2.7,25.7,4.7,38.7,6.1
		c8.4,0.9,16.7,3.2,24.4,6.8l6.6,3l2.8-1.2c10.1-4.3,20.8-7.1,31.7-8.3c12.6-1.5,24.4-3.4,35-5.7c31-6.9,53.1-34.4,53.2-66.1V99.6
		l-9.5-2C171.9,81.9,94.8,81.7,20,97L10.6,98.9z"/>
	<path class="st95" d="M239,140h-29.9c-0.3,0-0.6-0.1-0.8-0.3c-0.2-0.3-0.3-0.7-0.3-1.1V133c0-0.6,0.1-1.3,0.4-1.8
		c0.4-0.5,0.9-0.8,1.4-0.9l20.2-6.9c0.4-0.1,0.8-0.4,1.1-0.7c0.2-0.3,0.3-0.7,0.3-1.1v-1c0-0.4-0.1-0.7-0.3-1
		c-0.3-0.3-0.8-0.4-1.2-0.4h-20.2l-2.3-6.1v-0.3h25.4c1,0,2,0.1,3,0.4c0.8,0.3,1.4,0.7,2,1.3c0.5,0.6,0.9,1.3,1.1,2
		c0.2,0.8,0.4,1.7,0.3,2.5v2.7c0,0.8-0.1,1.6-0.2,2.4c-0.1,0.6-0.3,1.2-0.7,1.7c-0.3,0.5-0.8,0.9-1.3,1.2c-0.7,0.4-1.4,0.7-2.2,0.9
		l-10.6,3.4L222,132l-1.7,0.5l-1.4,0.4c-0.4,0.1-0.8,0.2-1.3,0.3v0.3c0.8,0,1.5-0.1,2.1-0.1l1.8-0.1c0.6,0,1.1,0,1.6,0H239L239,140z
		"/>
	<path class="st95" d="M31.8,61.9c-2.8,0.4-4.2,0.6-7,1.1c-1.2-3.6-1.7-5.3-2.9-8.9c-3.5,0.6-5.3,0.9-8.9,1.5
		c0.1,3.8,0.1,5.6,0.2,9.4c-2.8,0.5-4.1,0.8-6.9,1.3v-0.1c0-16.5,0.2-33.1,0.6-49.6c3.1-0.6,4.7-0.8,7.9-1.4
		C20.6,30.7,26.3,46.2,31.8,61.9z M19.9,48.1C17.5,41,15.1,34,12.7,27c0,7.4,0.1,14.9,0.2,22.3C15.7,48.8,17.1,48.5,19.9,48.1z"/>
	<path class="st95" d="M72.5,34.5c0.3,3-1.1,4.7-4,5c-4.7,0.4-7,0.7-11.7,1.2l2,17.5c-2.8,0.3-4.2,0.5-7,0.8l-6-48.3
		c7.9-1,11.8-1.4,19.7-2.2c3.1-0.3,4.8,1,5,4L72.5,34.5z M65,33.5c-0.8-7.4-1.1-11.1-1.9-18.5c-3.7,0.4-5.5,0.6-9.1,1l2.1,18.4
		C59.6,34.1,61.4,33.9,65,33.5L65,33.5z"/>
	<path class="st95" d="M117.8,31.8c0.1,3-1.4,4.6-4.3,4.7c-4.7,0.2-7,0.3-11.8,0.5c0.4,7.1,0.5,10.6,0.9,17.6
		c-2.8,0.1-4.2,0.2-7.1,0.4c-1-16.2-2-32.4-3-48.6c7.9-0.5,11.9-0.7,19.8-1c3.1-0.1,4.7,1.3,4.8,4.3
		C117.4,17.1,117.6,24.5,117.8,31.8z M110.4,30.4l-0.7-18.5c-3.7,0.2-5.5,0.2-9.2,0.4c0.4,7.4,0.6,11.1,0.9,18.5
		C105,30.6,106.8,30.5,110.4,30.4z"/>
	<path class="st95" d="M158.2,54c-7.4-0.2-11.2-0.3-18.6-0.3c0-16.2,0-32.5,0-48.7c3,0,4.5,0,7.6,0.1l-0.5,42.2
		c4.7,0.1,7,0.1,11.6,0.2C158.3,50.1,158.3,51.4,158.2,54z"/>
	<path class="st95" d="M185.7,55.3c-2.8-0.2-4.2-0.3-7.1-0.4c0.9-16.2,1.8-32.4,2.7-48.6c3,0.2,4.5,0.3,7.6,0.5
		C187.9,22.9,186.8,39.1,185.7,55.3z"/>
	<path class="st95" d="M227.2,59.3c-7.8-1-11.7-1.4-19.6-2.2l4.7-48.5c8.3,0.8,12.4,1.3,20.7,2.3l-0.8,6.4c-5.2-0.6-7.8-1-13.1-1.5
		c-0.6,5.6-0.9,8.5-1.5,14.1c4.4,0.5,6.6,0.7,11,1.3c-0.3,2.5-0.5,3.8-0.8,6.3c-4.4-0.5-6.6-0.8-10.9-1.3c-0.7,6.1-1,9.1-1.6,15.2
		c5,0.5,7.6,0.8,12.6,1.5L227.2,59.3z"/>
	<path class="st95" d="M273,57.2c-0.3,2.5-1.7,4.7-3.7,6.1c-2.1,1.3-4.6,1.8-7,1.2c-5.7-1-8.6-1.5-14.3-2.4l7.5-48.1
		c6.1,1,9.2,1.5,15.3,2.6c2.6,0.3,5,1.7,6.6,3.7c1.5,2.1,1.9,4.7,1.3,7.1C276.8,37.4,274.9,47.3,273,57.2z M266.1,54.7
		c1.7-9.2,3.3-18.4,5-27.5c0.5-2.7-0.7-4.3-3.6-4.8l-5.5-0.9c-2,11.9-4,23.8-6,35.7l5.1,0.9C264,58.5,265.6,57.4,266.1,54.7
		L266.1,54.7z"/>
	<path class="st96" d="M20.4,73.2c0.8,4.9,1.3,7.4,2.1,12.2l-1.5,0.3c-0.1-0.9-0.2-1.3-0.4-2.1c-0.4,0.8-1,1.6-1.8,2.2
		c-0.7,0.5-1.6,0.9-2.4,1.1c-1.6,0.3-3.3-0.1-4.5-1.1c-1.4-1-2.3-2.5-2.6-4.2c-0.4-1.7,0-3.4,0.9-4.9c0.9-1.4,2.3-2.4,4-2.7
		c0.9-0.2,1.9-0.1,2.7,0.2c0.9,0.3,1.7,0.9,2.4,1.6l-0.4-2.2L20.4,73.2z M14.6,75.5c-0.8,0.1-1.6,0.5-2.2,1.1
		c-0.6,0.6-1.1,1.3-1.4,2.1c-0.3,0.8-0.3,1.7-0.2,2.6c0.2,0.9,0.5,1.7,1.1,2.4c0.5,0.7,1.2,1.2,2,1.5c0.8,0.3,1.6,0.4,2.4,0.2
		c0.8-0.1,1.6-0.5,2.3-1c0.6-0.5,1.1-1.3,1.4-2.1c0.3-0.8,0.3-1.7,0.2-2.6c-0.2-1.3-0.9-2.5-2-3.3C17.1,75.6,15.8,75.3,14.6,75.5z"
		/>
	<path class="st96" d="M57.6,63l1.5-0.2l2,17.1l-1.5,0.2C58.8,73.3,58.4,69.9,57.6,63z"/>
	<path class="st96" d="M97.3,64.4l1.5-0.1c0.1,2.3,0.2,3.5,0.3,5.8c0,1,0.1,2,0.4,2.9c0.2,0.7,0.7,1.3,1.3,1.7
		c1.3,0.8,3.1,0.7,4.3-0.2c0.6-0.4,1-1.1,1.1-1.8c0.1-1,0.2-2,0.1-3.1l-0.3-5.8l1.6-0.1c0.1,2.4,0.2,3.6,0.3,6.1
		c0.1,1.3,0,2.6-0.4,3.9c-0.3,0.8-0.9,1.6-1.6,2.1c-1.7,1.1-3.9,1.2-5.7,0.3c-0.8-0.5-1.4-1.2-1.8-2c-0.5-1.2-0.8-2.6-0.8-3.9
		C97.5,67.9,97.5,66.8,97.3,64.4z"/>
	<path class="st96" d="M145.9,63.2h1.5c0,0.9,0,1.3,0,2.1c0.4-0.7,1-1.3,1.7-1.7c0.7-0.5,1.6-0.7,2.5-0.7c0.6,0,1.1,0.1,1.6,0.4
		c0.5,0.2,0.9,0.6,1.2,1c0.4,0.5,0.7,1.1,0.8,1.7c0.5-0.9,1.2-1.6,2-2.2c0.7-0.5,1.6-0.7,2.5-0.7c0.8,0,1.5,0.3,2.2,0.7
		c0.6,0.5,1.1,1.1,1.3,1.9c0.3,1.1,0.4,2.3,0.3,3.5l-0.2,6.8l-1.5-0.1c0.1-2.7,0.1-4.1,0.2-6.8c0.1-0.9,0-1.8-0.2-2.8
		c-0.2-0.5-0.5-0.9-0.9-1.2c-0.5-0.3-1-0.5-1.6-0.5c-0.7,0-1.5,0.2-2,0.6c-0.6,0.4-1.1,1.1-1.4,1.8c-0.4,1.2-0.6,2.5-0.5,3.8
		c0,1.9-0.1,2.9-0.1,4.9h-1.5c0-2.6,0.1-3.8,0.1-6.4c0.1-1,0-2.1-0.2-3.1c-0.1-0.5-0.5-1-0.9-1.3c-0.5-0.3-1-0.5-1.6-0.5
		c-0.7,0-1.4,0.2-2,0.6c-0.6,0.4-1.1,1.1-1.4,1.8c-0.4,1.1-0.5,2.3-0.5,3.5c0,2.1,0,3.2-0.1,5.3h-1.5L145.9,63.2z"/>
	<path class="st96" d="M201.7,66l1.5,0.1l-0.2,2.2c0.6-0.7,1.4-1.3,2.2-1.7c0.8-0.4,1.6-0.5,2.5-0.4c0.8,0.1,1.6,0.4,2.3,0.9
		c0.6,0.5,1.1,1.3,1.3,2.1c0.3,1.2,0.3,2.5,0.1,3.8c-0.3,2.5-0.4,3.8-0.7,6.4l-1.5-0.2c0.2-2.4,0.4-3.5,0.6-5.9
		c0.1-1,0.2-1.9,0.1-2.9c0-0.7-0.3-1.4-0.8-1.9c-0.5-0.5-1.2-0.8-1.9-0.8c-0.9-0.1-1.8,0.2-2.6,0.7c-0.8,0.5-1.4,1.3-1.7,2.2
		c-0.3,1.1-0.5,2.2-0.5,3.4c-0.2,1.8-0.2,2.7-0.4,4.5l-1.5-0.1C201,73.4,201.3,70.9,201.7,66z"/>
	<path class="st96" d="M251.2,67c0.3,0,0.6,0.2,0.8,0.5c0.2,0.3,0.3,0.7,0.2,1c-0.1,0.3-0.2,0.7-0.5,0.9c-0.3,0.2-0.6,0.3-1,0.2
		c-0.3-0.1-0.6-0.2-0.8-0.5c-0.2-0.3-0.3-0.7-0.2-1c0.1-0.3,0.2-0.7,0.5-0.9C250.5,67.1,250.9,67,251.2,67z M249.7,72l1.5,0.2
		l-2,12.3l-1.5-0.2C248.5,79.4,248.9,76.9,249.7,72L249.7,72z"/>
</g>
</svg>
